<svg width="20" height="20" viewBox="0 0 20 20" fill="none" xmlns="http://www.w3.org/2000/svg">
<path d="M11.9665 11.8584C11.4094 12.3075 10.7154 12.5524 9.99984 12.5524C9.28426 12.5524 8.59024 12.3075 8.03317 11.8584C7.86299 11.7169 7.64359 11.6489 7.42324 11.6692C7.20288 11.6895 6.99962 11.7965 6.85817 11.9667C6.71673 12.1369 6.64867 12.3563 6.66899 12.5766C6.68931 12.797 6.79633 13.0002 6.96651 13.1417C7.81762 13.8522 8.89114 14.2414 9.99984 14.2414C11.1085 14.2414 12.1821 13.8522 13.0332 13.1417C13.2034 13.0002 13.3104 12.797 13.3307 12.5766C13.351 12.3563 13.283 12.1369 13.1415 11.9667C13.0715 11.8824 12.9855 11.8128 12.8886 11.7617C12.7916 11.7107 12.6856 11.6792 12.5764 11.6692C12.3561 11.6489 12.1367 11.7169 11.9665 11.8584V11.8584ZM7.49984 9.16669C7.66466 9.16669 7.82578 9.11781 7.96282 9.02625C8.09986 8.93468 8.20667 8.80453 8.26974 8.65226C8.33281 8.49999 8.34932 8.33243 8.31716 8.17078C8.28501 8.00913 8.20564 7.86064 8.0891 7.7441C7.97255 7.62755 7.82407 7.54819 7.66242 7.51603C7.50077 7.48388 7.33321 7.50038 7.18094 7.56345C7.02867 7.62653 6.89852 7.73334 6.80695 7.87038C6.71538 8.00742 6.66651 8.16854 6.66651 8.33335C6.66651 8.55437 6.7543 8.76633 6.91059 8.92261C7.06687 9.07889 7.27883 9.16669 7.49984 9.16669ZM12.4998 7.50002C12.335 7.50002 12.1739 7.54889 12.0369 7.64046C11.8998 7.73203 11.793 7.86218 11.7299 8.01445C11.6669 8.16672 11.6504 8.33428 11.6825 8.49593C11.7147 8.65758 11.794 8.80607 11.9106 8.92261C12.0271 9.03915 12.1756 9.11852 12.3373 9.15068C12.4989 9.18283 12.6665 9.16633 12.8187 9.10325C12.971 9.04018 13.1012 8.93337 13.1927 8.79633C13.2843 8.65929 13.3332 8.49817 13.3332 8.33335C13.3332 8.11234 13.2454 7.90038 13.0891 7.7441C12.9328 7.58782 12.7209 7.50002 12.4998 7.50002ZM9.99984 1.66669C8.35166 1.66669 6.7405 2.15543 5.37009 3.07111C3.99968 3.98679 2.93158 5.28827 2.30084 6.81099C1.67011 8.33371 1.50509 10.0093 1.82663 11.6258C2.14817 13.2423 2.94185 14.7271 4.10728 15.8926C5.27272 17.058 6.75758 17.8517 8.37409 18.1732C9.9906 18.4948 11.6662 18.3297 13.1889 17.699C14.7116 17.0683 16.0131 16.0002 16.9288 14.6298C17.8444 13.2594 18.3332 11.6482 18.3332 10C18.3332 8.90567 18.1176 7.82204 17.6988 6.81099C17.28 5.79995 16.6662 4.88129 15.8924 4.10746C15.1186 3.33364 14.1999 2.71981 13.1889 2.30102C12.1778 1.88224 11.0942 1.66669 9.99984 1.66669V1.66669ZM9.99984 16.6667C8.6813 16.6667 7.39237 16.2757 6.29604 15.5432C5.19971 14.8106 4.34523 13.7694 3.84064 12.5512C3.33606 11.3331 3.20404 9.99263 3.46127 8.69942C3.71851 7.40621 4.35345 6.21833 5.2858 5.28598C6.21815 4.35363 7.40603 3.71869 8.69924 3.46145C9.99245 3.20422 11.3329 3.33624 12.5511 3.84082C13.7692 4.34541 14.8104 5.19989 15.543 6.29622C16.2755 7.39255 16.6665 8.68148 16.6665 10C16.6665 11.7681 15.9641 13.4638 14.7139 14.7141C13.4636 15.9643 11.768 16.6667 9.99984 16.6667V16.6667Z" fill="#212121"/>
</svg>
