<svg width="12" height="12" viewBox="0 0 12 12" fill="none" xmlns="http://www.w3.org/2000/svg">
<path d="M3.17225 2.64664C3.21874 2.69308 3.25562 2.74822 3.28078 2.80892C3.30594 2.86962 3.31889 2.93469 3.31889 3.00039C3.31889 3.0661 3.30594 3.13116 3.28078 3.19186C3.25562 3.25256 3.21874 3.30771 3.17225 3.35414C2.42197 4.10455 2.00048 5.12225 2.00048 6.18339C2.00048 7.24454 2.42197 8.26224 3.17225 9.01264C3.21867 9.0591 3.25549 9.11424 3.2806 9.17493C3.30571 9.23561 3.31862 9.30065 3.3186 9.36632C3.31858 9.432 3.30562 9.49702 3.28047 9.55769C3.25531 9.61835 3.21846 9.67347 3.172 9.71989C3.12555 9.76632 3.0704 9.80313 3.00972 9.82825C2.94903 9.85336 2.884 9.86627 2.81832 9.86625C2.75265 9.86622 2.68762 9.85326 2.62696 9.82811C2.56629 9.80296 2.51117 9.7661 2.46475 9.71964C0.51175 7.76664 0.51175 4.59964 2.46475 2.64664C2.51119 2.60016 2.56633 2.56328 2.62703 2.53811C2.68773 2.51295 2.75279 2.5 2.8185 2.5C2.88421 2.5 2.94927 2.51295 3.00997 2.53811C3.07067 2.56328 3.12581 2.60016 3.17225 2.64664V2.64664ZM9.53775 2.64664C11.4907 4.60014 11.4907 7.76664 9.53775 9.71964C9.44345 9.81072 9.31715 9.86112 9.18605 9.85998C9.05495 9.85884 8.92955 9.80626 8.83684 9.71355C8.74414 9.62085 8.69155 9.49544 8.69041 9.36434C8.68927 9.23325 8.73967 9.10695 8.83075 9.01264C9.58103 8.26224 10.0025 7.24454 10.0025 6.18339C10.0025 5.12225 9.58103 4.10455 8.83075 3.35414C8.73693 3.26039 8.6842 3.13321 8.68415 3.00057C8.6841 2.86794 8.73675 2.74071 8.8305 2.64689C8.92425 2.55307 9.05144 2.50034 9.18407 2.50029C9.31671 2.50025 9.44393 2.55289 9.53775 2.64664V2.64664ZM4.65575 4.08364C4.74949 4.17741 4.80214 4.30456 4.80214 4.43714C4.80214 4.56973 4.74949 4.69688 4.65575 4.79064C4.47373 4.97265 4.32934 5.18873 4.23082 5.42654C4.13231 5.66435 4.08161 5.91924 4.08161 6.17664C4.08161 6.43405 4.13231 6.68894 4.23082 6.92675C4.32934 7.16456 4.47373 7.38064 4.65575 7.56264C4.70351 7.60877 4.7416 7.66394 4.7678 7.72494C4.79401 7.78594 4.8078 7.85155 4.80838 7.91794C4.80895 7.98433 4.7963 8.05017 4.77116 8.11162C4.74602 8.17307 4.70889 8.2289 4.66195 8.27584C4.615 8.32279 4.55918 8.35991 4.49773 8.38505C4.43628 8.4102 4.37044 8.42285 4.30405 8.42227C4.23766 8.42169 4.17205 8.4079 4.11105 8.3817C4.05005 8.35549 3.99487 8.3174 3.94875 8.26964C3.39366 7.71454 3.08182 6.96167 3.08182 6.17664C3.08182 5.39162 3.39366 4.63875 3.94875 4.08364C4.04251 3.98991 4.16967 3.93725 4.30225 3.93725C4.43483 3.93725 4.56199 3.98991 4.65575 4.08364V4.08364ZM8.13525 4.08364C8.69034 4.63875 9.00218 5.39162 9.00218 6.17664C9.00218 6.96167 8.69034 7.71454 8.13525 8.26964C8.08883 8.3161 8.03371 8.35296 7.97304 8.37811C7.91238 8.40326 7.84735 8.41622 7.78168 8.41625C7.716 8.41627 7.65097 8.40336 7.59028 8.37824C7.5296 8.35313 7.47446 8.31632 7.428 8.26989C7.38154 8.22347 7.34469 8.16835 7.31953 8.10769C7.29438 8.04702 7.28142 7.98199 7.2814 7.91632C7.28138 7.85065 7.29429 7.78561 7.3194 7.72493C7.34451 7.66424 7.38133 7.6091 7.42775 7.56264C7.60977 7.38064 7.75416 7.16456 7.85268 6.92675C7.95119 6.68894 8.00189 6.43405 8.00189 6.17664C8.00189 5.91924 7.95119 5.66435 7.85268 5.42654C7.75416 5.18873 7.60977 4.97265 7.42775 4.79064C7.334 4.69682 7.28135 4.5696 7.2814 4.43697C7.28145 4.30433 7.33418 4.17715 7.428 4.08339C7.52182 3.98964 7.64904 3.937 7.78168 3.93704C7.91431 3.93709 8.0415 3.98982 8.13525 4.08364V4.08364ZM6.04175 5.46864C6.14024 5.46864 6.23777 5.48804 6.32876 5.52573C6.41976 5.56342 6.50244 5.61867 6.57208 5.68831C6.64172 5.75796 6.69697 5.84064 6.73466 5.93163C6.77235 6.02263 6.79175 6.12015 6.79175 6.21864C6.79175 6.31714 6.77235 6.41466 6.73466 6.50566C6.69697 6.59665 6.64172 6.67933 6.57208 6.74897C6.50244 6.81862 6.41976 6.87386 6.32876 6.91155C6.23777 6.94924 6.14024 6.96864 6.04175 6.96864C5.84284 6.96864 5.65207 6.88963 5.51142 6.74897C5.37077 6.60832 5.29175 6.41756 5.29175 6.21864C5.29175 6.01973 5.37077 5.82897 5.51142 5.68831C5.65207 5.54766 5.84284 5.46864 6.04175 5.46864V5.46864Z" fill="#1C56C6"/>
</svg>
