<svg width="30" height="27" viewBox="0 0 30 27" fill="none" xmlns="http://www.w3.org/2000/svg">
<path fill-rule="evenodd" clip-rule="evenodd" d="M14.8674 0C23.0304 0 29.6479 6.04416 29.6479 13.5C29.6479 20.9558 23.0304 27 14.8674 27C6.70436 27 0.0869141 20.9558 0.0869141 13.5C0.0869141 6.04416 6.70436 0 14.8674 0ZM14.867 1.57275C22.0788 1.5735 27.9246 6.91384 27.924 13.5009C27.9235 20.088 22.0768 25.4275 14.865 25.4273C7.65313 25.427 1.80691 20.0871 1.80691 13.5C1.80701 10.3365 3.18306 7.3026 5.63231 5.06579C8.08156 2.82897 11.4034 1.57249 14.867 1.57275ZM10.1916 7.6444C9.73476 7.63943 9.29481 7.80199 8.97026 8.0957C8.6457 8.38941 8.46366 8.78973 8.46488 9.20702C8.46488 10.0781 9.23796 10.7842 10.1916 10.7842C11.1453 10.7842 11.9183 10.0781 11.9183 9.20702C11.9196 8.78973 11.7375 8.38941 11.413 8.0957C11.0884 7.80199 10.6485 7.63943 10.1916 7.6444ZM24.7173 15.8253C23.9302 19.71 19.8253 22.9533 14.8653 22.9533C9.9449 22.9533 5.86401 19.7572 5.03076 15.9165C4.86189 14.958 5.72138 14.7318 6.53098 14.9107C9.23934 15.626 12.0481 15.9739 14.8672 15.9435C17.6799 15.9732 20.4823 15.6264 23.1849 14.9141C23.972 14.7318 24.8148 14.9377 24.7173 15.8253ZM22.0454 16.3653C21.9685 16.3923 21.8905 16.4125 21.8118 16.4362C21.8037 16.4395 22.0638 16.3619 22.0561 16.3653C19.719 16.9529 17.3032 17.2381 14.8794 17.2124C11.9869 17.2124 9.39992 16.9188 7.61961 16.3349C6.32891 15.9839 6.57648 17.371 7.48363 17.7963C9.80437 18.7613 12.3293 19.2475 14.879 19.2205C17.912 19.2205 20.6146 18.5759 22.3997 17.7423C23.2444 17.2462 23.4115 15.9164 22.0454 16.3653ZM19.5526 7.6444C19.0957 7.63943 18.6557 7.80198 18.3311 8.09568C18.0065 8.38938 17.8243 8.78969 17.8255 9.20702C17.8163 9.77604 18.1435 10.3054 18.6815 10.5924C19.2196 10.8793 19.8851 10.8793 20.4232 10.5924C20.9613 10.3054 21.2884 9.77604 21.2793 9.20702C21.2804 8.78975 21.0983 8.38949 20.7738 8.0958C20.4493 7.80211 20.0094 7.63952 19.5526 7.6444Z" fill="#212121"/>
</svg>
