<svg width="30" height="27" viewBox="0 0 30 27" fill="none" xmlns="http://www.w3.org/2000/svg">
<path fill-rule="evenodd" clip-rule="evenodd" d="M14.8669 0C23.03 0 29.6474 6.04416 29.6474 13.5C29.6474 20.9558 23.03 27 14.8669 27C6.70388 27 0.0864258 20.9558 0.0864258 13.5C0.0864258 6.04416 6.70388 0 14.8669 0ZM14.8668 1.57275C22.0786 1.5735 27.9244 6.91384 27.9239 13.5009C27.9233 20.088 22.0767 25.4275 14.8648 25.4273C7.65297 25.427 1.80675 20.0871 1.80675 13.5C1.80685 10.3365 3.18289 7.3026 5.63215 5.06579C8.0814 2.82897 11.4032 1.57249 14.8668 1.57275ZM10.1913 7.6444C9.73449 7.63943 9.29454 7.80199 8.96999 8.0957C8.64543 8.38941 8.46339 8.78973 8.46461 9.20702C8.46461 10.0781 9.23769 10.7842 10.1913 10.7842C11.145 10.7842 11.9181 10.0781 11.9181 9.20702C11.9193 8.78973 11.7372 8.38941 11.4127 8.0957C11.0881 7.80199 10.6482 7.63943 10.1913 7.6444ZM24.7169 15.8253C23.9299 19.71 19.8249 22.9533 14.865 22.9533C9.94456 22.9533 5.86366 19.7572 5.03041 15.9165C4.86155 14.958 5.72103 14.7318 6.53063 14.9107C9.239 15.626 12.0477 15.9739 14.8668 15.9435C17.6796 15.9732 20.4819 15.6264 23.1845 14.9141C23.9716 14.7318 24.8145 14.9377 24.7169 15.8253ZM22.0451 16.3653C21.9682 16.3923 21.8903 16.4125 21.8116 16.4362C21.8034 16.4395 22.0636 16.3619 22.0558 16.3653C19.7188 16.9529 17.303 17.2381 14.8792 17.2124C11.9866 17.2124 9.39966 16.9188 7.61935 16.3349C6.32864 15.9839 6.57622 17.371 7.48337 17.7963C9.8041 18.7613 12.3291 19.2475 14.8788 19.2205C17.9117 19.2205 20.6144 18.5759 22.3995 17.7423C23.2442 17.2462 23.4112 15.9164 22.0451 16.3653ZM19.5521 7.6444C19.0952 7.63943 18.6552 7.80198 18.3306 8.09568C18.006 8.38938 17.8239 8.78969 17.825 9.20702C17.8159 9.77604 18.143 10.3054 18.6811 10.5924C19.2192 10.8793 19.8847 10.8793 20.4228 10.5924C20.9608 10.3054 21.288 9.77604 21.2788 9.20702C21.28 8.78975 21.0979 8.38949 20.7734 8.0958C20.4488 7.80211 20.0089 7.63952 19.5521 7.6444Z" fill="white"/>
</svg>
