<svg width="17" height="25" viewBox="0 0 17 25" fill="none" xmlns="http://www.w3.org/2000/svg">
<path fill-rule="evenodd" clip-rule="evenodd" d="M0.928977 10.3318C1.43287 10.3318 1.84135 10.7049 1.84135 11.1652C1.84135 11.1929 1.83987 11.2203 1.83698 11.2473V13.5422H1.83223V13.5489C1.83223 13.5645 1.83343 13.5802 1.83462 13.5958L1.83462 13.5958C1.83571 13.6102 1.8368 13.6245 1.83698 13.6389V13.9522H1.85413C2.12532 16.9163 4.78076 19.2264 8.03493 19.3295H8.40353C11.6587 19.2281 14.3156 16.9172 14.5858 13.9522H14.6077V11.1753L14.6149 11.1752L14.6148 11.1652C14.6148 10.7049 15.0233 10.3318 15.5272 10.3318C16.0311 10.3318 16.4395 10.7049 16.4395 11.1652C16.4395 11.1898 16.4384 11.2142 16.4361 11.2383V13.2822H16.4251H16.4248C16.4276 17.1108 13.2949 20.3362 9.13306 20.7896V23.3232H12.5709V23.3339C12.5829 23.3335 12.595 23.3333 12.6072 23.3333C13.1111 23.3333 13.5196 23.7064 13.5196 24.1667C13.5196 24.627 13.1111 25.0001 12.6072 25.0001C12.595 25.0001 12.5829 24.9999 12.5709 24.9994V25.0001H3.88143V24.9996C3.87047 24.9999 3.85946 25.0001 3.8484 25.0001C3.34451 25.0001 2.93603 24.627 2.93603 24.1667C2.93603 23.7064 3.34451 23.3333 3.8484 23.3333C3.85946 23.3333 3.87047 23.3334 3.88143 23.3338V23.3232H7.32656V20.7896C3.15584 20.3469 0.0115302 17.1176 0.0166078 13.2822C0.0166078 13.2622 0.0184427 13.2433 0.0202342 13.2248C0.0217369 13.2092 0.0232089 13.194 0.0235418 13.1788V11.2685C0.0189608 11.2347 0.0166016 11.2002 0.0166016 11.1652C0.0166016 10.7049 0.425086 10.3318 0.928977 10.3318ZM13.1474 11.8786C13.1474 12.382 13.1474 12.9121 13.1182 13.4155C13.0958 13.8694 13.02 14.3198 12.892 14.7589C12.6064 15.6806 11.9973 16.4911 11.1585 17.0658C9.43786 18.3059 7.01066 18.3059 5.29006 17.0658C4.44901 16.4929 3.83922 15.6817 3.55581 14.7589C3.42723 14.32 3.35148 13.8695 3.32991 13.4155C3.29816 12.9121 3.30108 12.382 3.30108 11.8786V7.66486C3.30108 7.16481 3.304 4.95458 3.30108 4.58121C3.3155 4.12453 3.40153 3.6721 3.55654 3.23773C4.1408 1.32384 6.04948 0 8.22462 0C10.3998 0 12.3084 1.32384 12.8927 3.23773C13.0299 3.67599 13.1155 4.12636 13.1482 4.58121C13.181 5.08459 13.1482 7.16481 13.1482 7.66486V11.8786H13.1474ZM11.3225 12.6653C11.3225 12.9853 11.3152 13.092 11.2933 13.412C11.2807 13.7027 11.233 13.9911 11.151 14.2721C10.9762 14.8622 10.5957 15.3841 10.0671 15.759C8.98395 16.5279 7.46782 16.5279 6.38471 15.759C5.85405 15.3852 5.47205 14.863 5.29716 14.2721C5.21692 13.9908 5.16922 13.7025 5.15483 13.412C5.13658 13.092 5.13293 12.9853 5.13293 12.6653C5.13293 8.2315 5.11103 4.9445 5.14023 4.59113C5.16134 4.3004 5.2139 4.0123 5.29716 3.73104C5.47205 3.14018 5.85405 2.61793 6.38471 2.24421C7.46782 1.47524 8.98395 1.47524 10.0671 2.24421C10.5957 2.61903 10.9762 3.14099 11.151 3.73104C11.2437 4.011 11.3024 4.29943 11.3261 4.59113C11.3517 4.97116 11.3225 8.21817 11.3225 12.6653Z" fill="white"/>
</svg>
