<svg width="17" height="25" viewBox="0 0 17 25" fill="none" xmlns="http://www.w3.org/2000/svg">
<path fill-rule="evenodd" clip-rule="evenodd" d="M0.929465 10.3318C1.43336 10.3318 1.84184 10.7049 1.84184 11.1652C1.84184 11.1929 1.84036 11.2203 1.83747 11.2473V13.5422H1.83272V13.5489C1.83272 13.5645 1.83391 13.5802 1.83511 13.5958C1.8362 13.6102 1.83729 13.6245 1.83747 13.6389V13.9522H1.85462C2.12581 16.9163 4.78125 19.2264 8.03541 19.3295H8.40401C11.6592 19.2281 14.3161 16.9172 14.5863 13.9522H14.6082V11.1753L14.6153 11.1752L14.6152 11.1652C14.6152 10.7049 15.0237 10.3318 15.5276 10.3318C16.0315 10.3318 16.44 10.7049 16.44 11.1652C16.44 11.1897 16.4388 11.2139 16.4366 11.2378V13.2822H16.4256H16.4253C16.4281 17.1108 13.2954 20.3362 9.13355 20.7896V23.3232H12.5714V23.3339C12.5834 23.3335 12.5954 23.3333 12.6075 23.3333C13.1114 23.3333 13.5199 23.7064 13.5199 24.1667C13.5199 24.627 13.1114 25.0001 12.6075 25.0001C12.5954 25.0001 12.5834 24.9999 12.5714 24.9995V25.0001H3.88192V24.9996C3.87102 24.9999 3.86008 25.0001 3.84909 25.0001C3.3452 25.0001 2.93672 24.627 2.93672 24.1667C2.93672 23.7064 3.3452 23.3333 3.84909 23.3333C3.86008 23.3333 3.87102 23.3334 3.88192 23.3338V23.3232H7.32705V20.7896C3.15632 20.3469 0.0120185 17.1176 0.017096 13.2822C0.017096 13.2622 0.018931 13.2433 0.0207225 13.2248C0.0222251 13.2092 0.0236971 13.194 0.0240301 13.1788V11.2685C0.0194491 11.2347 0.0170898 11.2002 0.0170898 11.1652C0.0170898 10.7049 0.425574 10.3318 0.929465 10.3318ZM13.1479 11.8786C13.1479 12.382 13.1479 12.9121 13.1187 13.4155C13.0963 13.8694 13.0205 14.3198 12.8925 14.7589C12.6069 15.6806 11.9978 16.4911 11.159 17.0658C9.43836 18.3059 7.01116 18.3059 5.29056 17.0658C4.44951 16.4929 3.83972 15.6817 3.55632 14.7589C3.42773 14.32 3.35198 13.8695 3.33041 13.4155C3.29866 12.9121 3.30158 12.382 3.30158 11.8786V7.66486C3.30158 7.16481 3.3045 4.95458 3.30158 4.58121C3.316 4.12453 3.40203 3.6721 3.55705 3.23773C4.1413 1.32384 6.04998 0 8.22512 0C10.4003 0 12.3089 1.32384 12.8932 3.23773C13.0304 3.67599 13.116 4.12636 13.1487 4.58121C13.1815 5.08459 13.1487 7.16481 13.1487 7.66486V11.8786H13.1479ZM11.3229 12.6653C11.3229 12.9853 11.3156 13.092 11.2937 13.412C11.2811 13.7027 11.2334 13.9911 11.1514 14.2721C10.9766 14.8622 10.5961 15.3841 10.0675 15.759C8.98439 16.5279 7.46826 16.5279 6.38515 15.759C5.85449 15.3852 5.47249 14.863 5.2976 14.2721C5.21736 13.9908 5.16966 13.7025 5.15527 13.412C5.13702 13.092 5.13337 12.9853 5.13337 12.6653C5.13337 8.2315 5.11147 4.9445 5.14067 4.59113C5.16178 4.3004 5.21435 4.0123 5.2976 3.73104C5.47249 3.14018 5.85449 2.61793 6.38515 2.24421C7.46826 1.47524 8.98439 1.47524 10.0675 2.24421C10.5961 2.61903 10.9766 3.14099 11.1514 3.73104C11.2441 4.011 11.3029 4.29943 11.3266 4.59113C11.3521 4.97116 11.3229 8.21817 11.3229 12.6653Z" fill="#424242"/>
</svg>
