<svg width="131" height="26" viewBox="0 0 131 26" fill="none" xmlns="http://www.w3.org/2000/svg">
<g clip-path="url(#clip0_1038_1160)">
<path d="M97.1841 6.47031C98.2032 6.47031 99.1284 6.59993 99.9597 6.85917C100.791 7.1184 101.493 7.45362 102.065 7.86483C102.422 8.11512 102.704 8.39224 102.91 8.69617C103.115 9.0001 103.218 9.39343 103.218 9.87614V19.2623L103.214 19.5175C103.184 20.3575 103.007 21.0904 102.682 21.7161C102.324 22.4044 101.837 22.9765 101.22 23.4324C100.603 23.8883 99.8793 24.2235 99.048 24.4381C98.2166 24.6526 97.3272 24.7599 96.3796 24.7599C94.7527 24.7599 93.4744 24.5409 92.5447 24.1029C91.615 23.6648 91.1502 22.9542 91.1502 21.9709C91.1502 21.5597 91.2351 21.1976 91.4049 20.8848C91.5748 20.5719 91.767 20.335 91.9815 20.1741C92.5 20.4601 93.0855 20.7015 93.7381 20.8982C94.3906 21.0948 95.0655 21.1932 95.7628 21.1932C96.7282 21.1932 97.497 21.0322 98.0691 20.7104C98.6412 20.3886 98.9273 19.8702 98.9273 19.155V18.7259L98.7234 18.8097C98.0304 19.0757 97.2045 19.2087 96.2455 19.2087C95.441 19.2087 94.6767 19.088 93.9526 18.8466C93.2285 18.6053 92.5939 18.2298 92.0486 17.7203C91.5033 17.2107 91.0653 16.5537 90.7345 15.7492C90.4038 14.9447 90.2384 13.9882 90.2384 12.8797C90.2384 11.7891 90.4127 10.8416 90.7613 10.037C91.11 9.23252 91.5927 8.56655 92.2095 8.03914C92.8263 7.51173 93.5593 7.1184 94.4085 6.85917C95.2577 6.59993 96.1829 6.47031 97.1841 6.47031ZM24.9988 6.88663C26.5931 6.88663 27.8978 7.24439 28.9127 7.95991C29.9277 8.67542 30.5285 9.93924 30.7151 11.7514H27.3086L27.276 11.5509C27.1989 11.1557 27.0503 10.7947 26.8303 10.4681C26.457 9.95479 25.8776 9.69814 25.0921 9.69814C23.9722 9.69814 23.2061 10.2542 22.7939 11.3664C22.5761 11.9575 22.4672 12.743 22.4672 13.7229C22.4672 14.6562 22.5761 15.4067 22.7939 15.9745C23.1905 17.0322 23.9372 17.561 25.0338 17.561C25.8115 17.561 26.3637 17.3511 26.6903 16.9311C27.017 16.5111 27.2153 15.9667 27.2853 15.2978H30.6801L30.6571 15.5302C30.5444 16.4557 30.1866 17.3349 29.5835 18.1677C28.5414 19.622 26.9975 20.3492 24.9521 20.3492C22.9067 20.3492 21.4017 19.7426 20.4374 18.5293C19.473 17.3161 18.9908 15.7411 18.9908 13.8046C18.9908 11.6191 19.5235 9.9198 20.589 8.70653C21.6545 7.49326 23.1244 6.88663 24.9988 6.88663ZM55.8957 6.85163C56.9534 6.85163 57.9062 7.04996 58.7539 7.4466C59.6016 7.84325 60.3016 8.46932 60.8538 9.32483C61.3515 10.0792 61.6743 10.9542 61.8221 11.9497C61.9076 12.533 61.9426 13.3729 61.9271 14.4695H53.2242L53.2361 14.6907C53.3192 15.8489 53.7158 16.6696 54.4258 17.1527C54.8847 17.4716 55.4369 17.631 56.0824 17.631C56.7668 17.631 57.3229 17.4366 57.7506 17.0477C57.9839 16.8377 58.19 16.5461 58.3689 16.1728H61.7637L61.7385 16.3471C61.6159 17.0451 61.2316 17.7531 60.5855 18.471C59.4966 19.7076 57.9723 20.3259 56.0124 20.3259C54.3947 20.3259 52.9676 19.8048 51.731 18.7626C50.4944 17.7205 49.8761 16.025 49.8761 13.6763C49.8761 11.4753 50.4341 9.78758 51.5501 8.6132C52.6662 7.43882 54.1147 6.85163 55.8957 6.85163ZM79.2407 2.1795C79.6341 2.1795 79.9872 2.20632 80.3 2.25995C80.6129 2.31359 80.8766 2.42086 81.0912 2.58176C81.3057 2.74267 81.4711 2.96168 81.5873 3.2388C81.7035 3.51591 81.7616 3.87795 81.7616 4.32491V19.8791L81.6716 19.8952C81.48 19.9292 81.2195 19.973 80.89 20.0266C80.5056 20.0892 80.1168 20.1205 79.7235 20.1205C79.3301 20.1205 78.977 20.0936 78.6642 20.04C78.3513 19.9864 78.0876 19.8791 77.873 19.7182C77.6585 19.5573 77.4931 19.3383 77.3769 19.0612C77.2607 18.784 77.2026 18.422 77.2026 17.975V2.42086L77.2926 2.40471C77.4842 2.37078 77.7447 2.327 78.0742 2.27336C78.4586 2.21079 78.8474 2.1795 79.2407 2.1795ZM86.0938 6.81894C86.4872 6.81894 86.8403 6.84576 87.1531 6.89939C87.466 6.95303 87.7297 7.0603 87.9443 7.2212C88.1588 7.38211 88.3242 7.60112 88.4404 7.87823C88.5566 8.15535 88.6147 8.51739 88.6147 8.96434V19.8791L88.5247 19.8952C88.3331 19.9292 88.0726 19.973 87.7431 20.0266C87.3587 20.0892 86.9699 20.1205 86.5766 20.1205C86.1832 20.1205 85.8301 20.0936 85.5173 20.04C85.2044 19.9864 84.9407 19.8791 84.7262 19.7182C84.5116 19.5573 84.3462 19.3383 84.23 19.0612C84.1138 18.784 84.0557 18.422 84.0557 17.975V7.0603L84.1457 7.04415C84.3373 7.01022 84.5978 6.96644 84.9273 6.9128C85.3117 6.85023 85.7005 6.81894 86.0938 6.81894ZM107.443 2.1795C107.836 2.1795 108.189 2.20632 108.502 2.25995C108.815 2.31359 109.079 2.42086 109.293 2.58176C109.508 2.74267 109.673 2.96168 109.79 3.2388C109.906 3.51591 109.964 3.87795 109.964 4.32491V6.95303L110.057 6.91888C110.286 6.83773 110.609 6.74631 111.023 6.64463C111.497 6.52842 112.02 6.47031 112.592 6.47031C114.362 6.47031 115.743 6.9128 116.735 7.79778C117.728 8.68276 118.224 10.0013 118.224 11.7534V19.8791L118.141 19.9021C117.962 19.9481 117.708 19.994 117.379 20.04C116.995 20.0936 116.597 20.1205 116.186 20.1205C115.792 20.1205 115.439 20.0936 115.126 20.04C114.813 19.9864 114.55 19.8791 114.335 19.7182C114.121 19.5573 113.955 19.3383 113.839 19.0612C113.723 18.784 113.665 18.422 113.665 17.975V12.0215L113.661 11.8563C113.635 11.2108 113.453 10.7518 113.115 10.4795C112.748 10.1845 112.297 10.037 111.761 10.037C111.403 10.037 111.063 10.0817 110.742 10.1711C110.42 10.2605 110.161 10.3678 109.964 10.4929V19.8791L109.881 19.9021C109.703 19.9481 109.449 19.994 109.119 20.04C108.735 20.0936 108.337 20.1205 107.926 20.1205C107.532 20.1205 107.179 20.0936 106.866 20.04C106.554 19.9864 106.29 19.8791 106.075 19.7182C105.861 19.5573 105.695 19.3383 105.579 19.0612C105.463 18.784 105.405 18.422 105.405 17.975V2.42086L105.495 2.40471C105.687 2.37078 105.947 2.327 106.277 2.27336C106.661 2.21079 107.05 2.1795 107.443 2.1795ZM75.3376 3.65447L75.399 3.75839C75.4996 3.94089 75.5908 4.16996 75.6728 4.44559C75.7711 4.77634 75.8203 5.12049 75.8203 5.47806C75.8203 6.17532 75.6728 6.67144 75.3778 6.96644C75.0828 7.26143 74.685 7.40893 74.1844 7.40893H68.5527V10.4393H74.4258L74.4954 10.5429C74.6084 10.7241 74.7059 10.9488 74.7878 11.217C74.8861 11.5388 74.9353 11.8785 74.9353 12.2361C74.9353 12.9155 74.7878 13.4027 74.4928 13.6976C74.1978 13.9926 73.8 14.1401 73.2994 14.1401H68.6064V19.7986L68.5152 19.8216C68.3193 19.8676 68.0413 19.9136 67.6812 19.9595C67.261 20.0132 66.8453 20.04 66.4341 20.04C66.0229 20.04 65.6609 20.0087 65.348 19.9461C65.0352 19.8836 64.7714 19.7718 64.5569 19.6109C64.3424 19.45 64.1815 19.2265 64.0742 18.9405C63.9669 18.6544 63.9133 18.279 63.9133 17.8141V6.1485L63.9179 5.95966C63.9521 5.27954 64.174 4.73462 64.5837 4.32491C65.0307 3.87795 65.6385 3.65447 66.4073 3.65447H75.3376ZM12.3065 2.73353V5.75503H3.68528V9.70981H11.2332V12.6963H3.68528V19.9059H0.115479V2.73353H12.3065ZM17.1769 7.18995V19.9059H13.8054V7.18995H17.1769ZM35.5505 2.76853V12.0313L39.692 7.24828H43.8101L39.3653 12.113L43.9851 19.9059H39.9719L36.9271 14.4695L35.5505 15.9045V19.9059H32.284V2.76853H35.5505ZM48.3188 2.7102V19.9059H44.994V2.7102H48.3188ZM118.472 3.54418C119.029 3.37659 119.98 3.33931 121.094 3.83173C122.218 4.32882 122.919 5.18146 123.197 6.38964L129.231 6.90247C129.306 6.9068 129.38 6.92194 129.454 6.94789C129.565 6.9868 129.624 7.04155 129.674 7.08441C129.797 7.18949 129.837 7.27051 129.895 7.4156C129.999 7.6736 129.967 7.97725 129.832 8.18546C129.614 8.52114 129.273 8.73833 128.809 8.83704L123.937 9.87243L124.797 13.9178C124.896 14.3822 125.114 14.6813 125.45 14.8151C125.787 14.9489 126.223 14.9589 126.759 14.845C127.026 14.7881 127.299 14.7069 127.575 14.6015C127.851 14.4961 128.089 14.3849 128.288 14.2679C128.49 14.4302 128.675 14.6196 128.843 14.836C129.01 15.0525 129.13 15.3304 129.202 15.6697C129.469 16.9242 127.494 18.1094 126.2 18.3419C125.001 18.5573 123.162 18.7363 122.111 15.9818C121.059 13.2273 119.408 8.61021 118.147 4.76246C118.038 4.43041 117.971 4.10428 118.088 3.83516C118.151 3.6897 118.197 3.62691 118.472 3.54418ZM97.3987 10.037C96.5226 10.037 95.8656 10.2829 95.4276 10.7745C94.9896 11.2662 94.7706 11.9679 94.7706 12.8797C94.7706 13.9167 94.9896 14.6631 95.4276 15.119C95.8656 15.5749 96.4243 15.8028 97.1037 15.8028C97.8367 15.8028 98.4177 15.633 98.8468 15.2933V10.3589L98.7648 10.316C98.646 10.2587 98.4901 10.2015 98.2971 10.1443C98.0557 10.0728 97.7562 10.037 97.3987 10.037ZM55.8957 9.59315C55.1258 9.59315 54.5289 9.83425 54.105 10.3164C53.6811 10.7986 53.4148 11.4519 53.3059 12.2763H58.4739C58.4195 11.3975 58.1531 10.7306 57.6748 10.2756C57.1965 9.82064 56.6035 9.59315 55.8957 9.59315ZM17.1769 2.6052V5.67337H13.8054V2.6052H17.1769ZM86.3352 0.838623C87.0861 0.838623 87.6895 1.07104 88.1454 1.53588C88.6013 2.00072 88.8292 2.57283 88.8292 3.2522C88.8292 3.93158 88.6013 4.50369 88.1454 4.96853C87.6895 5.43337 87.0861 5.66578 86.3352 5.66578C85.5843 5.66578 84.9809 5.43337 84.525 4.96853C84.0691 4.50369 83.8412 3.93158 83.8412 3.2522C83.8412 2.57283 84.0691 2.00072 84.525 1.53588C84.9809 1.07104 85.5843 0.838623 86.3352 0.838623Z" fill="url(#paint0_linear_1038_1160)"/>
</g>
<defs>
<linearGradient id="paint0_linear_1038_1160" x1="120.529" y1="12.5145" x2="1.30838" y2="24.6499" gradientUnits="userSpaceOnUse">
<stop stop-color="#299BD8"/>
<stop offset="1" stop-color="#1262AF"/>
</linearGradient>
<clipPath id="clip0_1038_1160">
<rect width="130.072" height="24.6688" fill="white" transform="translate(0.115479 0.445862)"/>
</clipPath>
</defs>
</svg>
