<svg width="49" height="50" viewBox="0 0 49 50" fill="none" xmlns="http://www.w3.org/2000/svg">
<path d="M-0.00366211 12.4284C-0.00366211 5.82273 5.3513 0.467773 11.957 0.467773H36.9151C43.5208 0.467773 48.8757 5.82273 48.8757 12.4284V37.3865C48.8757 43.9922 43.5208 49.3472 36.9151 49.3472H11.957C5.35129 49.3472 -0.00366211 43.9922 -0.00366211 37.3865V12.4284Z" fill="#FDBF00"/>
<path d="M14.3748 30.8678C14.3748 31.9642 14.8653 32.9485 15.6325 33.6337V35.2285C15.6325 36.2626 16.4751 37.0973 17.5189 37.0973C18.5627 37.0973 19.4054 36.2626 19.4054 35.2285V34.6055H29.4664V35.2285C29.4664 36.2501 30.309 37.0973 31.3529 37.0973C32.3841 37.0973 33.2393 36.2626 33.2393 35.2285V33.6337C34.0065 32.9485 34.497 31.9642 34.497 30.8678V18.4089C34.497 14.0482 29.9946 13.4253 24.4359 13.4253C18.8771 13.4253 14.3748 14.0482 14.3748 18.4089V30.8678ZM18.7765 32.1137C17.7327 32.1137 16.8901 31.279 16.8901 30.2449C16.8901 29.2108 17.7327 28.376 18.7765 28.376C19.8204 28.376 20.663 29.2108 20.663 30.2449C20.663 31.279 19.8204 32.1137 18.7765 32.1137ZM30.0953 32.1137C29.0514 32.1137 28.2088 31.279 28.2088 30.2449C28.2088 29.2108 29.0514 28.376 30.0953 28.376C31.1391 28.376 31.9817 29.2108 31.9817 30.2449C31.9817 31.279 31.1391 32.1137 30.0953 32.1137ZM31.9817 24.6384H16.8901V18.4089H31.9817V24.6384Z" fill="white"/>
</svg>
