<svg width="368" height="495" viewBox="0 0 368 495" fill="none" xmlns="http://www.w3.org/2000/svg">
<g clip-path="url(#clip0_2902_33896)">
<g clip-path="url(#clip1_2902_33896)">
<path d="M274.239 442.573C277.112 442.573 279.721 442.936 282.065 443.663C284.409 444.389 286.387 445.328 288 446.48C289.008 447.181 289.802 447.958 290.382 448.809C290.962 449.661 291.252 450.763 291.252 452.115V478.412L291.239 479.127C291.156 481.48 290.656 483.533 289.739 485.286C288.731 487.215 287.358 488.818 285.618 490.095C283.879 491.372 281.838 492.311 279.494 492.912C277.15 493.513 274.642 493.814 271.97 493.814C267.383 493.814 263.779 493.2 261.157 491.973C258.536 490.746 257.225 488.755 257.225 486C257.225 484.848 257.465 483.834 257.944 482.957C258.423 482.081 258.965 481.417 259.57 480.966C261.031 481.768 262.682 482.444 264.522 482.995C266.362 483.546 268.265 483.821 270.231 483.821C272.953 483.821 275.121 483.37 276.734 482.469C278.347 481.567 279.153 480.115 279.153 478.111V476.909L278.579 477.144C276.625 477.889 274.296 478.261 271.592 478.261C269.324 478.261 267.169 477.923 265.127 477.247C263.086 476.571 261.296 475.519 259.759 474.092C258.221 472.664 256.986 470.823 256.053 468.569C255.121 466.315 254.655 463.635 254.655 460.53C254.655 457.475 255.146 454.82 256.129 452.566C257.112 450.312 258.473 448.446 260.212 446.968C261.951 445.491 264.018 444.389 266.413 443.663C268.807 442.936 271.416 442.573 274.239 442.573ZM70.7076 443.74C75.2029 443.74 78.8815 444.742 81.7432 446.746C84.6049 448.751 86.2989 452.292 86.8252 457.369H77.2204L77.1284 456.807C76.9109 455.7 76.492 454.689 75.8718 453.774C74.8192 452.335 73.1855 451.616 70.9707 451.616C67.813 451.616 65.653 453.174 64.4908 456.29C63.8768 457.946 63.5698 460.147 63.5698 462.892C63.5698 465.507 63.8768 467.61 64.4908 469.2C65.6091 472.164 67.7143 473.645 70.8062 473.645C72.9991 473.645 74.556 473.057 75.4771 471.88C76.3981 470.704 76.9572 469.179 77.1546 467.305H86.7265L86.6615 467.956C86.3438 470.549 85.3348 473.012 83.6345 475.345C80.6961 479.42 76.3432 481.457 70.576 481.457C64.8087 481.457 60.5655 479.757 57.8464 476.358C55.1272 472.959 53.7676 468.547 53.7676 463.121C53.7676 456.998 55.2697 452.237 58.274 448.838C61.2782 445.439 65.4227 443.74 70.7076 443.74ZM157.823 443.641C160.806 443.641 163.492 444.197 165.882 445.308C168.272 446.42 170.246 448.174 171.803 450.57C173.206 452.684 174.116 455.135 174.533 457.924C174.774 459.559 174.873 461.912 174.829 464.984H150.291L150.324 465.604C150.559 468.849 151.677 471.148 153.679 472.501C154.973 473.395 156.53 473.841 158.35 473.841C160.279 473.841 161.847 473.297 163.053 472.207C163.711 471.619 164.292 470.802 164.797 469.756H174.369L174.298 470.244C173.952 472.2 172.868 474.183 171.046 476.195C167.976 479.659 163.678 481.391 158.152 481.391C153.591 481.391 149.567 479.932 146.081 477.012C142.594 474.092 140.851 469.342 140.851 462.762C140.851 456.595 142.424 451.867 145.571 448.577C148.718 445.287 152.802 443.641 157.823 443.641ZM223.646 430.552C224.755 430.552 225.751 430.627 226.633 430.777C227.515 430.927 228.259 431.228 228.863 431.679C229.468 432.13 229.935 432.743 230.262 433.52C230.59 434.296 230.754 435.31 230.754 436.562V480.14L230.5 480.185C229.96 480.28 229.225 480.403 228.296 480.553C227.213 480.728 226.116 480.816 225.007 480.816C223.898 480.816 222.903 480.741 222.02 480.591C221.138 480.44 220.395 480.14 219.79 479.689C219.185 479.238 218.719 478.625 218.391 477.848C218.063 477.072 217.899 476.058 217.899 474.805V431.228L218.153 431.183C218.693 431.088 219.428 430.965 220.357 430.815C221.441 430.639 222.537 430.552 223.646 430.552ZM242.969 443.55C244.078 443.55 245.073 443.625 245.956 443.775C246.838 443.926 247.581 444.226 248.186 444.677C248.791 445.128 249.257 445.741 249.585 446.518C249.913 447.294 250.077 448.308 250.077 449.561V480.14L249.823 480.185C249.283 480.28 248.548 480.403 247.619 480.553C246.535 480.728 245.439 480.816 244.33 480.816C243.221 480.816 242.225 480.741 241.343 480.591C240.461 480.44 239.717 480.14 239.113 479.689C238.508 479.238 238.041 478.625 237.714 477.848C237.386 477.072 237.222 476.058 237.222 474.805V444.226L237.476 444.181C238.016 444.086 238.751 443.963 239.68 443.813C240.763 443.638 241.86 443.55 242.969 443.55ZM303.164 430.552C304.273 430.552 305.269 430.627 306.151 430.777C307.033 430.927 307.777 431.228 308.382 431.679C308.987 432.13 309.453 432.743 309.78 433.52C310.108 434.296 310.272 435.31 310.272 436.562V443.926L310.534 443.83C311.181 443.603 312.09 443.346 313.259 443.062C314.595 442.736 316.069 442.573 317.682 442.573C322.673 442.573 326.567 443.813 329.364 446.292C332.162 448.772 333.561 452.466 333.561 457.374V480.14L333.327 480.204C332.824 480.333 332.108 480.462 331.179 480.591C330.095 480.741 328.974 480.816 327.814 480.816C326.705 480.816 325.71 480.741 324.828 480.591C323.945 480.44 323.202 480.14 322.597 479.689C321.992 479.238 321.526 478.625 321.198 477.848C320.87 477.072 320.707 476.058 320.707 474.805V458.126L320.698 457.663C320.624 455.854 320.11 454.568 319.157 453.806C318.123 452.979 316.85 452.566 315.338 452.566C314.33 452.566 313.372 452.691 312.465 452.942C311.557 453.192 310.826 453.492 310.272 453.843V480.14L310.038 480.204C309.535 480.333 308.819 480.462 307.89 480.591C306.806 480.741 305.685 480.816 304.525 480.816C303.416 480.816 302.421 480.741 301.539 480.591C300.656 480.44 299.913 480.14 299.308 479.689C298.703 479.238 298.237 478.625 297.909 477.848C297.581 477.072 297.418 476.058 297.418 474.805V431.228L297.671 431.183C298.212 431.088 298.946 430.965 299.875 430.815C300.959 430.639 302.055 430.552 303.164 430.552ZM212.641 434.684L212.814 434.975C213.098 435.487 213.355 436.128 213.586 436.901C213.863 437.827 214.002 438.791 214.002 439.793C214.002 441.747 213.586 443.137 212.754 443.963C211.923 444.79 210.801 445.203 209.389 445.203H193.511V453.693H210.07L210.266 453.983C210.585 454.491 210.86 455.12 211.091 455.872C211.368 456.773 211.507 457.725 211.507 458.727C211.507 460.63 211.091 461.995 210.259 462.822C209.427 463.648 208.306 464.061 206.894 464.061H193.662V479.914L193.405 479.979C192.852 480.108 192.069 480.236 191.053 480.365C189.869 480.515 188.697 480.591 187.537 480.591C186.378 480.591 185.357 480.503 184.475 480.328C183.593 480.152 182.849 479.839 182.244 479.388C181.639 478.938 181.186 478.311 180.883 477.51C180.581 476.709 180.429 475.657 180.429 474.354V441.672L180.443 441.142C180.539 439.237 181.165 437.71 182.32 436.562C183.58 435.31 185.294 434.684 187.461 434.684H212.641ZM34.9208 432.104V440.569H10.6129V451.649H31.8947V460.016H10.6129V480.215H0.547607V432.104H34.9208ZM48.6532 444.589V480.215H39.1471V444.589H48.6532ZM100.459 432.202V458.153L112.136 444.753H123.747L111.215 458.382L124.241 480.215H112.925L104.34 464.984L100.459 469.004V480.215H91.2488V432.202H100.459ZM136.46 432.039V480.215H127.085V432.039H136.46ZM334.261 434.375C335.832 433.906 338.514 433.801 341.654 435.181C344.823 436.573 346.8 438.962 347.584 442.347L364.597 443.784C364.808 443.796 365.017 443.838 365.226 443.911C365.538 444.02 365.706 444.174 365.847 444.294C366.192 444.588 366.305 444.815 366.469 445.222C366.762 445.944 366.673 446.795 366.292 447.378C365.677 448.319 364.715 448.927 363.406 449.204L349.671 452.105L352.096 463.438C352.374 464.739 352.988 465.577 353.936 465.952C354.885 466.327 356.115 466.355 357.625 466.036C358.381 465.877 359.148 465.649 359.927 465.354C360.706 465.059 361.376 464.747 361.938 464.419C362.509 464.874 363.03 465.404 363.502 466.011C363.974 466.617 364.311 467.396 364.515 468.347C365.266 471.861 359.699 475.182 356.05 475.833C352.671 476.437 347.484 476.938 344.52 469.221C341.556 461.504 336.899 448.568 333.345 437.788C333.038 436.858 332.848 435.944 333.178 435.19C333.357 434.783 333.486 434.607 334.261 434.375ZM274.844 452.566C272.373 452.566 270.521 453.255 269.286 454.632C268.051 456.009 267.433 457.975 267.433 460.53C267.433 463.435 268.051 465.526 269.286 466.804C270.521 468.081 272.096 468.719 274.012 468.719C276.079 468.719 277.717 468.244 278.927 467.292V453.467L278.695 453.347C278.361 453.187 277.921 453.027 277.377 452.866C276.696 452.666 275.852 452.566 274.844 452.566ZM157.823 451.322C155.652 451.322 153.969 451.998 152.774 453.349C151.579 454.7 150.828 456.53 150.521 458.84H165.093C164.939 456.377 164.188 454.509 162.84 453.234C161.491 451.96 159.819 451.322 157.823 451.322ZM48.6532 431.744V440.34H39.1471V431.744H48.6532ZM243.649 426.795C245.767 426.795 247.468 427.446 248.753 428.749C250.039 430.051 250.681 431.654 250.681 433.557C250.681 435.461 250.039 437.063 248.753 438.366C247.468 439.668 245.767 440.319 243.649 440.319C241.532 440.319 239.831 439.668 238.545 438.366C237.26 437.063 236.617 435.461 236.617 433.557C236.617 431.654 237.26 430.051 238.545 428.749C239.831 427.446 241.532 426.795 243.649 426.795Z" fill="white"/>
</g>
</g>
<defs>
<clipPath id="clip0_2902_33896">
<rect width="366.746" height="494.808" fill="white" transform="translate(0.547607)"/>
</clipPath>
<clipPath id="clip1_2902_33896">
<rect width="366.746" height="69.1132" fill="white" transform="translate(0.547607 425.695)"/>
</clipPath>
</defs>
</svg>
