<svg width="60" height="60" viewBox="0 0 60 60" fill="none" xmlns="http://www.w3.org/2000/svg">
<path d="M22.78 20.6551L14.925 39.3951H9.8L5.935 24.4376C5.7 23.5176 5.4975 23.1801 4.7825 22.7926C3.6175 22.1601 1.6925 21.5676 0 21.1976L0.115 20.6551H8.365C8.90412 20.6545 9.42567 20.8467 9.83552 21.197C10.2454 21.5472 10.5165 22.0324 10.6 22.5651L12.6425 33.4101L17.6875 20.6551H22.78ZM42.8625 33.2776C42.8825 28.3301 36.0225 28.0576 36.07 25.8476C36.085 25.1751 36.725 24.4601 38.125 24.2776C39.7657 24.1217 41.4181 24.412 42.9075 25.1176L43.7575 21.1426C42.3074 20.5974 40.7717 20.3155 39.2225 20.3101C34.43 20.3101 31.0575 22.8601 31.0275 26.5076C30.9975 29.2051 33.435 30.7076 35.2725 31.6076C37.1625 32.5251 37.7975 33.1151 37.7875 33.9351C37.775 35.1951 36.2825 35.7476 34.8875 35.7701C32.45 35.8076 31.0375 35.1126 29.9075 34.5876L29.03 38.6926C30.1625 39.2126 32.2525 39.6676 34.42 39.6876C39.5125 39.6876 42.845 37.1726 42.8625 33.2776ZM55.515 39.3951H60L56.0875 20.6551H51.9475C51.5052 20.651 51.0718 20.7799 50.7036 21.025C50.3354 21.2702 50.0493 21.6203 49.8825 22.0301L42.61 39.3951H47.7L48.7125 36.5951H54.9325L55.515 39.3951ZM50.1075 32.7551L52.6575 25.7176L54.1275 32.7551H50.1075ZM29.7075 20.6551L25.7 39.3951H20.85L24.8625 20.6551H29.7075Z" fill="url(#paint0_linear_388_19226)"/>
<defs>
<linearGradient id="paint0_linear_388_19226" x1="60" y1="39.6876" x2="17.1444" y2="1.2133" gradientUnits="userSpaceOnUse">
<stop stop-color="#246BFD"/>
<stop offset="1" stop-color="#5089FD"/>
</linearGradient>
</defs>
</svg>
