<svg width="60" height="61" viewBox="0 0 60 61" fill="none" xmlns="http://www.w3.org/2000/svg">
<path d="M27.345 6.92002C28.9125 5.72002 31.0912 5.72002 32.6587 6.92002L51.2662 21.1438C53.6362 22.955 52.365 26.735 49.3875 26.75H10.6125C7.63875 26.735 6.36375 22.955 8.7375 21.1438L27.345 6.92002ZM30 20.1875C30.7459 20.1875 31.4613 19.8912 31.9887 19.3638C32.5162 18.8363 32.8125 18.1209 32.8125 17.375C32.8125 16.6291 32.5162 15.9137 31.9887 15.3863C31.4613 14.8588 30.7459 14.5625 30 14.5625C29.2541 14.5625 28.5387 14.8588 28.0113 15.3863C27.4838 15.9137 27.1875 16.6291 27.1875 17.375C27.1875 18.1209 27.4838 18.8363 28.0113 19.3638C28.5387 19.8912 29.2541 20.1875 30 20.1875ZM13.125 30.5V41.75H18.75V30.5H13.125ZM22.5 30.5V41.75H28.125V30.5H22.5ZM31.875 30.5V41.75H37.5V30.5H31.875ZM41.25 30.5V41.75H46.875V30.5H41.25ZM7.5 50.1875C7.5 47.6 9.6 45.5 12.1875 45.5H47.8125C50.4 45.5 52.5 47.6 52.5 50.1875V51.125C52.5 51.6223 52.3025 52.0992 51.9508 52.4508C51.5992 52.8025 51.1223 53 50.625 53H9.375C8.87772 53 8.40081 52.8025 8.04918 52.4508C7.69754 52.0992 7.5 51.6223 7.5 51.125V50.1875Z" fill="url(#paint0_linear_1844_27250)"/>
<defs>
<linearGradient id="paint0_linear_1844_27250" x1="52.5004" y1="53" x2="-1.3908" y2="38.0332" gradientUnits="userSpaceOnUse">
<stop stop-color="#246BFD"/>
<stop offset="1" stop-color="#5089FD"/>
</linearGradient>
</defs>
</svg>
