<svg width="60" height="60" viewBox="0 0 60 60" fill="none" xmlns="http://www.w3.org/2000/svg">
<path d="M27.345 6.41953C28.9125 5.21953 31.0912 5.21953 32.6587 6.41953L51.2662 20.6433C53.6362 22.4545 52.365 26.2345 49.3875 26.2495H10.6125C7.63875 26.2345 6.36375 22.4545 8.7375 20.6433L27.345 6.41953V6.41953ZM30 19.687C30.7459 19.687 31.4613 19.3907 31.9887 18.8633C32.5162 18.3358 32.8125 17.6205 32.8125 16.8745C32.8125 16.1286 32.5162 15.4132 31.9887 14.8858C31.4613 14.3583 30.7459 14.062 30 14.062C29.2541 14.062 28.5387 14.3583 28.0113 14.8858C27.4838 15.4132 27.1875 16.1286 27.1875 16.8745C27.1875 17.6205 27.4838 18.3358 28.0113 18.8633C28.5387 19.3907 29.2541 19.687 30 19.687ZM13.125 29.9995V41.2495H18.75V29.9995H13.125ZM22.5 29.9995V41.2495H28.125V29.9995H22.5ZM31.875 29.9995V41.2495H37.5V29.9995H31.875ZM41.25 29.9995V41.2495H46.875V29.9995H41.25ZM7.5 49.687C7.5 47.0995 9.6 44.9995 12.1875 44.9995H47.8125C50.4 44.9995 52.5 47.0995 52.5 49.687V50.6245C52.5 51.1218 52.3025 51.5987 51.9508 51.9504C51.5992 52.302 51.1223 52.4995 50.625 52.4995H9.375C8.87772 52.4995 8.40081 52.302 8.04918 51.9504C7.69754 51.5987 7.5 51.1218 7.5 50.6245V49.687Z" fill="url(#paint0_linear_388_10042)"/>
<defs>
<linearGradient id="paint0_linear_388_10042" x1="52.5004" y1="52.4995" x2="-1.3908" y2="37.5327" gradientUnits="userSpaceOnUse">
<stop stop-color="#246BFD"/>
<stop offset="1" stop-color="#5089FD"/>
</linearGradient>
</defs>
</svg>
