<svg width="49" height="50" viewBox="0 0 49 50" fill="none" xmlns="http://www.w3.org/2000/svg">
<path d="M0.0151978 12.4284C0.0151978 5.82273 5.37016 0.467773 11.9758 0.467773H36.934C43.5396 0.467773 48.8946 5.82273 48.8946 12.4284V37.3865C48.8946 43.9922 43.5396 49.3472 36.934 49.3472H11.9758C5.37015 49.3472 0.0151978 43.9922 0.0151978 37.3865V12.4284Z" fill="#FF9B53"/>
<path d="M28.6454 13.9554C28.1528 13.4677 27.485 13.1938 26.7886 13.1938C26.0923 13.1938 25.4244 13.4677 24.9319 13.9554L13.3992 25.3816C13.1553 25.6232 12.9618 25.91 12.8298 26.2258C12.6978 26.5415 12.6299 26.8798 12.6299 27.2215C12.6299 27.5633 12.6978 27.9016 12.8298 28.2173C12.9618 28.533 13.1553 28.8199 13.3992 29.0615L14.7674 30.4158C15.3628 31.0068 16.1998 30.9015 16.7053 30.6031C16.9841 30.4391 17.3101 30.3718 17.6319 30.4118C17.9537 30.4517 18.2528 30.5968 18.4821 30.8239C18.7114 31.0511 18.8578 31.3475 18.8982 31.6662C18.9385 31.985 18.8706 32.308 18.705 32.5842C18.405 33.085 18.2976 33.9142 18.8941 34.504L20.2635 35.8594C20.5074 36.101 20.7969 36.2927 21.1156 36.4235C21.4343 36.5543 21.7759 36.6216 22.1208 36.6216C22.4657 36.6216 22.8073 36.5543 23.126 36.4235C23.4447 36.2927 23.7342 36.101 23.9781 35.8594L35.5096 24.4355C35.7535 24.1939 35.947 23.9071 36.079 23.5914C36.211 23.2757 36.2789 22.9373 36.2789 22.5956C36.2789 22.2538 36.211 21.9155 36.079 21.5998C35.947 21.2841 35.7535 20.9972 35.5096 20.7556L34.1426 19.4002C33.5472 18.8104 32.709 18.9144 32.2036 19.2128C31.9247 19.3768 31.5987 19.4442 31.2769 19.4042C30.9552 19.3642 30.656 19.2192 30.4267 18.992C30.1974 18.7649 30.051 18.4685 30.0106 18.1497C29.9703 17.831 30.0383 17.508 30.2038 17.2317C30.505 16.731 30.6112 15.9018 30.0147 15.312L28.6465 13.9554H28.6454Z" fill="white"/>
</svg>
