<svg width="60" height="61" viewBox="0 0 60 61" fill="none" xmlns="http://www.w3.org/2000/svg">
<path d="M22.78 21.1551L14.925 39.8951H9.8L5.935 24.9376C5.7 24.0176 5.4975 23.6801 4.7825 23.2926C3.6175 22.6601 1.6925 22.0676 0 21.6976L0.115 21.1551H8.365C8.90412 21.1545 9.42567 21.3467 9.83552 21.697C10.2454 22.0472 10.5165 22.5324 10.6 23.0651L12.6425 33.9101L17.6875 21.1551H22.78ZM42.8625 33.7776C42.8825 28.8301 36.0225 28.5576 36.07 26.3476C36.085 25.6751 36.725 24.9601 38.125 24.7776C39.7657 24.6217 41.4181 24.912 42.9075 25.6176L43.7575 21.6426C42.3074 21.0974 40.7717 20.8155 39.2225 20.8101C34.43 20.8101 31.0575 23.3601 31.0275 27.0076C30.9975 29.7051 33.435 31.2076 35.2725 32.1076C37.1625 33.0251 37.7975 33.6151 37.7875 34.4351C37.775 35.6951 36.2825 36.2476 34.8875 36.2701C32.45 36.3076 31.0375 35.6126 29.9075 35.0876L29.03 39.1926C30.1625 39.7126 32.2525 40.1676 34.42 40.1876C39.5125 40.1876 42.845 37.6726 42.8625 33.7776ZM55.515 39.8951H60L56.0875 21.1551H51.9475C51.5051 21.151 51.0718 21.2799 50.7036 21.525C50.3354 21.7702 50.0493 22.1203 49.8825 22.5301L42.61 39.8951H47.7L48.7125 37.0951H54.9325L55.515 39.8951ZM50.1075 33.2551L52.6575 26.2176L54.1275 33.2551H50.1075ZM29.7075 21.1551L25.7 39.8951H20.85L24.8625 21.1551H29.7075Z" fill="url(#paint0_linear_1844_27258)"/>
<defs>
<linearGradient id="paint0_linear_1844_27258" x1="60" y1="40.1876" x2="17.1444" y2="1.7133" gradientUnits="userSpaceOnUse">
<stop stop-color="#246BFD"/>
<stop offset="1" stop-color="#5089FD"/>
</linearGradient>
</defs>
</svg>
