<svg width="50" height="50" viewBox="0 0 50 50" fill="none" xmlns="http://www.w3.org/2000/svg">
<path d="M0.96405 12.4284C0.96405 5.82273 6.31901 0.467773 12.9247 0.467773H37.8828C44.4885 0.467773 49.8434 5.82273 49.8434 12.4284V37.3865C49.8434 43.9922 44.4885 49.3472 37.8828 49.3472H12.9247C6.31901 49.3472 0.96405 43.9922 0.96405 37.3865V12.4284Z" fill="#79CA00"/>
<path d="M33.2106 16.2062H17.5965C16.5201 16.2062 15.6447 17.0734 15.6447 18.1398V31.6747C15.6447 32.741 16.5201 33.6082 17.5965 33.6082H33.2106C34.287 33.6082 35.1623 32.741 35.1623 31.6747V18.1398C35.1623 17.0734 34.287 16.2062 33.2106 16.2062ZM33.2115 22.0069C33.2106 22.0069 33.2106 22.0069 33.2115 22.0069H32.7578L30.1551 18.1398H33.2106L33.2115 22.0069ZM28.8191 27.8076L23.4518 30.7079V24.9072L28.8191 27.8076ZM27.8784 22.0069L25.2757 18.1398H27.8091L30.4117 22.0069H27.8784ZM25.5323 22.0069H22.999L20.3963 18.1398H22.9297L25.5323 22.0069ZM17.5965 18.1398H18.0503L20.6529 22.0069H17.5965V18.1398Z" fill="white"/>
</svg>
