<svg width="60" height="60" viewBox="0 0 60 60" fill="none" xmlns="http://www.w3.org/2000/svg">
<path d="M10.9073 52.9715V49.8846C10.9073 48.701 10.1869 47.9294 8.95195 47.9294C8.33461 47.9294 7.6657 48.1352 7.20258 48.8041C6.84258 48.2381 6.32812 47.9294 5.55633 47.9294C5.04164 47.9294 4.52742 48.0836 4.11563 48.6496V48.0323H3.03516V52.9715H4.11563V50.2446C4.11563 49.3701 4.57875 48.9583 5.29922 48.9583C6.01922 48.9583 6.37969 49.4214 6.37969 50.2446V52.9715H7.46016V50.2446C7.46016 49.3701 7.97438 48.9583 8.64328 48.9583C9.36375 48.9583 9.72375 49.4214 9.72375 50.2446V52.9715H10.9073V52.9715ZM26.9084 48.0323H25.1592V46.5403H24.0787V48.0323H23.1012V49.0096H24.0785V51.2737C24.0785 52.4057 24.5416 53.0744 25.7766 53.0744C26.2397 53.0744 26.7539 52.9202 27.1144 52.7144L26.8055 51.7882C26.4968 51.9939 26.1368 52.0455 25.8795 52.0455C25.365 52.0455 25.1592 51.7368 25.1592 51.2221V49.0096H26.9084V48.0323V48.0323ZM36.0668 47.9292C35.4495 47.9292 35.0379 48.2381 34.7805 48.6496V48.0323H33.7001V52.9715H34.7805V50.1932C34.7805 49.3701 35.1405 48.907 35.8095 48.907C36.0152 48.907 36.2726 48.9586 36.4784 49.0099L36.787 47.981C36.5813 47.9294 36.2726 47.9294 36.0668 47.9294V47.9292ZM22.2265 48.4439C21.7118 48.0836 20.9916 47.9294 20.2198 47.9294C18.9851 47.9294 18.162 48.5468 18.162 49.5243C18.162 50.3477 18.7793 50.8106 19.8598 50.965L20.3742 51.0166C20.9402 51.1193 21.2489 51.2737 21.2489 51.5311C21.2489 51.8911 20.8373 52.1484 20.1169 52.1484C19.3966 52.1484 18.8306 51.8911 18.4704 51.6339L17.9559 52.4571C18.522 52.8686 19.2938 53.0744 20.0653 53.0744C21.506 53.0744 22.3294 52.4057 22.3294 51.4795C22.3294 50.6048 21.6605 50.1417 20.6313 49.9875L20.1169 49.9359C19.6538 49.8843 19.2937 49.7817 19.2937 49.473C19.2937 49.1128 19.6537 48.907 20.2198 48.907C20.8373 48.907 21.4547 49.1641 21.7634 49.3186L22.2265 48.4439V48.4439ZM50.9363 47.9294C50.3187 47.9294 49.9071 48.2381 49.6498 48.6496V48.0323H48.5693V52.9715H49.6498V50.1932C49.6498 49.3701 50.01 48.907 50.6787 48.907C50.8847 48.907 51.142 48.9586 51.3478 49.0099L51.6565 47.981C51.4507 47.9294 51.142 47.9294 50.9363 47.9294V47.9294ZM37.1473 50.5019C37.1473 51.9939 38.1762 53.0744 39.7713 53.0744C40.4916 53.0744 41.006 52.9202 41.5205 52.5086L41.006 51.6339C40.5945 51.9426 40.1829 52.0968 39.7198 52.0968C38.8451 52.0968 38.2277 51.4795 38.2277 50.5019C38.2277 49.5759 38.8451 48.9583 39.7198 48.907C40.1829 48.907 40.5945 49.0612 41.006 49.3701L41.5205 48.4954C41.006 48.0836 40.4916 47.9294 39.7713 47.9294C38.1762 47.9294 37.1473 49.0099 37.1473 50.5019ZM47.1288 50.5019V48.0323H46.0484V48.6496C45.6881 48.1868 45.1737 47.9294 44.5048 47.9294C43.1156 47.9294 42.0352 49.0099 42.0352 50.5019C42.0352 51.9939 43.1156 53.0744 44.5048 53.0744C45.225 53.0744 45.7397 52.8173 46.0484 52.3542V52.9715H47.1288V50.5019V50.5019ZM43.167 50.5019C43.167 49.6272 43.733 48.907 44.659 48.907C45.5337 48.907 46.1513 49.5759 46.1513 50.5019C46.1513 51.3766 45.5337 52.0968 44.659 52.0968C43.733 52.0453 43.167 51.3766 43.167 50.5019V50.5019ZM30.2529 47.9294C28.8122 47.9294 27.783 48.9583 27.783 50.5019C27.783 52.0455 28.812 53.0744 30.3042 53.0744C31.0245 53.0744 31.7449 52.8686 32.3109 52.4057L31.7963 51.6339C31.3847 51.9426 30.8702 52.1484 30.3558 52.1484C29.6869 52.1484 29.018 51.8397 28.8635 50.9648H32.5167V50.5535C32.5683 48.9583 31.642 47.9294 30.2527 47.9294H30.2529ZM30.2529 48.8554C30.9216 48.8554 31.3849 49.2672 31.4876 50.039H28.9151C29.018 49.3701 29.4811 48.8554 30.2529 48.8554ZM57.0588 50.5019V46.0771H55.9784V48.6496C55.6181 48.1868 55.1037 47.9294 54.4348 47.9294C53.0456 47.9294 51.9652 49.0099 51.9652 50.5019C51.9652 51.9939 53.0456 53.0744 54.4348 53.0744C55.1552 53.0744 55.6697 52.8173 55.9784 52.3542V52.9715H57.0588V50.5019V50.5019ZM53.0972 50.5019C53.0972 49.6272 53.663 48.907 54.5892 48.907C55.4639 48.907 56.0813 49.5759 56.0813 50.5019C56.0813 51.3766 55.4639 52.0968 54.5892 52.0968C53.663 52.0453 53.0972 51.3766 53.0972 50.5019V50.5019ZM16.9784 50.5019V48.0323H15.8979V48.6496C15.5377 48.1868 15.0232 47.9294 14.3543 47.9294C12.9652 47.9294 11.8847 49.0099 11.8847 50.5019C11.8847 51.9939 12.9652 53.0744 14.3543 53.0744C15.0748 53.0744 15.5892 52.8173 15.8979 52.3542V52.9715H16.9784V50.5019V50.5019ZM12.9652 50.5019C12.9652 49.6272 13.5312 48.907 14.4572 48.907C15.3319 48.907 15.9495 49.5759 15.9495 50.5019C15.9495 51.3766 15.3319 52.0968 14.4572 52.0968C13.5312 52.0453 12.9652 51.3766 12.9652 50.5019V50.5019Z" fill="black"/>
<path d="M21.8672 10.5239H38.0742V39.6453H21.8672V10.5239Z" fill="#FF5F00"/>
<path d="M22.8959 25.0849C22.8959 19.1681 25.6741 13.92 29.9445 10.5241C26.8062 8.05453 22.8445 6.5625 18.5227 6.5625C8.28352 6.5625 0 14.846 0 25.0849C0 35.3236 8.28352 43.6073 18.5224 43.6073C22.8443 43.6073 26.8059 42.1153 29.9445 39.6455C25.6741 36.3012 22.8959 31.0017 22.8959 25.0849V25.0849Z" fill="#EB001B"/>
<path d="M59.9405 25.0849C59.9405 35.3236 51.657 43.6073 41.4181 43.6073C37.0962 43.6073 33.1346 42.1153 29.9961 39.6455C34.318 36.2498 37.0449 31.0017 37.0449 25.0849C37.0449 19.1681 34.2664 13.92 29.9961 10.5241C33.1344 8.05453 37.0962 6.5625 41.4181 6.5625C51.657 6.5625 59.9408 14.8976 59.9408 25.0849H59.9405Z" fill="#F79E1B"/>
</svg>
