<svg width="53" height="50" viewBox="0 0 53 50" fill="none" xmlns="http://www.w3.org/2000/svg">
<path d="M0.118103 12.4284C0.118103 5.82273 5.47306 0.467773 12.0787 0.467773H40.4852C47.0909 0.467773 52.4459 5.82273 52.4459 12.4284V37.3865C52.4459 43.9922 47.0909 49.3472 40.4852 49.3472H12.0787C5.47306 49.3472 0.118103 43.9922 0.118103 37.3865V12.4284Z" fill="#4DABFF"/>
<path d="M34.434 18.2327C34.1984 17.5895 33.5387 17.1317 32.7612 17.1317H29.816V16.0415C29.816 15.4419 29.2859 14.9514 28.6379 14.9514H23.9257C23.2777 14.9514 22.7476 15.4419 22.7476 16.0415V17.1317H19.8024C19.0249 17.1317 18.377 17.5895 18.1296 18.2327L15.8088 24.414C15.7263 24.6429 15.6792 24.8827 15.6792 25.1335V32.939C15.6792 33.8439 16.4685 34.5743 17.4463 34.5743C18.4241 34.5743 19.2134 33.8439 19.2134 32.939V32.3939H33.3502V32.939C33.3502 33.833 34.1395 34.5743 35.1173 34.5743C36.0833 34.5743 36.8844 33.8439 36.8844 32.939V25.1335C36.8844 24.8936 36.8373 24.6429 36.7548 24.414L34.434 18.2327ZM19.8024 29.1235C18.8246 29.1235 18.0353 28.3931 18.0353 27.4882C18.0353 26.5834 18.8246 25.853 19.8024 25.853C20.7802 25.853 21.5695 26.5834 21.5695 27.4882C21.5695 28.3931 20.7802 29.1235 19.8024 29.1235ZM32.7612 29.1235C31.7834 29.1235 30.9941 28.3931 30.9941 27.4882C30.9941 26.5834 31.7834 25.853 32.7612 25.853C33.739 25.853 34.5283 26.5834 34.5283 27.4882C34.5283 28.3931 33.739 29.1235 32.7612 29.1235ZM18.0353 23.6727L19.8024 18.7669H32.7612L34.5283 23.6727H18.0353Z" fill="white"/>
</svg>
