<svg width="60" height="61" viewBox="0 0 60 61" fill="none" xmlns="http://www.w3.org/2000/svg">
<path d="M10.9078 53.4714V50.3844C10.9078 49.2009 10.1874 48.4293 8.95244 48.4293C8.3351 48.4293 7.66619 48.6351 7.20307 49.304C6.84307 48.738 6.32861 48.4293 5.55682 48.4293C5.04213 48.4293 4.52791 48.5835 4.11611 49.1495V48.5322H3.03564V53.4714H4.11611V50.7445C4.11611 49.87 4.57924 49.4582 5.29971 49.4582C6.01971 49.4582 6.38018 49.9213 6.38018 50.7445V53.4714H7.46064V50.7445C7.46064 49.87 7.97486 49.4582 8.64377 49.4582C9.36424 49.4582 9.72424 49.9213 9.72424 50.7445V53.4714H10.9078ZM26.9088 48.5322H25.1597V47.0402H24.0792V48.5322H23.1017V49.5095H24.079V51.7736C24.079 52.9056 24.5421 53.5743 25.7771 53.5743C26.2402 53.5743 26.7544 53.4201 27.1149 53.2143L26.806 52.288C26.4973 52.4938 26.1373 52.5454 25.8799 52.5454C25.3655 52.5454 25.1597 52.2367 25.1597 51.722V49.5095H26.9088V48.5322ZM36.0673 48.4291C35.4499 48.4291 35.0384 48.738 34.781 49.1495V48.5322H33.7006V53.4714H34.781V50.6931C34.781 49.87 35.141 49.4069 35.8099 49.4069C36.0157 49.4069 36.2731 49.4584 36.4789 49.5098L36.7875 48.4809C36.5817 48.4293 36.2731 48.4293 36.0673 48.4293V48.4291ZM22.227 48.9437C21.7123 48.5835 20.9921 48.4293 20.2203 48.4293C18.9856 48.4293 18.1624 49.0466 18.1624 50.0242C18.1624 50.8476 18.7798 51.3105 19.8603 51.4649L20.3747 51.5165C20.9407 51.6191 21.2494 51.7736 21.2494 52.0309C21.2494 52.3909 20.8378 52.6483 20.1174 52.6483C19.3971 52.6483 18.8311 52.3909 18.4709 52.1338L17.9564 52.9569C18.5224 53.3685 19.2942 53.5743 20.0658 53.5743C21.5065 53.5743 22.3299 52.9056 22.3299 51.9794C22.3299 51.1047 21.661 50.6416 20.6318 50.4873L20.1174 50.4358C19.6542 50.3842 19.2942 50.2816 19.2942 49.9729C19.2942 49.6127 19.6542 49.4069 20.2203 49.4069C20.8378 49.4069 21.4552 49.664 21.7638 49.8184L22.227 48.9437ZM50.9367 48.4293C50.3192 48.4293 49.9076 48.738 49.6503 49.1495V48.5322H48.5698V53.4714H49.6503V50.6931C49.6503 49.87 50.0105 49.4069 50.6792 49.4069C50.8852 49.4069 51.1425 49.4584 51.3483 49.5098L51.657 48.4809C51.4512 48.4293 51.1425 48.4293 50.9367 48.4293ZM37.1478 51.0018C37.1478 52.4938 38.1767 53.5743 39.7718 53.5743C40.4921 53.5743 41.0065 53.4201 41.521 53.0085L41.0065 52.1338C40.5949 52.4425 40.1834 52.5967 39.7203 52.5967C38.8456 52.5967 38.2282 51.9794 38.2282 51.0018C38.2282 50.0758 38.8456 49.4582 39.7203 49.4069C40.1834 49.4069 40.5949 49.5611 41.0065 49.87L41.521 48.9953C41.0065 48.5835 40.4921 48.4293 39.7718 48.4293C38.1767 48.4293 37.1478 49.5098 37.1478 51.0018ZM47.1293 51.0018V48.5322H46.0489V49.1495C45.6886 48.6866 45.1742 48.4293 44.5053 48.4293C43.1161 48.4293 42.0356 49.5098 42.0356 51.0018C42.0356 52.4938 43.1161 53.5743 44.5053 53.5743C45.2255 53.5743 45.7402 53.3172 46.0489 52.8541V53.4714H47.1293V51.0018ZM43.1674 51.0018C43.1674 50.1271 43.7335 49.4069 44.6595 49.4069C45.5342 49.4069 46.1517 50.0758 46.1517 51.0018C46.1517 51.8765 45.5342 52.5967 44.6595 52.5967C43.7335 52.5452 43.1674 51.8765 43.1674 51.0018ZM30.2534 48.4293C28.8127 48.4293 27.7835 49.4582 27.7835 51.0018C27.7835 52.5454 28.8124 53.5743 30.3047 53.5743C31.0249 53.5743 31.7454 53.3685 32.3114 52.9056L31.7967 52.1338C31.3852 52.4425 30.8707 52.6483 30.3563 52.6483C29.6874 52.6483 29.0185 52.3396 28.864 51.4647H32.5172V51.0534C32.5688 49.4582 31.6425 48.4293 30.2531 48.4293H30.2534ZM30.2534 49.3553C30.9221 49.3553 31.3854 49.7671 31.4881 50.5389H28.9156C29.0185 49.87 29.4816 49.3553 30.2534 49.3553ZM57.0593 51.0018V46.577H55.9788V49.1495C55.6186 48.6866 55.1042 48.4293 54.4353 48.4293C53.0461 48.4293 51.9656 49.5098 51.9656 51.0018C51.9656 52.4938 53.0461 53.5743 54.4353 53.5743C55.1557 53.5743 55.6702 53.3172 55.9788 52.8541V53.4714H57.0593V51.0018ZM53.0977 51.0018C53.0977 50.1271 53.6635 49.4069 54.5897 49.4069C55.4644 49.4069 56.0817 50.0758 56.0817 51.0018C56.0817 51.8765 55.4644 52.5967 54.5897 52.5967C53.6635 52.5452 53.0977 51.8765 53.0977 51.0018ZM16.9788 51.0018V48.5322H15.8984V49.1495C15.5381 48.6866 15.0237 48.4293 14.3548 48.4293C12.9656 48.4293 11.8852 49.5098 11.8852 51.0018C11.8852 52.4938 12.9656 53.5743 14.3548 53.5743C15.0753 53.5743 15.5897 53.3172 15.8984 52.8541V53.4714H16.9788V51.0018ZM12.9656 51.0018C12.9656 50.1271 13.5317 49.4069 14.4577 49.4069C15.3324 49.4069 15.9499 50.0758 15.9499 51.0018C15.9499 51.8765 15.3324 52.5967 14.4577 52.5967C13.5317 52.5452 12.9656 51.8765 12.9656 51.0018Z" fill="black"/>
<path d="M21.8667 11.024H38.0737V40.1454H21.8667V11.024Z" fill="#FF5F00"/>
<path d="M22.8959 25.5849C22.8959 19.6681 25.6741 14.42 29.9445 11.0241C26.8062 8.55453 22.8445 7.0625 18.5227 7.0625C8.28352 7.0625 0 15.346 0 25.5849C0 35.8236 8.28352 44.1073 18.5224 44.1073C22.8443 44.1073 26.8059 42.6153 29.9445 40.1455C25.6741 36.8012 22.8959 31.5017 22.8959 25.5849Z" fill="#EB001B"/>
<path d="M59.9405 25.5849C59.9405 35.8236 51.657 44.1073 41.4181 44.1073C37.0962 44.1073 33.1346 42.6153 29.9961 40.1455C34.318 36.7498 37.0449 31.5017 37.0449 25.5849C37.0449 19.6681 34.2664 14.42 29.9961 11.0241C33.1344 8.55453 37.0962 7.0625 41.4181 7.0625C51.657 7.0625 59.9408 15.3976 59.9408 25.5849H59.9405Z" fill="#F79E1B"/>
</svg>
