<svg width="50" height="50" viewBox="0 0 50 50" fill="none" xmlns="http://www.w3.org/2000/svg">
<rect x="0.874634" y="0.467773" width="48.8794" height="48.8794" rx="11.9606" fill="#36DA76"/>
<path d="M31.6443 34.4346C31.6033 33.5574 31.5489 32.6849 31.5055 31.8143C31.3648 29.0909 31.3763 26.3275 31.2292 23.5906C31.082 20.8742 31.1693 18.156 31.0916 15.4398C31.076 14.8752 31.1012 13.7603 30.5171 13.4385C29.2605 12.7471 28.5145 14.6329 28.1948 15.4006C27.6185 16.7941 27.2856 18.2598 26.8739 19.7035C26.5231 20.9392 26.1236 22.171 25.9882 23.4504C25.8879 24.4105 25.8971 25.4853 26.3986 26.3503C26.6505 26.7851 27.086 27.0809 27.5818 27.206C28.0964 27.3377 28.6848 27.1653 29.1732 27.3977C29.2991 27.4585 29.41 27.5849 29.4605 27.7126C29.6188 28.1239 29.469 28.748 29.4195 29.1723C29.2628 30.5393 29.097 31.92 29.0228 33.2936C28.9789 34.1243 28.9304 35.1881 29.4329 35.9119C29.741 36.3514 30.3652 36.7618 30.9284 36.5434C31.7703 36.2211 31.6793 35.1327 31.6443 34.4346Z" fill="white"/>
<path d="M20.9346 14.0448C20.6927 14.1418 20.7844 15.0068 20.7737 15.2725C20.7578 15.75 20.7904 16.3818 20.7329 17.0006C20.7325 17.0061 20.7317 17.0099 20.7309 17.0138C20.7259 17.0568 20.7219 17.1032 20.7148 17.1522C20.7073 17.1994 20.6992 17.245 20.6935 17.2919C20.6419 17.5936 20.5437 17.9508 20.3581 18.1221C20.1474 18.318 19.6753 18.2768 19.5114 18.0454C19.2431 17.6685 19.2633 16.8273 19.247 16.8024C19.2361 16.4045 19.1781 15.2007 19.0911 14.4071C19.0839 14.3473 19.0723 13.9875 18.7439 13.9491C18.5907 13.9324 18.4295 14.063 18.3773 14.3014C18.223 15.005 18.0786 16.3463 18.0695 16.5572C18.0676 16.5777 18.0667 16.6015 18.0666 16.6215C18.0666 16.6215 18.0658 16.6253 18.0663 16.627C18.0653 16.6708 18.0131 17.7216 17.7472 18.0842C17.6082 18.2743 17.2474 18.4237 16.8888 18.2226C16.746 18.1416 16.6481 17.9856 16.5791 17.8184C16.2041 16.6513 16.5407 15.3655 16.5886 14.7528C16.6028 14.5804 16.7588 14.0051 16.4107 14.0243C15.8865 14.0528 15.2096 16.2862 15.0885 16.7981C14.7918 18.0718 14.7468 19.4327 15.2629 20.6614C15.5497 21.3417 16.1106 21.8986 16.8061 22.1687C17.1134 22.2869 17.455 22.3727 17.8167 22.4225C17.6866 25.318 17.5388 28.3396 17.4043 30.0211C17.3008 31.2866 17.1786 32.5659 17.195 33.8367C17.2047 34.5959 17.1967 35.5011 17.6951 36.1377C18.2164 36.8027 19.316 36.4968 19.6129 35.7109C19.9459 34.825 19.849 33.7927 19.7356 32.1662C19.6218 30.538 19.4936 28.3168 19.423 27.1218C19.3196 25.3621 19.2835 23.8244 19.2736 22.4214C20.1995 22.2891 21.0631 21.8918 21.5464 21.1611C21.7585 20.8415 21.8981 20.4844 21.9935 20.117C22.1397 19.5605 22.211 18.9509 22.1794 18.3769C22.1473 17.8483 21.7129 13.7331 20.9346 14.0448Z" fill="white"/>
</svg>
