<svg width="50" height="50" viewBox="0 0 50 50" fill="none" xmlns="http://www.w3.org/2000/svg">
<rect x="0.155701" y="0.467773" width="48.8794" height="48.8794" rx="11.9606" fill="#F9668D"/>
<path d="M23.74 21.5155H25.452V20.6675C25.452 20.4426 25.5422 20.2269 25.7027 20.0679C25.8633 19.9089 26.081 19.8195 26.308 19.8195H28.8761C29.1031 19.8195 29.3209 19.9089 29.4814 20.0679C29.6419 20.2269 29.7321 20.4426 29.7321 20.6675V21.5155H33.1562V18.1236C33.1562 17.224 32.7954 16.3612 32.1533 15.7251C31.5112 15.089 30.6402 14.7316 29.7321 14.7316H19.4599C18.5518 14.7316 17.6809 15.089 17.0387 15.7251C16.3966 16.3612 16.0358 17.224 16.0358 18.1236V21.5155H19.4599V20.6675C19.4599 20.4426 19.5501 20.2269 19.7106 20.0679C19.8712 19.9089 20.0889 19.8195 20.3159 19.8195H22.884C23.111 19.8195 23.3287 19.9089 23.4893 20.0679C23.6498 20.2269 23.74 20.4426 23.74 20.6675V21.5155Z" fill="white"/>
<path d="M16.8919 23.2115C15.7568 23.2115 14.6682 23.6583 13.8656 24.4534C13.0629 25.2485 12.612 26.327 12.612 27.4515V34.2354C12.612 34.4603 12.7022 34.676 12.8627 34.8351C13.0232 34.9941 13.241 35.0834 13.468 35.0834C13.695 35.0834 13.9127 34.9941 14.0733 34.8351C14.2338 34.676 14.324 34.4603 14.324 34.2354V29.9955H34.8675V34.2354C34.8675 34.4603 34.9577 34.676 35.1182 34.8351C35.2788 34.9941 35.4965 35.0834 35.7235 35.0834C35.9505 35.0834 36.1682 34.9941 36.3288 34.8351C36.4893 34.676 36.5795 34.4603 36.5795 34.2354V27.4515C36.5795 26.327 36.1286 25.2485 35.3259 24.4534C34.5233 23.6583 33.4347 23.2115 32.2996 23.2115H16.8919Z" fill="white"/>
</svg>
