<svg width="88" height="19" viewBox="0 0 88 19" fill="none" xmlns="http://www.w3.org/2000/svg">
<line x1="3.54156" y1="9.02793" x2="80.9507" y2="9.02794" stroke="#CCCCCC" stroke-width="0.74754" stroke-dasharray="2.24 2.24"/>
<path d="M42.8474 16.4423H41.8267C41.7241 16.4423 41.6232 16.4188 41.5332 16.3739C41.4431 16.329 41.3668 16.2643 41.3113 16.1855C41.2557 16.1067 41.2226 16.0165 41.2151 15.923C41.2075 15.8295 41.2257 15.7358 41.268 15.6504L43.7397 10.6659L40.0284 10.5905L38.6748 12.0892C38.4168 12.3857 38.2108 12.5178 37.6855 12.5178H36.9984C36.8896 12.521 36.7816 12.5002 36.6835 12.4571C36.5853 12.414 36.5 12.35 36.4348 12.2704C36.3435 12.1579 36.2538 11.9673 36.3412 11.6954L37.1012 9.20745C37.1069 9.18888 37.1138 9.17031 37.1215 9.15208C37.1219 9.15035 37.1219 9.14856 37.1215 9.14683C37.1136 9.12862 37.1068 9.11002 37.1012 9.09111L36.3404 6.58744C36.258 6.32078 36.3481 6.13436 36.4386 6.02468C36.4994 5.951 36.5782 5.89137 36.6688 5.8506C36.7593 5.80982 36.8591 5.78903 36.9601 5.78991H37.6855C38.0778 5.78991 38.4585 5.95075 38.6825 6.2104L40.008 7.68387L43.7397 7.63341L41.2688 2.6576C41.2264 2.57226 41.2081 2.47857 41.2156 2.38511C41.2231 2.29165 41.2561 2.20139 41.3116 2.12258C41.3671 2.04377 41.4433 1.97894 41.5333 1.934C41.6233 1.88906 41.7241 1.86545 41.8267 1.86533H42.8585C43.0025 1.86797 43.1439 1.90021 43.2724 1.95966C43.4008 2.01911 43.513 2.10424 43.6005 2.20873L48.3954 7.53495L50.6105 7.48168C50.7727 7.47362 51.2221 7.47082 51.326 7.47082C53.4449 7.47187 54.7103 8.10051 54.7103 9.15384C54.7103 9.48532 54.5654 10.0999 53.5956 10.491C53.0232 10.7223 52.2593 10.8393 51.3253 10.8393C51.2225 10.8393 50.7743 10.8365 50.6098 10.8284L48.395 10.7745L43.5882 16.1007C43.5006 16.2047 43.3886 16.2894 43.2604 16.3486C43.1321 16.4077 42.991 16.4398 42.8474 16.4423Z" fill="#1262AE"/>
<circle cx="3.73507" cy="9.4017" r="2.99016" fill="white" stroke="#1262AE" stroke-width="1.49508"/>
<circle cx="83.9839" cy="9.08996" r="2.99016" fill="white" stroke="#1262AE" stroke-width="1.49508"/>
</svg>
