<svg width="20" height="21" viewBox="0 0 20 21" fill="none" xmlns="http://www.w3.org/2000/svg">
<path d="M0 7.16667C0 3.48477 2.98477 0.5 6.66667 0.5H13.3333C17.0152 0.5 20 3.48477 20 7.16667V13.8333C20 17.5152 17.0152 20.5 13.3333 20.5H6.66667C2.98477 20.5 0 17.5152 0 13.8333V7.16667Z" fill="#1C56C6"/>
<path fill-rule="evenodd" clip-rule="evenodd" d="M15.0504 7.11612C15.5385 7.60427 15.5385 8.39573 15.0504 8.88388L10.0504 13.8839C9.56223 14.372 8.77078 14.372 8.28262 13.8839L5.78262 11.3839C5.29447 10.8957 5.29447 10.1043 5.78262 9.61612C6.27078 9.12796 7.06223 9.12796 7.55039 9.61612L9.1665 11.2322L13.2826 7.11612C13.7708 6.62796 14.5622 6.62796 15.0504 7.11612Z" fill="white"/>
</svg>
