<svg width="20" height="21" viewBox="0 0 20 21" fill="none" xmlns="http://www.w3.org/2000/svg">
<path fill-rule="evenodd" clip-rule="evenodd" d="M10 18C14.1421 18 17.5 14.6421 17.5 10.5C17.5 6.35786 14.1421 3 10 3C5.85786 3 2.5 6.35786 2.5 10.5C2.5 14.6421 5.85786 18 10 18ZM10 20.5C15.5228 20.5 20 16.0228 20 10.5C20 4.97715 15.5228 0.5 10 0.5C4.47715 0.5 0 4.97715 0 10.5C0 16.0228 4.47715 20.5 10 20.5Z" fill="#1C56C6"/>
<path d="M15.8332 10.5C15.8332 13.7216 13.2215 16.3333 9.99984 16.3333C6.77818 16.3333 4.1665 13.7216 4.1665 10.5C4.1665 7.2783 6.77818 4.66663 9.99984 4.66663C13.2215 4.66663 15.8332 7.2783 15.8332 10.5Z" fill="#1C56C6"/>
</svg>
