<svg width="16" height="16" viewBox="0 0 16 16" fill="none" xmlns="http://www.w3.org/2000/svg">
<path fill-rule="evenodd" clip-rule="evenodd" d="M6.40169 10.0915C6.27369 10.0915 6.14569 10.0428 6.04836 9.94481C5.85302 9.74947 5.85302 9.43347 6.04836 9.23814L9.24302 6.04347C9.43836 5.84814 9.75436 5.84814 9.94969 6.04347C10.145 6.23881 10.145 6.55481 9.94969 6.75014L6.75502 9.94481C6.65769 10.0428 6.52969 10.0915 6.40169 10.0915Z" fill="white"/>
<path fill-rule="evenodd" clip-rule="evenodd" d="M9.59805 10.0933C9.47005 10.0933 9.34205 10.0447 9.24471 9.94667L6.04738 6.74867C5.85205 6.55334 5.85205 6.23734 6.04738 6.04201C6.24338 5.84667 6.55938 5.84667 6.75405 6.04201L9.95138 9.24001C10.1467 9.43534 10.1467 9.75134 9.95138 9.94667C9.85405 10.0447 9.72538 10.0933 9.59805 10.0933Z" fill="white"/>
<path fill-rule="evenodd" clip-rule="evenodd" d="M5.11016 2.3335C3.4235 2.3335 2.3335 3.48883 2.3335 5.2775V10.7228C2.3335 12.5115 3.4235 13.6668 5.11016 13.6668H10.8888C12.5762 13.6668 13.6668 12.5115 13.6668 10.7228V5.2775C13.6668 3.48883 12.5762 2.3335 10.8895 2.3335H5.11016ZM10.8888 14.6668H5.11016C2.85083 14.6668 1.3335 13.0815 1.3335 10.7228V5.2775C1.3335 2.91883 2.85083 1.3335 5.11016 1.3335H10.8895C13.1488 1.3335 14.6668 2.91883 14.6668 5.2775V10.7228C14.6668 13.0815 13.1488 14.6668 10.8888 14.6668Z" fill="white"/>
</svg>
