<svg width="20" height="21" viewBox="0 0 20 21" fill="none" xmlns="http://www.w3.org/2000/svg">
<path fill-rule="evenodd" clip-rule="evenodd" d="M8.00174 13.1137C7.84174 13.1137 7.68174 13.0529 7.56008 12.9304C7.31591 12.6862 7.31591 12.2912 7.56008 12.0471L11.5534 8.05373C11.7976 7.80956 12.1926 7.80956 12.4367 8.05373C12.6809 8.2979 12.6809 8.6929 12.4367 8.93706L8.44341 12.9304C8.32174 13.0529 8.16174 13.1137 8.00174 13.1137Z" fill="white"/>
<path fill-rule="evenodd" clip-rule="evenodd" d="M11.9969 13.1159C11.8369 13.1159 11.6769 13.0551 11.5553 12.9326L7.55861 8.93511C7.31445 8.69094 7.31445 8.29594 7.55861 8.05178C7.80361 7.80761 8.19861 7.80761 8.44195 8.05178L12.4386 12.0493C12.6828 12.2934 12.6828 12.6884 12.4386 12.9326C12.3169 13.0551 12.1561 13.1159 11.9969 13.1159Z" fill="white"/>
<path fill-rule="evenodd" clip-rule="evenodd" d="M6.38734 3.4165C4.279 3.4165 2.9165 4.86067 2.9165 7.0965V13.9032C2.9165 16.139 4.279 17.5832 6.38734 17.5832H13.6107C15.7198 17.5832 17.0832 16.139 17.0832 13.9032V7.0965C17.0832 4.86067 15.7198 3.4165 13.6115 3.4165H6.38734ZM13.6107 18.8332H6.38734C3.56317 18.8332 1.6665 16.8515 1.6665 13.9032V7.0965C1.6665 4.14817 3.56317 2.1665 6.38734 2.1665H13.6115C16.4357 2.1665 18.3332 4.14817 18.3332 7.0965V13.9032C18.3332 16.8515 16.4357 18.8332 13.6107 18.8332Z" fill="white"/>
</svg>
