<svg width="28" height="28" viewBox="0 0 28 28" fill="none" xmlns="http://www.w3.org/2000/svg">
<path d="M23.333 14.3201C23.333 14.763 23.0038 15.1291 22.5767 15.1871L22.458 15.1951L4.95801 15.1951C4.47476 15.1951 4.08301 14.8033 4.08301 14.3201C4.08301 13.8771 4.41219 13.511 4.83928 13.4531L4.95801 13.4451L22.458 13.4451C22.9413 13.4451 23.333 13.8368 23.333 14.3201Z" fill="#212121"/>
<path d="M12.6335 20.7286C12.9759 21.0696 12.9771 21.6236 12.6362 21.9661C12.3262 22.2774 11.8401 22.3067 11.497 22.0532L11.3987 21.9687L4.34039 14.9407C4.02815 14.6298 3.99975 14.142 4.25519 13.7989L4.34034 13.7007L11.3987 6.67151C11.7411 6.33051 12.2951 6.33165 12.6361 6.67407C12.9461 6.98535 12.9733 7.47152 12.7185 7.81354L12.6335 7.9115L6.19818 14.321L12.6335 20.7286Z" fill="#212121"/>
</svg>
