<svg width="20" height="20" viewBox="0 0 20 20" fill="none" xmlns="http://www.w3.org/2000/svg">
<path fill-rule="evenodd" clip-rule="evenodd" d="M11.7676 9.36089H14.0741C14.4238 9.36089 14.6986 9.07175 14.6986 8.72307C14.6986 8.3659 14.4238 8.08526 14.0741 8.08526H11.7676C11.4179 8.08526 11.1431 8.3659 11.1431 8.72307C11.1431 9.07175 11.4179 9.36089 11.7676 9.36089ZM16.8137 4.93954C17.3216 4.93954 17.6547 5.11813 17.9877 5.50932C18.3208 5.90052 18.3791 6.4618 18.3042 6.9712L17.5131 12.55C17.3632 13.6224 16.4639 14.4124 15.4064 14.4124H6.32183C5.21436 14.4124 4.2984 13.5458 4.20681 12.4233L3.44074 3.1528L2.18339 2.93169C1.85031 2.87216 1.61716 2.54049 1.67545 2.20032C1.73374 1.8525 2.05848 1.62203 2.39988 1.67391L4.38584 1.97921C4.66895 2.03109 4.87712 2.26835 4.9021 2.5575L5.06031 4.46245C5.08529 4.73544 5.30179 4.93954 5.56825 4.93954H16.8137ZM6.18843 15.7565C5.48898 15.7565 4.92275 16.3348 4.92275 17.0492C4.92275 17.755 5.48898 18.3333 6.18843 18.3333C6.87956 18.3333 7.44579 17.755 7.44579 17.0492C7.44579 16.3348 6.87956 15.7565 6.18843 15.7565ZM15.5561 15.7565C14.8567 15.7565 14.2905 16.3348 14.2905 17.0492C14.2905 17.755 14.8567 18.3333 15.5561 18.3333C16.2473 18.3333 16.8135 17.755 16.8135 17.0492C16.8135 16.3348 16.2473 15.7565 15.5561 15.7565Z" fill="#1C56C6"/>
</svg>
