<svg width="20" height="20" viewBox="0 0 20 20" fill="none" xmlns="http://www.w3.org/2000/svg">
<path fill-rule="evenodd" clip-rule="evenodd" d="M10.145 12.6805H9.85356C7.85074 12.6805 6.22733 11.0766 6.22733 9.09962V5.2469C6.22733 3.26912 7.85074 1.66602 9.85356 1.66602H10.145C12.1478 1.66602 13.772 3.26912 13.772 5.2469V9.09962C13.772 11.0766 12.1478 12.6805 10.145 12.6805ZM15.4682 8.98507C15.4682 8.54423 15.8298 8.1879 16.2754 8.1879C16.721 8.1879 17.0827 8.54423 17.0827 8.98507C17.0827 12.5715 14.3331 15.533 10.807 15.9308V17.5355C10.807 17.9756 10.4454 18.3327 9.99975 18.3327C9.55334 18.3327 9.19249 17.9756 9.19249 17.5355V15.9308C5.66556 15.533 2.91602 12.5715 2.91602 8.98507C2.91602 8.54423 3.27767 8.1879 3.72328 8.1879C4.16889 8.1879 4.53054 8.54423 4.53054 8.98507C4.53054 11.9625 6.98382 14.3851 9.99975 14.3851C13.0149 14.3851 15.4682 11.9625 15.4682 8.98507Z" fill="#1C56C6"/>
</svg>
