<svg width="24" height="25" viewBox="0 0 24 25" fill="none" xmlns="http://www.w3.org/2000/svg">
<path fill-rule="evenodd" clip-rule="evenodd" d="M7.66618 22.5H16.3328C19.7231 22.5 22 20.1219 22 16.5833V8.41672C22 4.87811 19.7231 2.5 16.3338 2.5H7.66618C4.2769 2.5 2 4.87811 2 8.41672V16.5833C2 20.1219 4.2769 22.5 7.66618 22.5ZM8.49886 11.5C7.12021 11.5 6 10.3783 6 9C6 7.62173 7.12021 6.5 8.49886 6.5C9.8765 6.5 10.9977 7.62173 10.9977 9C10.9977 10.3783 9.8765 11.5 8.49886 11.5ZM19.8208 15.434C20.1557 16.2926 19.9817 17.3246 19.6237 18.1749C19.1994 19.1863 18.3869 19.952 17.3632 20.2864C16.9087 20.435 16.432 20.5 15.9564 20.5H7.52864C6.68999 20.5 5.94788 20.2988 5.3395 19.9241C4.95839 19.6889 4.89102 19.146 5.17358 18.7941C5.6462 18.2059 6.11279 17.6156 6.5834 17.0201C7.48038 15.8808 8.08473 15.5506 8.75645 15.8406C9.02896 15.9603 9.30248 16.1398 9.58404 16.3297C10.3342 16.8395 11.377 17.5402 12.7506 16.7797C13.6906 16.2532 14.2358 15.3501 14.7106 14.5637L14.7185 14.5506C14.7522 14.4954 14.7855 14.4402 14.8187 14.3852C14.9783 14.1212 15.1357 13.8607 15.3138 13.6207C15.5371 13.3204 16.3646 12.3813 17.4366 13.0501C18.1194 13.4711 18.6936 14.0408 19.308 14.6507C19.5423 14.8839 19.7092 15.1491 19.8208 15.434Z" fill="url(#paint0_linear_1846_43152)"/>
<defs>
<linearGradient id="paint0_linear_1846_43152" x1="22" y1="22.5" x2="-1.7982" y2="15.5999" gradientUnits="userSpaceOnUse">
<stop stop-color="#246BFD"/>
<stop offset="1" stop-color="#5089FD"/>
</linearGradient>
</defs>
</svg>
