<svg width="20" height="21" viewBox="0 0 20 21" fill="none" xmlns="http://www.w3.org/2000/svg">
<path d="M15.834 9.66732H10.834V4.66732C10.834 4.4463 10.7462 4.23434 10.5899 4.07806C10.4336 3.92178 10.2217 3.83398 10.0007 3.83398C9.77964 3.83398 9.56768 3.92178 9.4114 4.07806C9.25512 4.23434 9.16732 4.4463 9.16732 4.66732V9.66732H4.16732C3.9463 9.66732 3.73434 9.75512 3.57806 9.9114C3.42178 10.0677 3.33398 10.2796 3.33398 10.5007C3.33398 10.7217 3.42178 10.9336 3.57806 11.0899C3.73434 11.2462 3.9463 11.334 4.16732 11.334H9.16732V16.334C9.16732 16.555 9.25512 16.767 9.4114 16.9232C9.56768 17.0795 9.77964 17.1673 10.0007 17.1673C10.2217 17.1673 10.4336 17.0795 10.5899 16.9232C10.7462 16.767 10.834 16.555 10.834 16.334V11.334H15.834C16.055 11.334 16.267 11.2462 16.4232 11.0899C16.5795 10.9336 16.6673 10.7217 16.6673 10.5007C16.6673 10.2796 16.5795 10.0677 16.4232 9.9114C16.267 9.75512 16.055 9.66732 15.834 9.66732Z" fill="#1C56C6"/>
</svg>
