<svg width="28" height="28" viewBox="0 0 28 28" fill="none" xmlns="http://www.w3.org/2000/svg">
<rect width="23.3364" height="22.1681" transform="translate(2.33203 2.91602)" fill="white"/>
<path d="M20.9041 16.706C20.6019 16.9988 20.4631 17.4223 20.5319 17.8377L21.5691 23.5777C21.6566 24.0642 21.4512 24.5565 21.0441 24.8377C20.6451 25.1294 20.1142 25.1644 19.6791 24.931L14.5119 22.236C14.3322 22.1403 14.1327 22.089 13.9286 22.0832H13.6124C13.5027 22.0995 13.3954 22.1345 13.2974 22.1882L8.12905 24.896C7.87355 25.0244 7.58422 25.0699 7.30072 25.0244C6.61005 24.8937 6.14922 24.2357 6.26239 23.5415L7.30072 17.8015C7.36955 17.3827 7.23072 16.9568 6.92855 16.6593L2.71572 12.576C2.36339 12.2342 2.24089 11.7208 2.40189 11.2577C2.55822 10.7957 2.95722 10.4585 3.43905 10.3827L9.23739 9.54152C9.67839 9.49602 10.0657 9.22768 10.2641 8.83102L12.8191 3.59268C12.8797 3.47602 12.9579 3.36868 13.0524 3.27768L13.1574 3.19602C13.2122 3.13535 13.2752 3.08518 13.3452 3.04435L13.4724 2.99768L13.6707 2.91602H14.1619C14.6006 2.96152 14.9867 3.22402 15.1886 3.61602L17.7774 8.83102C17.9641 9.21252 18.3269 9.47735 18.7457 9.54152L24.5441 10.3827C25.0341 10.4527 25.4436 10.791 25.6057 11.2577C25.7586 11.7255 25.6267 12.2388 25.2674 12.576L20.9041 16.706Z" fill="url(#paint0_linear_388_12854)"/>
<defs>
<linearGradient id="paint0_linear_388_12854" x1="25.6684" y1="25.0842" x2="-1.86879" y2="16.6792" gradientUnits="userSpaceOnUse">
<stop stop-color="#FB9400"/>
<stop offset="1" stop-color="#FFAB38"/>
</linearGradient>
</defs>
</svg>
