<svg width="20" height="21" viewBox="0 0 20 21" fill="none" xmlns="http://www.w3.org/2000/svg">
<path d="M14.9322 12.4335C14.7164 12.6427 14.6172 12.9452 14.6664 13.2418L15.4072 17.3418C15.4697 17.6893 15.3231 18.041 15.0322 18.2418C14.7472 18.4502 14.3681 18.4752 14.0572 18.3085L10.3664 16.3835C10.2381 16.3152 10.0956 16.2785 9.94973 16.2743H9.7239C9.64557 16.286 9.5689 16.311 9.4989 16.3493L5.80723 18.2835C5.62473 18.3752 5.41807 18.4077 5.21557 18.3752C4.72223 18.2818 4.39307 17.8118 4.4739 17.316L5.21557 13.216C5.26473 12.9168 5.16557 12.6127 4.94973 12.4002L1.94057 9.4835C1.6889 9.23933 1.6014 8.87266 1.7164 8.54183C1.82807 8.21183 2.11307 7.971 2.45723 7.91683L6.5989 7.316C6.9139 7.2835 7.19057 7.09183 7.33223 6.8085L9.15723 3.06683C9.20057 2.9835 9.2564 2.90683 9.3239 2.84183L9.3989 2.7835C9.43807 2.74016 9.48307 2.70433 9.53307 2.67516L9.6239 2.64183L9.76557 2.5835H10.1164C10.4297 2.616 10.7056 2.8035 10.8497 3.0835L12.6989 6.8085C12.8322 7.081 13.0914 7.27016 13.3906 7.316L17.5322 7.91683C17.8822 7.96683 18.1747 8.2085 18.2906 8.54183C18.3997 8.876 18.3056 9.24266 18.0489 9.4835L14.9322 12.4335Z" fill="white"/>
</svg>
