<svg width="16" height="16" viewBox="0 0 16 16" fill="none" xmlns="http://www.w3.org/2000/svg">
<path d="M7.38772 2.08417C7.61932 1.54747 8.38033 1.54747 8.61193 2.08417L10.0653 5.45209C10.1634 5.67935 10.3793 5.83356 10.626 5.85263L14.3531 6.14063C14.9511 6.18684 15.1887 6.93754 14.7262 7.3194L11.9233 9.63359C11.7256 9.79682 11.639 10.059 11.7006 10.3078L12.5632 13.7934C12.7051 14.3666 12.0867 14.8276 11.5779 14.5281L8.33804 12.6207C8.12931 12.4979 7.87034 12.4979 7.66161 12.6207L4.42179 14.5281C3.91292 14.8276 3.29457 14.3666 3.43643 13.7934L4.29905 10.3078C4.36065 10.059 4.27406 9.79682 4.07636 9.63359L1.27344 7.3194C0.810929 6.93754 1.04853 6.18684 1.64652 6.14063L5.37362 5.85263C5.6204 5.83356 5.8363 5.67935 5.93437 5.45209L7.38772 2.08417Z" fill="#23262F"/>
</svg>
