<svg width="28" height="28" viewBox="0 0 28 28" fill="none" xmlns="http://www.w3.org/2000/svg">
<path fill-rule="evenodd" clip-rule="evenodd" d="M21.8251 10.2623C21.8251 11.7276 22.2124 12.5912 23.0646 13.5864C23.7104 14.3197 23.9168 15.2608 23.9168 16.2819C23.9168 17.3019 23.5817 18.2701 22.9104 19.0562C22.0315 19.9985 20.792 20.6002 19.5269 20.7047C17.6938 20.861 15.8594 20.9926 14.0007 20.9926C12.1409 20.9926 10.3077 20.9139 8.47454 20.7047C7.20836 20.6002 5.96885 19.9985 5.09111 19.0562C4.41975 18.2701 4.0835 17.3019 4.0835 16.2819C4.0835 15.2608 4.29105 14.3197 4.93573 13.5864C5.81464 12.5912 6.1764 11.7276 6.1764 10.2623V9.76527C6.1764 7.80298 6.66571 6.51986 7.67332 5.26376C9.1714 3.4319 11.5727 2.33325 13.9486 2.33325H14.0529C16.4798 2.33325 18.9588 3.48477 20.4314 5.39536C21.3868 6.62561 21.8251 7.85468 21.8251 9.76527V10.2623ZM10.5861 23.4042C10.5861 22.8167 11.1253 22.5476 11.6239 22.4325C12.2071 22.3091 15.761 22.3091 16.3442 22.4325C16.8428 22.5476 17.382 22.8167 17.382 23.4042C17.353 23.9635 17.0248 24.4594 16.5715 24.7743C15.9836 25.2326 15.2937 25.5228 14.5725 25.6274C14.1736 25.6791 13.7817 25.6802 13.3968 25.6274C12.6744 25.5228 11.9845 25.2326 11.3978 24.7731C10.9432 24.4594 10.6151 23.9635 10.5861 23.4042Z" fill="#1C56C6"/>
</svg>
