<svg width="28" height="28" viewBox="0 0 28 28" fill="none" xmlns="http://www.w3.org/2000/svg">
<mask id="mask0_388_37847" style="mask-type:luminance" maskUnits="userSpaceOnUse" x="2" y="2" width="23" height="25">
<path fill-rule="evenodd" clip-rule="evenodd" d="M2.33398 2.3335H24.833V26.508H2.33398V2.3335Z" fill="white"/>
</mask>
<g mask="url(#mask0_388_37847)">
<path fill-rule="evenodd" clip-rule="evenodd" d="M8.40336 20.3468C8.67052 20.3468 8.93769 20.3807 9.19902 20.4507C9.98769 20.663 10.6725 21.1903 11.0785 21.8985C11.3422 22.343 11.488 22.8622 11.4927 23.3918C11.4927 24.1502 12.1017 24.758 12.8507 24.758H14.3125C15.058 24.758 15.667 24.1537 15.6705 23.4082C15.6659 22.5845 15.9879 21.8017 16.577 21.2125C17.158 20.6315 17.97 20.2827 18.782 20.306C19.314 20.3188 19.8262 20.4623 20.2777 20.719C20.9275 21.0912 21.757 20.8695 22.1327 20.2278L22.9074 18.9363C23.08 18.6388 23.1302 18.2655 23.038 17.9213C22.947 17.5772 22.7184 17.2785 22.4104 17.1023C21.6894 16.687 21.1749 16.0173 20.9614 15.2147C20.7502 14.4272 20.8657 13.5673 21.2775 12.8592C21.5459 12.3925 21.939 11.9993 22.4104 11.7287C23.0427 11.3588 23.2644 10.5317 22.8969 9.88766C22.8817 9.862 22.8677 9.83516 22.856 9.80716L22.1724 8.62183C21.8002 7.97433 20.9719 7.7515 20.322 8.12133C19.6197 8.53666 18.7844 8.65566 17.9817 8.4445C17.1802 8.23683 16.5082 7.72933 16.0894 7.013C15.821 6.565 15.6752 6.0435 15.6705 5.51266C15.681 5.11366 15.541 4.7555 15.2867 4.493C15.0335 4.23166 14.6777 4.0835 14.3125 4.0835H12.8507C12.489 4.0835 12.1507 4.22466 11.8952 4.479C11.6409 4.7345 11.502 5.074 11.5044 5.43566C11.4799 7.14133 10.0857 8.5145 8.39752 8.5145C7.85619 8.50866 7.33469 8.36283 6.88202 8.09216C6.24619 7.7305 5.41552 7.95333 5.04336 8.60083L4.25352 9.89933C3.89186 10.527 4.11352 11.3565 4.75752 11.731C5.71302 12.284 6.30919 13.3153 6.30919 14.4213C6.30919 15.5273 5.71302 16.5575 4.75519 17.1117C4.11469 17.4827 3.89302 18.3075 4.26402 18.9492L5.00019 20.2185C5.18219 20.5463 5.47969 20.7832 5.82386 20.88C6.16686 20.9757 6.54486 20.9348 6.85986 20.7598C7.32302 20.488 7.86202 20.3468 8.40336 20.3468M14.3125 26.508H12.8507C11.1369 26.508 9.74269 25.115 9.74269 23.4012C9.74036 23.19 9.67969 22.9707 9.56652 22.7805C9.38336 22.4608 9.08702 22.2322 8.74519 22.1412C8.40569 22.0502 8.03352 22.1003 7.72786 22.2777C6.99519 22.686 6.13302 22.7852 5.34436 22.5635C4.55686 22.3407 3.87669 21.7993 3.47769 21.0818L2.74852 19.8253C1.89569 18.346 2.40319 16.4502 3.88019 15.5962C4.29902 15.3547 4.55919 14.9043 4.55919 14.4213C4.55919 13.9383 4.29902 13.4868 3.88019 13.2453C2.40202 12.3867 1.89569 10.4862 2.74736 9.00683L3.53836 7.70833C4.37952 6.24533 6.28119 5.72966 7.76402 6.58133C7.96586 6.7015 8.18519 6.76216 8.40802 6.7645C9.13486 6.7645 9.74269 6.16483 9.75436 5.4275C9.74969 4.61433 10.0705 3.83383 10.655 3.24466C11.2419 2.65666 12.0212 2.3335 12.8507 2.3335H14.3125C15.1479 2.3335 15.9599 2.6765 16.542 3.27266C17.123 3.87233 17.4439 4.69483 17.4194 5.529C17.4217 5.71683 17.4835 5.93383 17.5955 6.124C17.781 6.439 18.0739 6.66066 18.4215 6.75166C18.7692 6.838 19.1332 6.79133 19.4424 6.60816C20.9357 5.75533 22.8362 6.26633 23.689 7.748L24.4159 9.00683C24.4345 9.04066 24.4509 9.07333 24.4649 9.10716C25.2372 10.5667 24.7215 12.4042 23.2865 13.243C23.0777 13.3632 22.9085 13.5312 22.7919 13.7342C22.611 14.048 22.5609 14.4213 22.6519 14.7643C22.7452 15.1143 22.968 15.4048 23.2819 15.5845C23.99 15.9917 24.5185 16.6777 24.7297 17.4698C24.9409 18.2608 24.8254 19.1195 24.4135 19.8277L23.6389 21.118C22.786 22.5833 20.8855 23.0908 19.4074 22.2368C19.2102 22.1237 18.9827 22.0618 18.7564 22.056H18.7494C18.4122 22.056 18.0657 22.1995 17.8137 22.4503C17.5582 22.7058 17.4182 23.0465 17.4205 23.4082C17.4124 25.122 16.0182 26.508 14.3125 26.508" fill="#212121"/>
</g>
<path fill-rule="evenodd" clip-rule="evenodd" d="M13.5871 12.2197C12.3737 12.2197 11.3867 13.2079 11.3867 14.4212C11.3867 15.6346 12.3737 16.6204 13.5871 16.6204C14.8004 16.6204 15.7874 15.6346 15.7874 14.4212C15.7874 13.2079 14.8004 12.2197 13.5871 12.2197M13.5871 18.3704C11.4089 18.3704 9.63672 16.5994 9.63672 14.4212C9.63672 12.2431 11.4089 10.4697 13.5871 10.4697C15.7652 10.4697 17.5374 12.2431 17.5374 14.4212C17.5374 16.5994 15.7652 18.3704 13.5871 18.3704" fill="#212121"/>
</svg>
