<svg width="13" height="12" viewBox="0 0 13 12" fill="none" xmlns="http://www.w3.org/2000/svg">
<path fill-rule="evenodd" clip-rule="evenodd" d="M5.30114 7.56824C5.20514 7.56824 5.10914 7.53174 5.03614 7.45824C4.88964 7.31174 4.88964 7.07474 5.03614 6.92824L7.43214 4.53224C7.57864 4.38574 7.81564 4.38574 7.96214 4.53224C8.10864 4.67874 8.10864 4.91574 7.96214 5.06224L5.56614 7.45824C5.49314 7.53174 5.39714 7.56824 5.30114 7.56824Z" fill="white"/>
<path fill-rule="evenodd" clip-rule="evenodd" d="M7.69817 7.56976C7.60217 7.56976 7.50617 7.53326 7.43317 7.45976L5.03517 5.06126C4.88867 4.91476 4.88867 4.67776 5.03517 4.53126C5.18217 4.38476 5.41917 4.38476 5.56517 4.53126L7.96317 6.92976C8.10967 7.07626 8.10967 7.31326 7.96317 7.45976C7.89017 7.53326 7.79367 7.56976 7.69817 7.56976Z" fill="white"/>
<path fill-rule="evenodd" clip-rule="evenodd" d="M4.3325 1.75C3.0675 1.75 2.25 2.6165 2.25 3.958V8.042C2.25 9.3835 3.0675 10.25 4.3325 10.25H8.6665C9.932 10.25 10.75 9.3835 10.75 8.042V3.958C10.75 2.6165 9.932 1.75 8.667 1.75H4.3325ZM8.6665 11H4.3325C2.638 11 1.5 9.811 1.5 8.042V3.958C1.5 2.189 2.638 1 4.3325 1H8.667C10.3615 1 11.5 2.189 11.5 3.958V8.042C11.5 9.811 10.3615 11 8.6665 11Z" fill="white"/>
</svg>
