<svg width="20" height="20" viewBox="0 0 20 20" fill="none" xmlns="http://www.w3.org/2000/svg">
<path fill-rule="evenodd" clip-rule="evenodd" d="M6.39199 1.6665H13.617C16.442 1.6665 18.3337 3.64984 18.3337 6.59984V13.409C18.3337 16.3498 16.442 18.3332 13.617 18.3332H6.39199C3.56699 18.3332 1.66699 16.3498 1.66699 13.409V6.59984C1.66699 3.64984 3.56699 1.6665 6.39199 1.6665ZM9.52533 12.4915L13.4837 8.53317C13.767 8.24984 13.767 7.7915 13.4837 7.49984C13.2003 7.2165 12.7337 7.2165 12.4503 7.49984L9.00866 10.9415L7.55033 9.48317C7.26699 9.19984 6.80033 9.19984 6.51699 9.48317C6.23366 9.7665 6.23366 10.2248 6.51699 10.5165L8.50033 12.4915C8.64199 12.6332 8.82533 12.6998 9.00866 12.6998C9.20033 12.6998 9.38366 12.6332 9.52533 12.4915Z" fill="#212121"/>
</svg>
