<svg width="13" height="12" viewBox="0 0 13 12" fill="none" xmlns="http://www.w3.org/2000/svg">
<path d="M9.45944 7.16C9.32994 7.2855 9.27044 7.467 9.29994 7.645L9.74444 10.105C9.78194 10.3135 9.69394 10.5245 9.51944 10.645C9.34844 10.77 9.12094 10.785 8.93444 10.685L6.71994 9.53C6.64294 9.489 6.55744 9.467 6.46994 9.4645H6.33444C6.28744 9.4715 6.24144 9.4865 6.19944 9.5095L3.98444 10.67C3.87494 10.725 3.75094 10.7445 3.62944 10.725C3.33344 10.669 3.13594 10.387 3.18444 10.0895L3.62944 7.6295C3.65894 7.45 3.59944 7.2675 3.46994 7.14L1.66444 5.39C1.51344 5.2435 1.46094 5.0235 1.52994 4.825C1.59694 4.627 1.76794 4.4825 1.97444 4.45L4.45944 4.0895C4.64844 4.07 4.81444 3.955 4.89944 3.785L5.99444 1.54C6.02044 1.49 6.05394 1.444 6.09444 1.405L6.13944 1.37C6.16294 1.344 6.18994 1.3225 6.21994 1.305L6.27444 1.285L6.35944 1.25H6.56994C6.75794 1.2695 6.92344 1.382 7.00994 1.55L8.11944 3.785C8.19944 3.9485 8.35494 4.062 8.53444 4.0895L11.0194 4.45C11.2294 4.48 11.4049 4.625 11.4744 4.825C11.5399 5.0255 11.4834 5.2455 11.3294 5.39L9.45944 7.16Z" fill="white"/>
</svg>
