<svg width="12" height="12" viewBox="0 0 12 12" fill="none" xmlns="http://www.w3.org/2000/svg">
<path fill-rule="evenodd" clip-rule="evenodd" d="M4.80114 7.56824C4.70514 7.56824 4.60914 7.53174 4.53614 7.45824C4.38964 7.31174 4.38964 7.07474 4.53614 6.92824L6.93214 4.53224C7.07864 4.38574 7.31564 4.38574 7.46214 4.53224C7.60864 4.67874 7.60864 4.91574 7.46214 5.06224L5.06614 7.45824C4.99314 7.53174 4.89714 7.56824 4.80114 7.56824Z" fill="#1C56C6"/>
<path fill-rule="evenodd" clip-rule="evenodd" d="M7.19817 7.56976C7.10217 7.56976 7.00617 7.53326 6.93317 7.45976L4.53517 5.06126C4.38867 4.91476 4.38867 4.67776 4.53517 4.53126C4.68217 4.38476 4.91917 4.38476 5.06517 4.53126L7.46317 6.92976C7.60967 7.07626 7.60967 7.31326 7.46317 7.45976C7.39017 7.53326 7.29367 7.56976 7.19817 7.56976Z" fill="#1C56C6"/>
<path fill-rule="evenodd" clip-rule="evenodd" d="M3.8325 1.75C2.5675 1.75 1.75 2.6165 1.75 3.958V8.042C1.75 9.3835 2.5675 10.25 3.8325 10.25H8.1665C9.432 10.25 10.25 9.3835 10.25 8.042V3.958C10.25 2.6165 9.432 1.75 8.167 1.75H3.8325ZM8.1665 11H3.8325C2.138 11 1 9.811 1 8.042V3.958C1 2.189 2.138 1 3.8325 1H8.167C9.8615 1 11 2.189 11 3.958V8.042C11 9.811 9.8615 11 8.1665 11Z" fill="#1C56C6"/>
</svg>
