<svg width="28" height="29" viewBox="0 0 28 29" fill="none" xmlns="http://www.w3.org/2000/svg">
<path d="M21.8282 8.91163C21.7197 8.80228 21.5907 8.71548 21.4485 8.65625C21.3064 8.59702 21.1539 8.56653 20.9999 8.56653C20.8458 8.56653 20.6934 8.59702 20.5512 8.65625C20.409 8.71548 20.28 8.80228 20.1715 8.91163L11.4799 17.615L7.82819 13.9516C7.71558 13.8428 7.58265 13.7573 7.43699 13.6999C7.29132 13.6425 7.13578 13.6144 6.97924 13.6171C6.82269 13.6198 6.66821 13.6533 6.52462 13.7157C6.38103 13.7781 6.25114 13.8682 6.14236 13.9808C6.03358 14.0934 5.94805 14.2263 5.89064 14.372C5.83324 14.5177 5.80509 14.6732 5.8078 14.8298C5.8105 14.9863 5.84402 15.1408 5.90643 15.2844C5.96884 15.428 6.05892 15.5578 6.17153 15.6666L10.6515 20.1466C10.76 20.256 10.889 20.3428 11.0312 20.402C11.1734 20.4612 11.3258 20.4917 11.4799 20.4917C11.6339 20.4917 11.7864 20.4612 11.9285 20.402C12.0707 20.3428 12.1997 20.256 12.3082 20.1466L21.8282 10.6266C21.9466 10.5174 22.0411 10.3848 22.1058 10.2372C22.1704 10.0896 22.2038 9.93025 22.2038 9.76913C22.2038 9.60801 22.1704 9.44864 22.1058 9.30105C22.0411 9.15347 21.9466 9.02088 21.8282 8.91163Z" fill="url(#paint0_linear_1844_27263)"/>
<defs>
<linearGradient id="paint0_linear_1844_27263" x1="22.2038" y1="20.4917" x2="3.95392" y2="13.2165" gradientUnits="userSpaceOnUse">
<stop stop-color="#246BFD"/>
<stop offset="1" stop-color="#5089FD"/>
</linearGradient>
</defs>
</svg>
