<svg width="131" height="25" viewBox="0 0 131 25" fill="none" xmlns="http://www.w3.org/2000/svg">
<g clip-path="url(#clip0_1038_1489)">
<path d="M97.862 6.288C98.8811 6.288 99.8063 6.41762 100.638 6.67685C101.469 6.93609 102.171 7.27131 102.743 7.68251C103.1 7.93281 103.382 8.20993 103.588 8.51386C103.793 8.81779 103.896 9.21111 103.896 9.69383V19.08L103.892 19.3352C103.862 20.1752 103.685 20.908 103.36 21.5338C103.002 22.2221 102.515 22.7942 101.898 23.2501C101.281 23.706 100.557 24.0412 99.7258 24.2558C98.8945 24.4703 98.005 24.5776 97.0575 24.5776C95.4305 24.5776 94.1522 24.3586 93.2225 23.9205C92.2929 23.4825 91.828 22.7719 91.828 21.7886C91.828 21.3773 91.913 21.0153 92.0828 20.7024C92.2526 20.3896 92.4448 20.1527 92.6594 19.9918C93.1779 20.2778 93.7634 20.5192 94.4159 20.7159C95.0685 20.9125 95.7434 21.0108 96.4407 21.0108C97.4061 21.0108 98.1749 20.8499 98.747 20.5281C99.3191 20.2063 99.6051 19.6878 99.6051 18.9727V18.5436L99.4012 18.6274C98.7083 18.8934 97.8823 19.0263 96.9234 19.0263C96.1189 19.0263 95.3545 18.9057 94.6305 18.6643C93.9064 18.4229 93.2717 18.0475 92.7264 17.538C92.1811 17.0284 91.7431 16.3714 91.4124 15.5669C91.0816 14.7624 90.9162 13.8059 90.9162 12.6974C90.9162 11.6068 91.0906 10.6593 91.4392 9.85474C91.7878 9.05021 92.2705 8.38424 92.8873 7.85683C93.5041 7.32942 94.2372 6.93609 95.0864 6.67685C95.9356 6.41762 96.8608 6.288 97.862 6.288ZM25.6766 6.70432C27.271 6.70432 28.5756 7.06208 29.5906 7.77759C30.6055 8.49311 31.2063 9.75693 31.393 11.5691H27.9865L27.9539 11.3686C27.8767 10.9734 27.7282 10.6124 27.5082 10.2858C27.1349 9.77248 26.5555 9.51583 25.77 9.51583C24.65 9.51583 23.8839 10.0719 23.4717 11.1841C23.254 11.7752 23.1451 12.5607 23.1451 13.5406C23.1451 14.4739 23.254 15.2244 23.4717 15.7922C23.8684 16.8499 24.615 17.3787 25.7116 17.3787C26.4894 17.3787 27.0416 17.1687 27.3682 16.7488C27.6948 16.3288 27.8932 15.7844 27.9632 15.1155H31.358L31.3349 15.3479C31.2223 16.2734 30.8644 17.1526 30.2614 17.9854C29.2192 19.4397 27.6754 20.1669 25.63 20.1669C23.5845 20.1669 22.0796 19.5603 21.1152 18.347C20.1508 17.1337 19.6686 15.5588 19.6686 13.6223C19.6686 11.4368 20.2014 9.73748 21.2669 8.52422C22.3324 7.31095 23.8023 6.70432 25.6766 6.70432ZM56.5736 6.66932C57.6313 6.66932 58.584 6.86764 59.4318 7.26429C60.2795 7.66093 60.9795 8.28701 61.5316 9.14252C62.0294 9.89692 62.3522 10.7719 62.4999 11.7674C62.5855 12.3507 62.6205 13.1906 62.6049 14.2872H53.9021L53.914 14.5084C53.9971 15.6666 54.3936 16.4873 55.1037 16.9704C55.5625 17.2893 56.1147 17.4487 56.7602 17.4487C57.4446 17.4487 58.0007 17.2543 58.4285 16.8654C58.6618 16.6554 58.8679 16.3638 59.0468 15.9905H62.4416L62.4164 16.1648C62.2938 16.8628 61.9094 17.5708 61.2633 18.2887C60.1745 19.5253 58.6501 20.1436 56.6902 20.1436C55.0726 20.1436 53.6454 19.6225 52.4088 18.5803C51.1722 17.5382 50.5539 15.8427 50.5539 13.4939C50.5539 11.293 51.1119 9.60527 52.228 8.43089C53.344 7.25651 54.7926 6.66932 56.5736 6.66932ZM79.9186 1.99719C80.3119 1.99719 80.665 2.02401 80.9779 2.07764C81.2908 2.13128 81.5545 2.23855 81.769 2.39945C81.9836 2.56036 82.1489 2.77937 82.2651 3.05648C82.3813 3.3336 82.4395 3.69564 82.4395 4.14259V19.6968L82.3494 19.7129C82.1579 19.7469 81.8974 19.7906 81.5679 19.8443C81.1835 19.9069 80.7946 19.9381 80.4013 19.9381C80.008 19.9381 79.6549 19.9113 79.342 19.8577C79.0292 19.8041 78.7654 19.6968 78.5509 19.5359C78.3364 19.375 78.171 19.156 78.0548 18.8788C77.9386 18.6017 77.8805 18.2397 77.8805 17.7927V2.23855L77.9705 2.2224C78.162 2.18847 78.4226 2.14469 78.752 2.09105C79.1364 2.02848 79.5253 1.99719 79.9186 1.99719ZM86.7717 6.63663C87.165 6.63663 87.5181 6.66345 87.831 6.71708C88.1439 6.77072 88.4076 6.87799 88.6221 7.03889C88.8367 7.1998 89.002 7.41881 89.1182 7.69592C89.2345 7.97304 89.2926 8.33507 89.2926 8.78203V19.6968L89.2025 19.7129C89.011 19.7469 88.7505 19.7906 88.421 19.8443C88.0366 19.9069 87.6478 19.9381 87.2544 19.9381C86.8611 19.9381 86.508 19.9113 86.1951 19.8577C85.8823 19.8041 85.6186 19.6968 85.404 19.5359C85.1895 19.375 85.0241 19.156 84.9079 18.8788C84.7917 18.6017 84.7336 18.2397 84.7336 17.7927V6.87799L84.8236 6.86184C85.0152 6.82791 85.2757 6.78412 85.6051 6.73049C85.9895 6.66792 86.3784 6.63663 86.7717 6.63663ZM108.121 1.99719C108.514 1.99719 108.867 2.02401 109.18 2.07764C109.493 2.13128 109.757 2.23855 109.971 2.39945C110.186 2.56036 110.351 2.77937 110.467 3.05648C110.584 3.3336 110.642 3.69564 110.642 4.14259V6.77072L110.735 6.73657C110.964 6.65541 111.287 6.564 111.701 6.46231C112.175 6.3461 112.698 6.288 113.27 6.288C115.04 6.288 116.421 6.73049 117.413 7.61547C118.405 8.50045 118.902 9.81898 118.902 11.5711V19.6968L118.819 19.7198C118.64 19.7657 118.386 19.8117 118.057 19.8577C117.672 19.9113 117.275 19.9381 116.863 19.9381C116.47 19.9381 116.117 19.9113 115.804 19.8577C115.491 19.8041 115.228 19.6968 115.013 19.5359C114.798 19.375 114.633 19.156 114.517 18.8788C114.401 18.6017 114.343 18.2397 114.343 17.7927V11.8392L114.339 11.674C114.313 11.0284 114.131 10.5695 113.793 10.2972C113.426 10.0022 112.975 9.85474 112.439 9.85474C112.081 9.85474 111.741 9.89943 111.419 9.98882C111.098 10.0782 110.838 10.1855 110.642 10.3106V19.6968L110.559 19.7198C110.38 19.7657 110.127 19.8117 109.797 19.8577C109.413 19.9113 109.015 19.9381 108.604 19.9381C108.21 19.9381 107.857 19.9113 107.544 19.8577C107.231 19.8041 106.968 19.6968 106.753 19.5359C106.539 19.375 106.373 19.156 106.257 18.8788C106.141 18.6017 106.083 18.2397 106.083 17.7927V2.23855L106.173 2.2224C106.364 2.18847 106.625 2.14469 106.954 2.09105C107.339 2.02848 107.728 1.99719 108.121 1.99719ZM76.0154 3.47216L76.0769 3.57607C76.1774 3.75858 76.2687 3.98765 76.3506 4.26327C76.449 4.59402 76.4981 4.93818 76.4981 5.29575C76.4981 5.99301 76.3506 6.48913 76.0557 6.78412C75.7607 7.07912 75.3629 7.22661 74.8623 7.22661H69.2306V10.257H75.1036L75.1733 10.3605C75.2863 10.5418 75.3837 10.7665 75.4657 11.0347C75.564 11.3565 75.6132 11.6962 75.6132 12.0538C75.6132 12.7332 75.4657 13.2203 75.1707 13.5153C74.8757 13.8103 74.4779 13.9578 73.9773 13.9578H69.2842V19.6163L69.1931 19.6393C68.9972 19.6853 68.7191 19.7313 68.359 19.7772C67.9389 19.8309 67.5232 19.8577 67.112 19.8577C66.7008 19.8577 66.3388 19.8264 66.0259 19.7638C65.713 19.7013 65.4493 19.5895 65.2348 19.4286C65.0202 19.2677 64.8593 19.0442 64.752 18.7582C64.6448 18.4721 64.5911 18.0967 64.5911 17.6318V5.96619L64.5958 5.77735C64.6299 5.09723 64.8519 4.55231 65.2616 4.14259C65.7085 3.69564 66.3164 3.47216 67.0852 3.47216H76.0154ZM12.9843 2.55122V5.57272H4.36314V9.5275H11.9111V12.514H4.36314V19.7236H0.793335V2.55122H12.9843ZM17.8547 7.00764V19.7236H14.4832V7.00764H17.8547ZM36.2284 2.58621V11.849L40.3698 7.06597H44.4879L40.0432 11.9307L44.6629 19.7236H40.6498L37.605 14.2872L36.2284 15.7222V19.7236H32.9619V2.58621H36.2284ZM48.9967 2.52788V19.7236H45.6719V2.52788H48.9967ZM119.15 3.36187C119.707 3.19428 120.658 3.157 121.772 3.64942C122.896 4.14651 123.597 4.99915 123.875 6.20733L129.909 6.72016C129.984 6.72449 130.058 6.73963 130.132 6.76557C130.243 6.80449 130.302 6.85923 130.352 6.90209C130.475 7.00718 130.515 7.0882 130.573 7.23329C130.677 7.49129 130.645 7.79494 130.51 8.00314C130.292 8.33882 129.951 8.55602 129.486 8.65472L124.615 9.69012L125.475 13.7355C125.574 14.1999 125.792 14.499 126.128 14.6328C126.464 14.7666 126.901 14.7766 127.436 14.6627C127.704 14.6058 127.976 14.5246 128.253 14.4192C128.529 14.3138 128.767 14.2026 128.966 14.0856C129.168 14.2479 129.353 14.4373 129.521 14.6537C129.688 14.8702 129.808 15.1481 129.88 15.4874C130.146 16.7419 128.172 17.927 126.878 18.1596C125.679 18.375 123.84 18.554 122.788 15.7995C121.737 13.045 120.086 8.4279 118.825 4.58015C118.716 4.2481 118.649 3.92197 118.766 3.65285C118.829 3.50739 118.875 3.4446 119.15 3.36187ZM98.0765 9.85474C97.2005 9.85474 96.5435 10.1006 96.1054 10.5922C95.6674 11.0839 95.4484 11.7856 95.4484 12.6974C95.4484 13.7343 95.6674 14.4808 96.1054 14.9367C96.5435 15.3926 97.1022 15.6205 97.7815 15.6205C98.5145 15.6205 99.0956 15.4507 99.5247 15.111V10.1765L99.4426 10.1336C99.3239 10.0764 99.168 10.0192 98.9749 9.96201C98.7336 9.89049 98.4341 9.85474 98.0765 9.85474ZM56.5736 9.41084C55.8036 9.41084 55.2067 9.65193 54.7828 10.1341C54.359 10.6163 54.0926 11.2696 53.9837 12.094H59.1518C59.0973 11.2152 58.831 10.5483 58.3527 10.0933C57.8743 9.63832 57.2813 9.41084 56.5736 9.41084ZM17.8547 2.42289V5.49105H14.4832V2.42289H17.8547ZM87.0131 0.656311C87.764 0.656311 88.3674 0.88873 88.8232 1.35357C89.2792 1.81841 89.5071 2.39051 89.5071 3.06989C89.5071 3.74927 89.2792 4.32138 88.8232 4.78622C88.3674 5.25105 87.764 5.48347 87.0131 5.48347C86.2622 5.48347 85.6588 5.25105 85.2029 4.78622C84.747 4.32138 84.519 3.74927 84.519 3.06989C84.519 2.39051 84.747 1.81841 85.2029 1.35357C85.6588 0.88873 86.2622 0.656311 87.0131 0.656311Z" fill="white"/>
</g>
<defs>
<clipPath id="clip0_1038_1489">
<rect width="130.072" height="24.6688" fill="white" transform="translate(0.793335 0.263611)"/>
</clipPath>
</defs>
</svg>
