<svg width="28" height="28" viewBox="0 0 28 28" fill="none" xmlns="http://www.w3.org/2000/svg">
<path d="M14.0606 13.9299C15.4554 13.9299 16.586 12.7995 16.586 11.4051C16.586 10.0107 15.4554 8.88025 14.0606 8.88025C12.6658 8.88025 11.5351 10.0107 11.5351 11.4051C11.5351 12.7995 12.6658 13.9299 14.0606 13.9299Z" fill="url(#paint0_linear_563_47595)"/>
<path fill-rule="evenodd" clip-rule="evenodd" d="M8.37825 3.62016C9.84277 2.57402 11.4451 2.05779 13.1767 1.90563C17.1901 1.55299 20.8177 3.61672 22.5762 7.25283C23.1642 8.46854 23.4139 9.4922 23.4655 10.9001C23.5634 13.565 22.7208 15.8131 20.8617 17.8468C19.3031 19.5517 16.5 20.747 14.0606 20.747C12.7201 20.747 11.0324 20.3315 9.74833 19.6853C9.43694 19.5286 9.16234 19.4004 9.13801 19.4004C9.11368 19.4004 9.09381 20.0363 9.09381 20.8135C9.09381 22.4221 9.00568 22.8923 8.53737 23.7834C8.16663 24.4887 7.38255 25.2599 6.67138 25.6189C6.13951 25.8873 5.2838 26.1299 4.86086 26.1321L4.6665 26.1334L4.66658 17.8903V9.65295C4.66658 9.65295 4.67422 9.09065 4.96886 8.20696C5.2635 7.32326 5.7265 6.31333 6.31578 5.64003C6.76868 4.99999 7.69612 4.10743 8.37825 3.62016ZM18.1751 8.62146C17.5122 7.62642 16.3693 6.84498 15.1037 6.52138C13.9628 6.22968 12.9967 6.33513 11.8803 6.87318C10.5338 7.52223 9.53628 8.80704 9.22329 10.2954C9.0625 11.06 9.06182 11.5335 9.22042 12.2888C9.60127 14.1023 11.0493 15.6181 12.8366 16.0742C13.4812 16.2388 14.6447 16.2382 15.2784 16.0733C17.094 15.6005 18.5175 14.1132 18.9007 12.2888C19.0566 11.5465 19.0567 11.0964 18.9012 10.3531C18.7506 9.63351 18.5827 9.23323 18.1751 8.62146Z" fill="url(#paint1_linear_563_47595)"/>
<defs>
<linearGradient id="paint0_linear_563_47595" x1="23.4732" y1="26.1334" x2="0.379717" y2="20.9442" gradientUnits="userSpaceOnUse">
<stop stop-color="#246BFD"/>
<stop offset="1" stop-color="#5089FD"/>
</linearGradient>
<linearGradient id="paint1_linear_563_47595" x1="23.4732" y1="26.1334" x2="0.379717" y2="20.9442" gradientUnits="userSpaceOnUse">
<stop stop-color="#246BFD"/>
<stop offset="1" stop-color="#5089FD"/>
</linearGradient>
</defs>
</svg>
