<svg width="32" height="32" viewBox="0 0 32 32" fill="none" xmlns="http://www.w3.org/2000/svg">
<path d="M16.0696 15.9199C17.6636 15.9199 18.9558 14.628 18.9558 13.0343C18.9558 11.4407 17.6636 10.1488 16.0696 10.1488C14.4755 10.1488 13.1833 11.4407 13.1833 13.0343C13.1833 14.628 14.4755 15.9199 16.0696 15.9199Z" fill="url(#paint0_linear_1127_21048)"/>
<path fill-rule="evenodd" clip-rule="evenodd" d="M9.5755 4.13726C11.2492 2.94167 13.0805 2.3517 15.0594 2.17779C19.6461 1.77478 23.7921 4.13333 25.8018 8.28888C26.4738 9.67827 26.759 10.8482 26.8181 12.4572C26.93 15.5028 25.9669 18.0721 23.8423 20.3963C22.0611 22.3447 18.8575 23.7108 16.0696 23.7108C14.5377 23.7108 12.6088 23.236 11.1413 22.4975C10.7854 22.3184 10.4716 22.1719 10.4438 22.1719C10.416 22.1719 10.3933 22.8985 10.3933 23.7868C10.3933 25.6252 10.2925 26.1626 9.75734 27.181C9.33364 27.987 8.43755 28.8684 7.62478 29.2787C7.01693 29.5854 6.03897 29.8627 5.55562 29.8652L5.3335 29.8666L5.33359 20.446V11.0319C5.33359 11.0319 5.34232 10.3893 5.67905 9.37931C6.01578 8.36938 6.54493 7.21516 7.21839 6.44568C7.73599 5.7142 8.79591 4.69413 9.5755 4.13726ZM20.7719 9.85303C20.0143 8.71584 18.7081 7.82277 17.2617 7.45294C15.9579 7.11956 14.8537 7.24008 13.5779 7.85499C12.039 8.59676 10.8989 10.0651 10.5412 11.7661C10.3575 12.6399 10.3567 13.1811 10.538 14.0443C10.9732 16.1169 12.6281 17.8491 14.6707 18.3705C15.4074 18.5585 16.7372 18.5579 17.4614 18.3694C19.5364 17.829 21.1633 16.1293 21.6012 14.0443C21.7793 13.1959 21.7795 12.6815 21.6017 11.832C21.4296 11.0097 21.2377 10.5522 20.7719 9.85303Z" fill="url(#paint1_linear_1127_21048)"/>
<defs>
<linearGradient id="paint0_linear_1127_21048" x1="26.8268" y1="29.8666" x2="0.434311" y2="23.9361" gradientUnits="userSpaceOnUse">
<stop stop-color="#246BFD"/>
<stop offset="1" stop-color="#5089FD"/>
</linearGradient>
<linearGradient id="paint1_linear_1127_21048" x1="26.8268" y1="29.8666" x2="0.434311" y2="23.9361" gradientUnits="userSpaceOnUse">
<stop stop-color="#246BFD"/>
<stop offset="1" stop-color="#5089FD"/>
</linearGradient>
</defs>
</svg>
