<svg width="30" height="38" viewBox="0 0 30 38" fill="none" xmlns="http://www.w3.org/2000/svg">
<path d="M14.7105 18.8902C16.8946 18.8902 18.6652 17.1201 18.6652 14.9365C18.6652 12.7529 16.8946 10.9828 14.7105 10.9828C12.5264 10.9828 10.7558 12.7529 10.7558 14.9365C10.7558 17.1201 12.5264 18.8902 14.7105 18.8902Z" fill="white"/>
<path fill-rule="evenodd" clip-rule="evenodd" d="M5.81236 2.7458C8.10569 1.10762 10.6149 0.299243 13.3264 0.0609639C19.6111 -0.491242 25.2918 2.74042 28.0455 8.43433C28.9662 10.3381 29.3571 11.941 29.4381 14.1458C29.5914 18.3188 28.2718 21.8392 25.3606 25.0238C22.92 27.6935 18.5305 29.5654 14.7105 29.5654C12.6115 29.5654 9.96852 28.9147 7.95781 27.9028C7.47019 27.6574 7.04018 27.4567 7.00208 27.4567C6.96398 27.4567 6.93287 28.4524 6.93287 29.6695C6.93287 32.1884 6.79486 32.9247 6.06152 34.3201C5.48096 35.4245 4.25315 36.6323 3.1395 37.1944C2.30663 37.6147 0.96664 37.9946 0.304355 37.998L0 38L0.000123246 25.092V12.1927C0.000123246 12.1927 0.0120873 11.3122 0.473472 9.92843C0.934857 8.54462 1.65989 6.96313 2.58266 5.9088C3.29188 4.90652 4.74417 3.50883 5.81236 2.7458ZM21.1535 10.5775C20.1156 9.01935 18.3258 7.79566 16.3439 7.28893C14.5575 6.83214 13.0445 6.99727 11.2964 7.83981C9.18786 8.85619 7.62574 10.8681 7.13562 13.1988C6.88384 14.396 6.88278 15.1376 7.13114 16.3203C7.72751 19.1602 9.99502 21.5337 12.7938 22.248C13.8032 22.5057 15.6252 22.5049 16.6176 22.2466C19.4607 21.5062 21.6898 19.1772 22.2899 16.3203C22.5339 15.1579 22.5341 14.4531 22.2905 13.2891C22.0547 12.1623 21.7918 11.5355 21.1535 10.5775Z" fill="white"/>
</svg>
