<svg width="42" height="32" viewBox="0 0 42 32" fill="none" xmlns="http://www.w3.org/2000/svg">
<g clip-path="url(#clip0_1233_24025)">
<path d="M7.4836 31.8409V29.723C7.4836 28.9109 6.98929 28.3816 6.14202 28.3816C5.71846 28.3816 5.25952 28.5227 4.94178 28.9817C4.69478 28.5933 4.34182 28.3816 3.81229 28.3816C3.45916 28.3816 3.10636 28.4874 2.82383 28.8757V28.4521H2.08252V31.8409H2.82383V29.97C2.82383 29.37 3.14157 29.0875 3.63589 29.0875C4.12988 29.0875 4.37719 29.4052 4.37719 29.97V31.8409H5.1185V29.97C5.1185 29.37 5.4713 29.0875 5.93024 29.0875C6.42455 29.0875 6.67155 29.4052 6.67155 29.97V31.8409H7.4836ZM18.4619 28.4521H17.2618V27.4285H16.5205V28.4521H15.8498V29.1227H16.5203V30.6761C16.5203 31.4527 16.8381 31.9115 17.6853 31.9115C18.0031 31.9115 18.3559 31.8057 18.6032 31.6645L18.3913 31.029C18.1795 31.1702 17.9325 31.2056 17.7559 31.2056C17.403 31.2056 17.2618 30.9938 17.2618 30.6407V29.1227H18.4619V28.4521ZM24.7454 28.3814C24.3219 28.3814 24.0395 28.5933 23.8629 28.8757V28.4521H23.1216V31.8409H23.8629V29.9348C23.8629 29.37 24.1099 29.0523 24.5689 29.0523C24.7101 29.0523 24.8866 29.0876 25.0278 29.1229L25.2396 28.4169C25.0984 28.3816 24.8866 28.3816 24.7454 28.3816V28.3814ZM15.2496 28.7345C14.8965 28.4874 14.4024 28.3816 13.8728 28.3816C13.0257 28.3816 12.461 28.8051 12.461 29.4758C12.461 30.0407 12.8845 30.3583 13.6258 30.4643L13.9788 30.4997C14.3671 30.5701 14.5789 30.6761 14.5789 30.8526C14.5789 31.0996 14.2965 31.2762 13.8022 31.2762C13.3081 31.2762 12.9197 31.0996 12.6726 30.9232L12.3196 31.488C12.708 31.7703 13.2375 31.9115 13.7669 31.9115C14.7553 31.9115 15.3202 31.4527 15.3202 30.8173C15.3202 30.2171 14.8613 29.8994 14.1552 29.7936L13.8022 29.7582C13.4845 29.7228 13.2375 29.6524 13.2375 29.4406C13.2375 29.1935 13.4845 29.0523 13.8728 29.0523C14.2965 29.0523 14.7201 29.2287 14.9319 29.3346L15.2496 28.7345ZM34.9473 28.3816C34.5236 28.3816 34.2412 28.5933 34.0647 28.8757V28.4521H33.3234V31.8409H34.0647V29.9348C34.0647 29.37 34.3118 29.0523 34.7706 29.0523C34.9119 29.0523 35.0885 29.0876 35.2297 29.1229L35.4415 28.4169C35.3003 28.3816 35.0885 28.3816 34.9473 28.3816ZM25.4867 30.1465C25.4867 31.1702 26.1927 31.9115 27.2871 31.9115C27.7813 31.9115 28.1342 31.8057 28.4872 31.5233L28.1342 30.9232C27.8518 31.135 27.5695 31.2408 27.2517 31.2408C26.6516 31.2408 26.228 30.8173 26.228 30.1465C26.228 29.5112 26.6516 29.0875 27.2517 29.0523C27.5695 29.0523 27.8518 29.1581 28.1342 29.37L28.4872 28.7699C28.1342 28.4874 27.7813 28.3816 27.2871 28.3816C26.1927 28.3816 25.4867 29.1229 25.4867 30.1465ZM32.3351 30.1465V28.4521H31.5938V28.8757C31.3466 28.5581 30.9936 28.3816 30.5347 28.3816C29.5816 28.3816 28.8403 29.1229 28.8403 30.1465C28.8403 31.1702 29.5816 31.9115 30.5347 31.9115C31.0289 31.9115 31.382 31.7351 31.5938 31.4174V31.8409H32.3351V30.1465ZM29.6168 30.1465C29.6168 29.5464 30.0052 29.0523 30.6405 29.0523C31.2406 29.0523 31.6643 29.5112 31.6643 30.1465C31.6643 30.7467 31.2406 31.2408 30.6405 31.2408C30.0052 31.2054 29.6168 30.7467 29.6168 30.1465ZM20.7565 28.3816C19.7681 28.3816 19.062 29.0875 19.062 30.1465C19.062 31.2056 19.7679 31.9115 20.7917 31.9115C21.2859 31.9115 21.7802 31.7703 22.1686 31.4527L21.8154 30.9232C21.5331 31.135 21.1801 31.2762 20.8271 31.2762C20.3682 31.2762 19.9093 31.0644 19.8033 30.4641H22.3097V30.1819C22.3451 29.0875 21.7096 28.3816 20.7564 28.3816H20.7565ZM20.7565 29.0169C21.2153 29.0169 21.5332 29.2994 21.6036 29.8289H19.8387C19.9093 29.37 20.227 29.0169 20.7565 29.0169ZM39.148 30.1465V27.1107H38.4067V28.8757C38.1595 28.5581 37.8066 28.3816 37.3476 28.3816C36.3946 28.3816 35.6533 29.1229 35.6533 30.1465C35.6533 31.1702 36.3946 31.9115 37.3476 31.9115C37.842 31.9115 38.1949 31.7351 38.4067 31.4174V31.8409H39.148V30.1465ZM36.4299 30.1465C36.4299 29.5464 36.8181 29.0523 37.4536 29.0523C38.0537 29.0523 38.4773 29.5112 38.4773 30.1465C38.4773 30.7467 38.0537 31.2408 37.4536 31.2408C36.8181 31.2054 36.4299 30.7467 36.4299 30.1465ZM11.6489 30.1465V28.4521H10.9076V28.8757C10.6604 28.5581 10.3075 28.3816 9.84855 28.3816C8.89546 28.3816 8.15416 29.1229 8.15416 30.1465C8.15416 31.1702 8.89546 31.9115 9.84855 31.9115C10.3429 31.9115 10.6958 31.7351 10.9076 31.4174V31.8409H11.6489V30.1465ZM8.89546 30.1465C8.89546 29.5464 9.28381 29.0523 9.91914 29.0523C10.5193 29.0523 10.943 29.5112 10.943 30.1465C10.943 30.7467 10.5193 31.2408 9.91914 31.2408C9.28381 31.2054 8.89546 30.7467 8.89546 30.1465Z" fill="white"/>
<path d="M15.0029 2.71802H26.1225V22.6981H15.0029V2.71802Z" fill="#FF5F00"/>
<path d="M15.7088 12.7082C15.7088 8.64868 17.615 5.04796 20.5448 2.71807C18.3916 1.02368 15.6736 0 12.7083 0C5.6833 0 0 5.6833 0 12.7082C0 19.7329 5.6833 25.4164 12.7082 25.4164C15.6734 25.4164 18.3915 24.3927 20.5448 22.6981C17.615 20.4036 15.7088 16.7677 15.7088 12.7082Z" fill="#EB001B"/>
<path d="M41.1249 12.7082C41.1249 19.7329 35.4416 25.4164 28.4167 25.4164C25.4515 25.4164 22.7334 24.3927 20.5801 22.6981C23.5453 20.3684 25.4163 16.7677 25.4163 12.7082C25.4163 8.64868 23.5099 5.04796 20.5801 2.71807C22.7332 1.02368 25.4515 0 28.4167 0C35.4416 0 41.125 5.71867 41.125 12.7082H41.1249Z" fill="#F79E1B"/>
</g>
<defs>
<clipPath id="clip0_1233_24025">
<rect width="41.1658" height="32" fill="white"/>
</clipPath>
</defs>
</svg>
