<svg width="15" height="19" viewBox="0 0 15 19" fill="none" xmlns="http://www.w3.org/2000/svg">
<path d="M7.33169 9.41554C8.35096 9.41554 9.17723 8.58947 9.17723 7.57047C9.17723 6.55146 8.35096 5.72539 7.33169 5.72539C6.31243 5.72539 5.48615 6.55146 5.48615 7.57047C5.48615 8.58947 6.31243 9.41554 7.33169 9.41554Z" fill="white"/>
<path fill-rule="evenodd" clip-rule="evenodd" d="M3.17923 1.88147C4.24945 1.11699 5.4204 0.739744 6.68576 0.628547C9.61863 0.370852 12.2696 1.87896 13.5547 4.53612C13.9844 5.42452 14.1668 6.17258 14.2046 7.20146C14.2761 9.14888 13.6603 10.7917 12.3017 12.2779C11.1628 13.5237 9.11437 14.3973 7.3317 14.3973C6.35215 14.3973 5.11877 14.0936 4.18044 13.6214C3.95289 13.5069 3.75221 13.4132 3.73443 13.4132C3.71666 13.4132 3.70214 13.8779 3.70214 14.4458C3.70214 15.6213 3.63773 15.965 3.29551 16.6162C3.02458 17.1315 2.4516 17.6952 1.9319 17.9575C1.54323 18.1536 0.917896 18.3309 0.608829 18.3325L0.466797 18.3334L0.466854 12.3097V6.29005C0.466854 6.29005 0.472438 5.87914 0.687751 5.23337C0.903064 4.58759 1.24141 3.84956 1.67204 3.35754C2.00301 2.88981 2.68074 2.23755 3.17923 1.88147ZM10.3385 5.53627C9.85406 4.80913 9.01883 4.23807 8.09397 4.0016C7.26028 3.78843 6.55424 3.86549 5.73845 4.25868C4.75447 4.73299 4.02548 5.67189 3.79675 6.75956C3.67925 7.31825 3.67876 7.66433 3.79466 8.21625C4.07297 9.54151 5.13114 10.6492 6.43723 10.9825C6.90827 11.1028 7.75857 11.1024 8.22168 10.9818C9.54844 10.6363 10.5887 9.54944 10.8687 8.21625C10.9826 7.6738 10.9827 7.34488 10.869 6.80169C10.759 6.27584 10.6363 5.98333 10.3385 5.53627Z" fill="white"/>
</svg>
