<svg width="19" height="19" viewBox="0 0 19 19" fill="none" xmlns="http://www.w3.org/2000/svg">
<path d="M16.7854 14.679C16.3048 14.2506 15.8841 13.7594 15.5345 13.2188C15.1529 12.4725 14.9241 11.6575 14.8617 10.8217V8.35978C14.865 7.0469 14.3888 5.77801 13.5225 4.79151C12.6562 3.805 11.4595 3.16879 10.1572 3.00241V2.35952C10.1572 2.18307 10.0871 2.01385 9.96233 1.88908C9.83756 1.76431 9.66833 1.69421 9.49188 1.69421C9.31543 1.69421 9.14621 1.76431 9.02144 1.88908C8.89667 2.01385 8.82657 2.18307 8.82657 2.35952V3.01238C7.53595 3.19075 6.3537 3.83081 5.49879 4.814C4.64388 5.79719 4.17425 7.05689 4.17688 8.35978V10.8217C4.11446 11.6575 3.88572 12.4725 3.50409 13.2188C3.16066 13.7582 2.74668 14.2493 2.27314 14.679C2.21998 14.7257 2.17738 14.7832 2.14816 14.8476C2.11895 14.9121 2.10379 14.982 2.1037 15.0527V15.7305C2.1037 15.8627 2.1562 15.9894 2.24966 16.0829C2.34313 16.1764 2.46989 16.2289 2.60206 16.2289H16.4565C16.5886 16.2289 16.7154 16.1764 16.8089 16.0829C16.9023 15.9894 16.9548 15.8627 16.9548 15.7305V15.0527C16.9547 14.982 16.9396 14.9121 16.9104 14.8476C16.8811 14.7832 16.8385 14.7257 16.7854 14.679ZM3.14029 15.2322C3.60397 14.7842 4.01222 14.2823 4.35628 13.7371C4.83701 12.8358 5.1175 11.8413 5.17858 10.8217V8.35978C5.15881 7.77572 5.25678 7.19365 5.46665 6.64824C5.67652 6.10283 5.994 5.60523 6.40018 5.18507C6.80636 4.76492 7.29294 4.43079 7.83094 4.20259C8.36894 3.9744 8.94736 3.8568 9.53175 3.8568C10.1161 3.8568 10.6946 3.9744 11.2326 4.20259C11.7706 4.43079 12.2571 4.76492 12.6633 5.18507C13.0695 5.60523 13.387 6.10283 13.5968 6.64824C13.8067 7.19365 13.9047 7.77572 13.8849 8.35978V10.8217C13.946 11.8413 14.2265 12.8358 14.7072 13.7371C15.0513 14.2823 15.4595 14.7842 15.9232 15.2322H3.14029Z" fill="#424242"/>
<path d="M9.55429 17.8638C9.86823 17.8566 10.1695 17.7385 10.4048 17.5306C10.6401 17.3227 10.7943 17.0382 10.8401 16.7275H8.21869C8.26577 17.0466 8.42716 17.3378 8.67285 17.5468C8.91853 17.7558 9.23177 17.8685 9.55429 17.8638Z" fill="#424242"/>
<circle cx="14.3808" cy="4.87421" r="2.61639" fill="#F99A0E" stroke="white" stroke-width="0.74754"/>
</svg>
