<svg width="20" height="21" viewBox="0 0 20 21" fill="none" xmlns="http://www.w3.org/2000/svg">
<path fill-rule="evenodd" clip-rule="evenodd" d="M13.3333 3H6.66667C4.36548 3 2.5 4.86548 2.5 7.16667V13.8333C2.5 16.1345 4.36548 18 6.66667 18H13.3333C15.6345 18 17.5 16.1345 17.5 13.8333V7.16667C17.5 4.86548 15.6345 3 13.3333 3ZM6.66667 0.5C2.98477 0.5 0 3.48477 0 7.16667V13.8333C0 17.5152 2.98477 20.5 6.66667 20.5H13.3333C17.0152 20.5 20 17.5152 20 13.8333V7.16667C20 3.48477 17.0152 0.5 13.3333 0.5H6.66667Z" fill="#1C56C6"/>
</svg>
