<svg width="98" height="24" viewBox="0 0 98 24" fill="none" xmlns="http://www.w3.org/2000/svg">
<path d="M12.0065 1.31226C6.06133 1.31226 1.24194 6.13164 1.24194 12.0768C1.24194 18.022 6.06133 22.8414 12.0065 22.8414C17.9517 22.8414 22.7711 18.022 22.7711 12.0768C22.7711 6.13164 17.9517 1.31226 12.0065 1.31226ZM14.5564 8.75102H12.9383C12.7466 8.75102 12.5335 9.00332 12.5335 9.33859V10.507H14.5575L14.2514 12.1733H12.5335V17.1754H10.6239V12.1733H8.89152V10.507H10.6239V9.52697C10.6239 8.12085 11.5995 6.97823 12.9383 6.97823H14.5564V8.75102Z" fill="white"/>
<g clip-path="url(#clip0_1038_1495)">
<path d="M86.7605 1.31219C80.8153 1.31219 75.9959 6.13158 75.9959 12.0768C75.9959 18.0219 80.8153 22.8413 86.7605 22.8413C92.7057 22.8413 97.5251 18.0219 97.5251 12.0768C97.5251 6.13158 92.7057 1.31219 86.7605 1.31219ZM91.1392 10.1302C91.1437 10.2221 91.1448 10.3141 91.1448 10.4038C91.1448 13.207 89.0132 16.4375 85.1133 16.4375C83.9609 16.4395 82.8325 16.1085 81.8637 15.4844C82.0286 15.5046 82.1979 15.5125 82.3694 15.5125C83.3629 15.5125 84.2768 15.1749 85.0023 14.6053C84.5602 14.5966 84.1318 14.4502 83.7768 14.1865C83.4218 13.9228 83.158 13.5549 83.022 13.1342C83.3395 13.1945 83.6666 13.1819 83.9785 13.0972C83.4986 13.0001 83.0671 12.7401 82.7571 12.3612C82.447 11.9823 82.2776 11.5078 82.2775 11.0182V10.9925C82.5634 11.1506 82.8908 11.247 83.2384 11.2582C82.7886 10.9587 82.4701 10.4987 82.3482 9.97222C82.2262 9.44572 82.3101 8.89253 82.5825 8.42578C83.1151 9.08063 83.7792 9.61633 84.532 9.99821C85.2847 10.3801 86.1093 10.5996 86.9522 10.6426C86.8451 10.1877 86.8912 9.71014 87.0834 9.28415C87.2757 8.85816 87.6033 8.50763 88.0153 8.28704C88.4273 8.06644 88.9007 7.98816 89.3618 8.06435C89.8229 8.14054 90.2459 8.36694 90.5651 8.70835C91.0396 8.61447 91.4946 8.44042 91.9107 8.19367C91.7525 8.68495 91.4214 9.10213 90.9789 9.36768C91.3992 9.31706 91.8096 9.20406 92.1966 9.03241C91.9123 9.45839 91.5542 9.83015 91.1392 10.1302Z" fill="white"/>
</g>
<g clip-path="url(#clip1_1038_1495)">
<path d="M52.7474 12.0768C52.7474 12.9689 52.393 13.8246 51.7621 14.4554C51.1313 15.0863 50.2756 15.4407 49.3835 15.4407C48.4913 15.4407 47.6357 15.0863 47.0048 14.4554C46.374 13.8246 46.0195 12.9689 46.0195 12.0768C46.0195 11.885 46.0397 11.6978 46.0745 11.5161H44.8982V15.998C44.8982 16.3097 45.1505 16.562 45.4622 16.562H53.3058C53.4552 16.5617 53.5984 16.5022 53.7039 16.3964C53.8094 16.2907 53.8687 16.1474 53.8687 15.998V11.5161H52.6925C52.7272 11.6978 52.7474 11.885 52.7474 12.0768ZM49.3835 14.3194C49.678 14.3193 49.9697 14.2612 50.2419 14.1484C50.514 14.0356 50.7612 13.8703 50.9695 13.662C51.1777 13.4536 51.3429 13.2063 51.4556 12.9341C51.5682 12.6619 51.6262 12.3702 51.6261 12.0756C51.626 11.7811 51.5679 11.4894 51.4551 11.2173C51.3423 10.9451 51.177 10.6979 50.9687 10.4896C50.7603 10.2814 50.513 10.1162 50.2408 10.0036C49.9686 9.8909 49.6769 9.83295 49.3823 9.83302C48.7874 9.83317 48.2169 10.0697 47.7963 10.4904C47.3758 10.9112 47.1396 11.4818 47.1397 12.0768C47.1399 12.6717 47.3764 13.2422 47.7971 13.6628C48.2179 14.0833 48.7885 14.3195 49.3835 14.3194ZM52.0746 9.72202H53.4191C53.5084 9.72202 53.5941 9.68661 53.6573 9.62356C53.7206 9.5605 53.7563 9.47494 53.7566 9.38562V8.04117C53.7566 7.95166 53.721 7.86581 53.6577 7.80251C53.5944 7.73922 53.5086 7.70366 53.4191 7.70366H52.0746C51.9851 7.70366 51.8992 7.73922 51.836 7.80251C51.7727 7.86581 51.7371 7.95166 51.7371 8.04117V9.38562C51.7382 9.57064 51.8896 9.72202 52.0746 9.72202ZM49.3835 1.31219C46.5285 1.31219 43.7905 2.44632 41.7718 4.46506C39.753 6.48381 38.6189 9.22182 38.6189 12.0768C38.6189 14.9317 39.753 17.6697 41.7718 19.6885C43.7905 21.7072 46.5285 22.8413 49.3835 22.8413C50.7971 22.8413 52.1969 22.5629 53.5029 22.0219C54.8089 21.481 55.9956 20.688 56.9952 19.6885C57.9948 18.6889 58.7877 17.5022 59.3286 16.1962C59.8696 14.8902 60.148 13.4904 60.148 12.0768C60.148 10.6631 59.8696 9.26336 59.3286 7.95734C58.7877 6.65132 57.9948 5.46465 56.9952 4.46506C55.9956 3.46548 54.8089 2.67257 53.5029 2.1316C52.1969 1.59063 50.7971 1.31219 49.3835 1.31219ZM54.99 16.4375C54.99 17.1227 54.4294 17.6833 53.7442 17.6833H45.0227C44.3376 17.6833 43.7769 17.1227 43.7769 16.4375V7.71599C43.7769 7.03087 44.3376 6.47022 45.0227 6.47022H53.7442C54.4294 6.47022 54.99 7.03087 54.99 7.71599V16.4375Z" fill="white"/>
</g>
<defs>
<clipPath id="clip0_1038_1495">
<rect width="22.4262" height="22.4262" fill="white" transform="translate(75.5472 0.863464)"/>
</clipPath>
<clipPath id="clip1_1038_1495">
<rect width="22.4262" height="22.4262" fill="white" transform="translate(38.1703 0.863464)"/>
</clipPath>
</defs>
</svg>
