<svg width="20" height="20" viewBox="0 0 20 20" fill="none" xmlns="http://www.w3.org/2000/svg">
<path d="M0 6.66667C0 2.98477 2.98477 0 6.66667 0H13.3333C17.0152 0 20 2.98477 20 6.66667V13.3333C20 17.0152 17.0152 20 13.3333 20H6.66667C2.98477 20 0 17.0152 0 13.3333V6.66667Z" fill="#1C56C6"/>
<path fill-rule="evenodd" clip-rule="evenodd" d="M15.0504 6.61612C15.5385 7.10427 15.5385 7.89573 15.0504 8.38388L10.0504 13.3839C9.56223 13.872 8.77078 13.872 8.28262 13.3839L5.78262 10.8839C5.29447 10.3957 5.29447 9.60427 5.78262 9.11612C6.27078 8.62796 7.06223 8.62796 7.55039 9.11612L9.1665 10.7322L13.2826 6.61612C13.7708 6.12796 14.5622 6.12796 15.0504 6.61612Z" fill="white"/>
</svg>
