<svg width="20" height="20" viewBox="0 0 20 20" fill="none" xmlns="http://www.w3.org/2000/svg">
<path fill-rule="evenodd" clip-rule="evenodd" d="M10 17.5C14.1421 17.5 17.5 14.1421 17.5 10C17.5 5.85786 14.1421 2.5 10 2.5C5.85786 2.5 2.5 5.85786 2.5 10C2.5 14.1421 5.85786 17.5 10 17.5ZM10 20C15.5228 20 20 15.5228 20 10C20 4.47715 15.5228 0 10 0C4.47715 0 0 4.47715 0 10C0 15.5228 4.47715 20 10 20Z" fill="#1C56C6"/>
<path d="M15.8332 10.0001C15.8332 13.2217 13.2215 15.8334 9.99984 15.8334C6.77818 15.8334 4.1665 13.2217 4.1665 10.0001C4.1665 6.77842 6.77818 4.16675 9.99984 4.16675C13.2215 4.16675 15.8332 6.77842 15.8332 10.0001Z" fill="#1C56C6"/>
</svg>
