<svg width="60" height="61" viewBox="0 0 60 61" fill="none" xmlns="http://www.w3.org/2000/svg">
<path d="M30.1302 30.3498C33.119 30.3498 35.5419 27.9275 35.5419 24.9394C35.5419 21.9514 33.119 19.529 30.1302 19.529C27.1413 19.529 24.7184 21.9514 24.7184 24.9394C24.7184 27.9275 27.1413 30.3498 30.1302 30.3498Z" fill="url(#paint0_linear_1844_27249)"/>
<path fill-rule="evenodd" clip-rule="evenodd" d="M17.9538 8.25741C21.092 6.01569 24.5256 4.90949 28.2361 4.58342C36.8362 3.82777 44.6098 8.25005 48.378 16.0417C49.638 18.6468 50.1729 20.8404 50.2836 23.8574C50.4934 29.5678 48.6877 34.3852 44.704 38.7431C41.3642 42.3964 35.3575 44.9579 30.1302 44.9579C27.2578 44.9579 23.6411 44.0675 20.8896 42.6828C20.2224 42.347 19.6339 42.0723 19.5818 42.0723C19.5297 42.0723 19.4871 43.4348 19.4871 45.1003C19.4871 48.5473 19.2982 49.5549 18.2947 51.4644C17.5003 52.9757 15.8201 54.6284 14.2962 55.3975C13.1564 55.9727 11.3228 56.4926 10.4165 56.4973L10 56.5L10.0002 38.8364V21.1848C10.0002 21.1848 10.0165 19.9799 10.6479 18.0863C11.2793 16.1926 12.2714 14.0285 13.5342 12.5857C14.5047 11.2142 16.492 9.30156 17.9538 8.25741ZM38.947 18.9745C37.5266 16.8423 35.0774 15.1678 32.3654 14.4743C29.9207 13.8492 27.8504 14.0752 25.4582 15.2282C22.5729 16.619 20.4352 19.3722 19.7645 22.5616C19.42 24.1998 19.4185 25.2147 19.7584 26.8331C20.5745 30.7192 23.6774 33.9672 27.5073 34.9447C28.8885 35.2973 31.3819 35.2962 32.7399 34.9427C36.6304 33.9295 39.6808 30.7424 40.5019 26.8331C40.8358 25.2424 40.8362 24.2779 40.5028 22.6851C40.1801 21.1432 39.8204 20.2854 38.947 18.9745Z" fill="url(#paint1_linear_1844_27249)"/>
<defs>
<linearGradient id="paint0_linear_1844_27249" x1="50.3" y1="56.5" x2="0.814027" y2="45.3803" gradientUnits="userSpaceOnUse">
<stop stop-color="#246BFD"/>
<stop offset="1" stop-color="#5089FD"/>
</linearGradient>
<linearGradient id="paint1_linear_1844_27249" x1="50.3" y1="56.5" x2="0.814027" y2="45.3803" gradientUnits="userSpaceOnUse">
<stop stop-color="#246BFD"/>
<stop offset="1" stop-color="#5089FD"/>
</linearGradient>
</defs>
</svg>
