<svg width="60" height="60" viewBox="0 0 60 60" fill="none" xmlns="http://www.w3.org/2000/svg">
<path d="M30.1302 29.8498C33.119 29.8498 35.5419 27.4275 35.5419 24.4394C35.5419 21.4514 33.119 19.029 30.1302 19.029C27.1413 19.029 24.7184 21.4514 24.7184 24.4394C24.7184 27.4275 27.1413 29.8498 30.1302 29.8498Z" fill="url(#paint0_linear_388_19222)"/>
<path fill-rule="evenodd" clip-rule="evenodd" d="M17.9538 7.75741C21.092 5.51569 24.5256 4.40949 28.2361 4.08342C36.8362 3.32777 44.6098 7.75005 48.378 15.5417C49.638 18.1468 50.1729 20.3404 50.2836 23.3574C50.4934 29.0678 48.6877 33.8852 44.704 38.2431C41.3642 41.8964 35.3575 44.4579 30.1302 44.4579C27.2578 44.4579 23.6411 43.5675 20.8896 42.1828C20.2224 41.847 19.6339 41.5723 19.5818 41.5723C19.5297 41.5723 19.4871 42.9348 19.4871 44.6003C19.4871 48.0473 19.2982 49.0549 18.2947 50.9644C17.5003 52.4757 15.8201 54.1284 14.2962 54.8975C13.1564 55.4727 11.3228 55.9926 10.4165 55.9973L10 56L10.0002 38.3364V20.6848C10.0002 20.6848 10.0165 19.4799 10.6479 17.5863C11.2793 15.6926 12.2714 13.5285 13.5342 12.0857C14.5047 10.7142 16.492 8.80156 17.9538 7.75741ZM38.947 18.4745C37.5266 16.3423 35.0774 14.6678 32.3654 13.9743C29.9207 13.3492 27.8504 13.5752 25.4582 14.7282C22.5729 16.119 20.4352 18.8722 19.7645 22.0616C19.42 23.6998 19.4185 24.7147 19.7584 26.3331C20.5745 30.2192 23.6774 33.4672 27.5073 34.4447C28.8885 34.7973 31.3819 34.7962 32.7399 34.4427C36.6304 33.4295 39.6808 30.2424 40.5019 26.3331C40.8358 24.7424 40.8362 23.7779 40.5028 22.1851C40.1801 20.6432 39.8204 19.7854 38.947 18.4745Z" fill="url(#paint1_linear_388_19222)"/>
<defs>
<linearGradient id="paint0_linear_388_19222" x1="50.3" y1="56" x2="0.814027" y2="44.8803" gradientUnits="userSpaceOnUse">
<stop stop-color="#246BFD"/>
<stop offset="1" stop-color="#5089FD"/>
</linearGradient>
<linearGradient id="paint1_linear_388_19222" x1="50.3" y1="56" x2="0.814027" y2="44.8803" gradientUnits="userSpaceOnUse">
<stop stop-color="#246BFD"/>
<stop offset="1" stop-color="#5089FD"/>
</linearGradient>
</defs>
</svg>
