<svg width="128" height="270" viewBox="0 0 128 270" fill="none" xmlns="http://www.w3.org/2000/svg">
<path d="M67.4577 0.454696L1.15264 141.876L0.939453 141.421L67.2445 0L67.4577 0.454696Z" fill="#E55E75"/>
<path d="M69.3326 4.4547L3.02757 145.876L2.81439 145.421L69.1194 4L69.3326 4.4547Z" fill="#E55E75"/>
<path d="M4.90301 149.876L71.208 8.4547L70.9949 8L4.68983 149.421L4.90301 149.876Z" fill="#E55E75"/>
<path d="M73.0835 12.4547L6.77845 153.876L6.56527 153.421L72.8703 12L73.0835 12.4547Z" fill="#E55E75"/>
<path d="M8.65389 157.876L74.9589 16.4547L74.7457 16L8.44071 157.421L8.65389 157.876Z" fill="#E55E75"/>
<path d="M76.8344 20.4547L10.5293 161.876L10.3161 161.421L76.6212 20L76.8344 20.4547Z" fill="#E55E75"/>
<path d="M12.4048 165.876L78.7098 24.4547L78.4966 24L12.1916 165.421L12.4048 165.876Z" fill="#E55E75"/>
<path d="M80.5852 28.4547L14.2802 169.876L14.067 169.421L80.3721 28L80.5852 28.4547Z" fill="#E55E75"/>
<path d="M16.1556 173.876L82.4607 32.4547L82.2475 32L15.9425 173.421L16.1556 173.876Z" fill="#E55E75"/>
<path d="M84.3361 36.4547L18.0311 177.876L17.8179 177.421L84.1229 36L84.3361 36.4547Z" fill="#E55E75"/>
<path d="M19.9065 181.876L86.2116 40.4547L85.9984 40L19.6933 181.421L19.9065 181.876Z" fill="#E55E75"/>
<path d="M88.0865 44.4547L21.7815 185.876L21.5683 185.421L87.8733 44L88.0865 44.4547Z" fill="#E55E75"/>
<path d="M23.6569 189.876L89.9619 48.4547L89.7487 48L23.4437 189.421L23.6569 189.876Z" fill="#E55E75"/>
<path d="M91.8374 52.4547L25.5323 193.876L25.3192 193.421L91.6242 52L91.8374 52.4547Z" fill="#E55E75"/>
<path d="M27.4078 197.876L93.7128 56.4547L93.4996 56L27.1946 197.421L27.4078 197.876Z" fill="#E55E75"/>
<path d="M95.5882 60.4547L29.2832 201.876L29.07 201.421L95.3751 60L95.5882 60.4547Z" fill="#E55E75"/>
<path d="M31.1587 205.876L97.4637 64.4547L97.2505 64L30.9455 205.421L31.1587 205.876Z" fill="#E55E75"/>
<path d="M99.3391 68.4547L33.0341 209.876L32.8209 209.421L99.1259 68L99.3391 68.4547Z" fill="#E55E75"/>
<path d="M34.9095 213.876L101.215 72.4547L101.001 72L34.6964 213.421L34.9095 213.876Z" fill="#E55E75"/>
<path d="M103.09 76.4547L36.785 217.876L36.5718 217.421L102.877 76L103.09 76.4547Z" fill="#E55E75"/>
<path d="M38.6604 221.876L104.965 80.4547L104.752 80L38.4472 221.421L38.6604 221.876Z" fill="#E55E75"/>
<path d="M106.84 84.4547L40.5353 225.876L40.3222 225.421L106.627 84L106.84 84.4547Z" fill="#E55E75"/>
<path d="M42.4108 229.876L108.716 88.4547L108.503 88L42.1976 229.421L42.4108 229.876Z" fill="#E55E75"/>
<path d="M110.591 92.4547L44.2862 233.876L44.073 233.421L110.378 92L110.591 92.4547Z" fill="#E55E75"/>
<path d="M46.1617 237.876L112.467 96.4547L112.254 96L45.9485 237.421L46.1617 237.876Z" fill="#E55E75"/>
<path d="M114.342 100.455L48.0371 241.876L47.8239 241.421L114.129 100L114.342 100.455Z" fill="#E55E75"/>
<path d="M49.9125 245.876L116.218 104.455L116.004 104L49.6994 245.421L49.9125 245.876Z" fill="#E55E75"/>
<path d="M118.093 108.455L51.788 249.876L51.5748 249.421L117.88 108L118.093 108.455Z" fill="#E55E75"/>
<path d="M53.6634 253.876L119.968 112.455L119.755 112L53.4502 253.421L53.6634 253.876Z" fill="#E55E75"/>
<path d="M121.844 116.455L55.5389 257.876L55.3257 257.421L121.631 116L121.844 116.455Z" fill="#E55E75"/>
<path d="M57.4143 261.876L123.719 120.455L123.506 120L57.2011 261.421L57.4143 261.876Z" fill="#E55E75"/>
<path d="M125.594 124.455L59.2892 265.876L59.0761 265.421L125.381 124L125.594 124.455Z" fill="#E55E75"/>
<path d="M61.1647 269.876L127.47 128.455L127.257 128L60.9515 269.421L61.1647 269.876Z" fill="#E55E75"/>
</svg>
