<svg width="26" height="18" viewBox="0 0 26 18" fill="none" xmlns="http://www.w3.org/2000/svg">
<path fill-rule="evenodd" clip-rule="evenodd" d="M4.48207 4.7781C4.46573 4.79175 4.43368 4.82005 4.39831 4.85187C4.37268 4.87494 4.35219 4.89358 4.30979 4.93231L1.96335 7.07547C1.9019 7.13424 1.85923 7.17372 1.76006 7.26429C1.70473 7.31483 1.66411 7.35365 1.57669 7.43848C1.41416 7.58214 1.24278 7.75365 1.08217 7.9347C0.93074 8.08102 0.809747 8.25144 0.725245 8.43762C0.55127 8.92173 0.55127 9.39228 0.706242 9.8293L0.727 9.88023C0.812185 10.0645 0.932457 10.2334 1.08215 10.3791C1.24289 10.5588 1.41426 10.7304 1.59549 10.8931C1.66411 10.9604 1.70473 10.9992 1.76006 11.0497L1.96335 11.2354L4.10266 13.1925C4.2027 13.2839 4.25183 13.3283 4.30874 13.3779C4.3694 13.4363 4.4331 13.4942 4.49705 13.5492C4.50849 13.5585 7.23508 16.0473 7.23508 16.0473C7.31929 16.1242 7.38722 16.1846 7.54002 16.3194C7.55624 16.3339 7.58086 16.3567 7.58842 16.364C7.62776 16.4018 7.65057 16.4236 7.66578 16.4375C7.98375 16.7283 8.3493 16.9727 8.74923 17.1619C9.15899 17.3482 9.58538 17.4763 10.0252 17.547C10.4407 17.6091 10.8523 17.6423 11.2648 17.6477C11.3358 17.6491 11.3948 17.6497 11.5263 17.6509C11.6532 17.6521 11.7091 17.6527 11.7778 17.654L19.9025 17.6541C19.9862 17.6527 20.0429 17.6521 20.1712 17.6509C20.3039 17.6497 20.3635 17.6491 20.4397 17.6477C20.854 17.641 21.2684 17.6067 21.6786 17.545C22.1281 17.4756 22.5606 17.3452 22.9642 17.1578C23.3709 16.9691 23.7422 16.7224 24.064 16.4269C24.3841 16.1334 24.6528 15.7961 24.8603 15.4272C25.0651 15.0528 25.2059 14.6596 25.2815 14.254C25.3503 13.875 25.3868 13.4945 25.3912 13.1132C25.3949 13.0348 25.3965 12.9598 25.3989 12.7938C25.4 12.7149 25.4006 12.6802 25.4015 12.6374L25.4016 5.64802C25.4006 5.59356 25.4 5.55898 25.3989 5.48153L25.3977 5.40107C25.396 5.29961 25.394 5.22348 25.3907 5.14766C25.3862 4.78875 25.3511 4.41318 25.2862 4.04144C25.207 3.6298 25.0667 3.24035 24.8678 2.87517C24.6587 2.50222 24.3917 2.16745 24.073 1.87642C23.7553 1.58402 23.3864 1.33825 22.982 1.15016C22.5802 0.966341 22.1558 0.837958 21.7179 0.767116C21.2978 0.70602 20.8856 0.673975 20.4725 0.6694C20.3358 0.664164 20.2149 0.663059 19.9473 0.663059C19.8596 0.661637 19.7571 0.660753 19.6418 0.660311C19.555 0.659978 19.4861 0.659912 19.3305 0.659912H12.4083C12.0979 0.659912 11.9573 0.660449 11.7801 0.663147C11.524 0.663059 11.403 0.664164 11.2472 0.669856C10.8544 0.673685 10.4428 0.705775 10.0355 0.765404C9.58537 0.837667 9.15899 0.965823 8.75917 1.14751C8.3493 1.3413 7.98375 1.58572 7.66548 1.87677C7.65057 1.89039 7.62776 1.91224 7.58997 1.94857C7.58086 1.95728 7.54002 1.99465 7.54002 1.99465C7.38722 2.1294 7.31929 2.18983 7.23508 2.26674L6.88363 2.58774L4.54618 4.72579C4.52569 4.74072 4.50378 4.75827 4.48207 4.7781ZM19.3305 1.91874C19.4842 1.91874 19.5518 1.91881 19.636 1.91913C19.7459 1.91955 19.8428 1.92039 19.9358 1.9218C20.1965 1.92189 20.3052 1.92288 20.4366 1.92768C20.802 1.93197 21.1475 1.95883 21.4895 2.00849C21.7845 2.05631 22.0819 2.14629 22.3606 2.2738C22.6304 2.39927 22.8802 2.5657 23.0966 2.76492C23.3157 2.96493 23.4975 3.19294 23.6374 3.44248C23.7738 3.69289 23.8725 3.96695 23.927 4.24963C23.9795 4.55092 24.0089 4.86535 24.0131 5.18047C24.0164 5.26126 24.0181 5.32794 24.0196 5.41976L24.0208 5.49817C24.0219 5.57846 24.0225 5.61495 24.0235 5.66061L24.0234 12.6251C24.0225 12.6592 24.0219 12.6957 24.0208 12.7774C24.0185 12.9324 24.0171 13.0001 24.0136 13.0819C24.0094 13.4167 23.9791 13.7328 23.9224 14.0454C23.87 14.3261 23.7716 14.601 23.6308 14.8584C23.4919 15.1053 23.3073 15.337 23.0872 15.5388C22.8684 15.7398 22.6162 15.9073 22.34 16.0355C22.0603 16.1653 21.7609 16.2556 21.4517 16.3034C21.1106 16.3546 20.7628 16.3834 20.414 16.3891C20.3424 16.3904 20.2858 16.391 20.1575 16.3922C20.0248 16.3934 19.9651 16.394 19.889 16.3954L11.7916 16.3953C11.7305 16.394 11.6716 16.3934 11.5401 16.3922C11.4131 16.391 11.3572 16.3904 11.2885 16.3891C10.9399 16.3845 10.596 16.3567 10.2557 16.306C9.9545 16.2575 9.65445 16.1673 9.3731 16.0395C9.10908 15.9145 8.85866 15.747 8.64063 15.5477L8.58682 15.4962C8.53334 15.445 8.51019 15.4232 8.48357 15.4016C8.34628 15.2805 8.28379 15.2249 8.20964 15.1571L5.4773 12.6615C5.45234 12.6408 5.43725 12.6282 5.42682 12.6198C5.37745 12.5764 5.33706 12.5392 5.29888 12.5021C5.21999 12.4323 5.17677 12.3933 5.07761 12.3028L2.9383 10.3456L2.73462 10.1596C2.69232 10.121 2.6583 10.0885 2.58032 10.0128C2.41061 9.85978 2.26822 9.71662 2.13503 9.56646L2.09335 9.52361C2.05861 9.49102 2.02977 9.45365 2.00786 9.41292C1.95484 9.24511 1.95504 9.06695 2.00846 8.89921C2.02912 8.86012 2.05671 8.82435 2.09017 8.79337L2.13714 8.74517C2.26814 8.59599 2.40907 8.4543 2.55913 8.32092C2.6583 8.22556 2.69232 8.19305 2.73462 8.15442C2.84219 8.05617 2.89025 8.01172 2.95024 7.95404L5.07761 6.01126L5.28434 5.82244C5.3255 5.78485 5.34315 5.76879 5.36551 5.74867L5.41104 5.71129C5.44416 5.68417 5.46252 5.66914 5.48074 5.6525L7.85854 3.47755L8.20964 3.15687C8.28379 3.08914 8.34628 3.03349 8.48357 2.91239C8.51019 2.89079 8.53334 2.869 8.58504 2.81957L8.64033 2.76663C8.85866 2.56698 9.10908 2.39953 9.38304 2.26994C9.65445 2.1467 9.9545 2.05651 10.264 2.00678C10.594 1.95854 10.9379 1.93173 11.2826 1.92814C11.4336 1.92288 11.5423 1.92189 11.7916 1.92189C11.9701 1.91926 12.1055 1.91874 12.4083 1.91874H19.3305ZM12.8029 12.4884C12.7472 12.5384 12.6806 12.5791 12.6056 12.6074C12.3735 12.6949 12.1065 12.646 11.9293 12.4835C11.6884 12.2625 11.6884 11.9052 11.9293 11.6841C11.9644 11.652 12.003 11.6242 12.0442 11.6011L14.7202 9.1543L11.9294 6.60795L11.9377 6.60032C11.883 6.54935 11.8383 6.48848 11.8073 6.41989C11.7114 6.20791 11.765 5.96406 11.9429 5.80225C12.1849 5.58219 12.5761 5.58219 12.8181 5.80225C12.8532 5.83416 12.8835 5.86927 12.9087 5.90669L15.594 8.35541L18.3046 5.877C18.3246 5.85075 18.3473 5.82569 18.3728 5.80217C18.5492 5.64026 18.8152 5.59152 19.0464 5.67871C19.2776 5.7659 19.4284 5.97182 19.4284 6.20027C19.4284 6.35264 19.3613 6.49498 19.248 6.59876L19.2546 6.60478L16.4681 9.15256L19.1869 11.6319C19.2118 11.6484 19.2356 11.6668 19.2581 11.6872C19.4354 11.8483 19.4888 12.0912 19.3933 12.3024C19.2979 12.5136 19.0724 12.6513 18.8223 12.6513C18.6556 12.6513 18.4998 12.5901 18.3862 12.4868L18.3795 12.493L15.5942 9.95166L12.8114 12.4961L12.8029 12.4884Z" fill="#E9F0FF"/>
</svg>
