<svg width="95" height="42" viewBox="0 0 95 42" fill="none" xmlns="http://www.w3.org/2000/svg">
<path fill-rule="evenodd" clip-rule="evenodd" d="M0 7.36C0 4.78376 0 3.49564 0.50137 2.51164C0.942388 1.6461 1.6461 0.942388 2.51164 0.50137C3.49564 0 4.78376 0 7.36 0H87.64C90.2162 0 91.5044 0 92.4884 0.50137C93.3539 0.942388 94.0576 1.6461 94.4986 2.51164C95 3.49564 95 4.78376 95 7.36V34.64C95 37.2162 95 38.5044 94.4986 39.4884C94.0576 40.3539 93.3539 41.0576 92.4884 41.4986C91.5044 42 90.2162 42 87.64 42H7.36C4.78376 42 3.49564 42 2.51164 41.4986C1.6461 41.0576 0.942388 40.3539 0.50137 39.4884C0 38.5044 0 37.2162 0 34.64V7.36Z" fill="#9E9E9E" fill-opacity="0.6"/>
</svg>
