<svg width="200" height="42" viewBox="0 0 200 42" fill="none" xmlns="http://www.w3.org/2000/svg">
<path fill-rule="evenodd" clip-rule="evenodd" d="M0.821289 7.36C0.821289 4.78376 0.821289 3.49564 1.32266 2.51164C1.76368 1.6461 2.46739 0.942388 3.33293 0.50137C4.31693 0 5.60505 0 8.18129 0H192.461C195.038 0 196.326 0 197.31 0.50137C198.175 0.942388 198.879 1.6461 199.32 2.51164C199.821 3.49564 199.821 4.78376 199.821 7.36V34.64C199.821 37.2162 199.821 38.5044 199.32 39.4884C198.879 40.3539 198.175 41.0576 197.31 41.4986C196.326 42 195.038 42 192.461 42H8.18129C5.60505 42 4.31693 42 3.33293 41.4986C2.46739 41.0576 1.76368 40.3539 1.32266 39.4884C0.821289 38.5044 0.821289 37.2162 0.821289 34.64V7.36Z" fill="white"/>
</svg>
