<svg width="13" height="14" viewBox="0 0 13 14" fill="none" xmlns="http://www.w3.org/2000/svg">
<path d="M12.5314 5.00936L8.80154 4.42312L7.13421 0.767478C7.08867 0.667389 7.01375 0.586364 6.9212 0.537114C6.6891 0.413194 6.40705 0.51646 6.291 0.767478L4.62366 4.42312L0.893832 5.00936C0.791001 5.02525 0.696984 5.07768 0.625002 5.15711C0.53798 5.25384 0.490027 5.38398 0.49168 5.51893C0.493332 5.65388 0.544456 5.7826 0.633816 5.8768L3.3324 8.7222L2.69485 12.7401C2.67989 12.8335 2.68946 12.9297 2.72245 13.0176C2.75544 13.1054 2.81055 13.1816 2.88151 13.2373C2.95247 13.293 3.03646 13.3262 3.12394 13.3329C3.21143 13.3397 3.29891 13.3198 3.37647 13.2755L6.7126 11.3785L10.0487 13.2755C10.1398 13.3279 10.2456 13.3454 10.3469 13.3263C10.6026 13.2787 10.7744 13.0165 10.7304 12.7401L10.0928 8.7222L12.7914 5.8768C12.8648 5.79896 12.9133 5.69728 12.928 5.58607C12.9677 5.30804 12.7885 5.05067 12.5314 5.00936V5.00936Z" fill="#FDBF00"/>
</svg>
