<svg width="22" height="17" viewBox="0 0 22 17" fill="none" xmlns="http://www.w3.org/2000/svg">
<path d="M20.6267 10.6642H16.0316V14.6333C16.0316 14.7133 16.0316 14.7866 16.0316 14.8633C16.0316 14.9299 16.0316 14.9933 16.0287 15.0599C16.0267 15.2028 16.0131 15.3454 15.9882 15.4865C15.961 15.6266 15.9119 15.7624 15.8422 15.8897C15.7709 16.0169 15.6778 16.1328 15.5664 16.233C15.4545 16.3332 15.3267 16.4174 15.1873 16.4829C15.0461 16.5457 14.8963 16.5905 14.7418 16.6162C14.5869 16.6384 14.4305 16.6507 14.2737 16.6529C14.2007 16.6529 14.1299 16.6562 14.0584 16.6562H8.14718C8.0742 16.6562 8.00378 16.6529 7.9319 16.6529C7.77512 16.6507 7.61869 16.6384 7.46378 16.6162C7.30944 16.5905 7.15968 16.5457 7.01864 16.4829C6.87927 16.4174 6.75148 16.3332 6.63954 16.233C6.52806 16.1328 6.43492 16.0169 6.3637 15.8897C6.29406 15.7624 6.24491 15.6266 6.21776 15.4865C6.19266 15.3454 6.179 15.2028 6.17689 15.0599C6.17689 14.9933 6.17397 14.9299 6.17397 14.8633C6.17397 14.7866 6.17397 14.7133 6.17397 14.6333V10.6642H1.50622C1.03408 10.6642 0.428402 9.73446 0.995407 9.21791C1.4774 8.78134 9.05278 1.8829 10.6381 0.446562C10.7546 0.3158 10.9192 0.228157 11.1011 0.199951H11.1136C11.271 0.207749 11.4172 0.276932 11.5149 0.389908C13.1003 1.82625 20.7015 8.78134 21.1839 9.21791C21.7513 9.73446 21.2762 10.6642 20.6267 10.6642Z" fill="#212121"/>
</svg>
