<svg width="47" height="42" viewBox="0 0 47 42" fill="none" xmlns="http://www.w3.org/2000/svg">
<path fill-rule="evenodd" clip-rule="evenodd" d="M0.0166016 7.36C0.0166016 4.78376 0.0166016 3.49564 0.517972 2.51164C0.958989 1.6461 1.6627 0.942388 2.52825 0.50137C3.51224 0 4.80036 0 7.3766 0H38.6566C41.2328 0 42.521 0 43.505 0.50137C44.3705 0.942388 45.0742 1.6461 45.5152 2.51164C46.0166 3.49564 46.0166 4.78376 46.0166 7.36V34.64C46.0166 37.2162 46.0166 38.5044 45.5152 39.4884C45.0742 40.3539 44.3705 41.0576 43.505 41.4986C42.521 42 41.2328 42 38.6566 42H7.3766C4.80036 42 3.51224 42 2.52825 41.4986C1.6627 41.0576 0.958989 40.3539 0.517972 39.4884C0.0166016 38.5044 0.0166016 37.2162 0.0166016 34.64V7.36Z" fill="#3D3D44"/>
</svg>
