<svg width="13" height="14" viewBox="0 0 13 14" fill="none" xmlns="http://www.w3.org/2000/svg">
<path d="M12.0744 5.00942L8.33742 4.42319L6.66688 0.767539C6.62125 0.66745 6.54619 0.586425 6.45346 0.537175C6.22091 0.413255 5.93832 0.516522 5.82204 0.767539L4.15151 4.42319L0.414503 5.00942C0.311474 5.02531 0.217276 5.07774 0.145156 5.15717C0.0579665 5.25391 0.00992117 5.38404 0.0115771 5.51899C0.013233 5.65394 0.0644546 5.78266 0.153987 5.87686L2.85776 8.72226L2.21898 12.7401C2.204 12.8336 2.21358 12.9297 2.24664 13.0176C2.27969 13.1055 2.3349 13.1816 2.406 13.2374C2.4771 13.2931 2.56125 13.3262 2.6489 13.333C2.73656 13.3397 2.82421 13.3198 2.90191 13.2755L6.24446 11.3786L9.58701 13.2755C9.67827 13.328 9.78424 13.3454 9.8858 13.3264C10.1419 13.2787 10.3141 13.0166 10.2699 12.7401L9.63117 8.72226L12.3349 5.87686C12.4085 5.79902 12.4571 5.69734 12.4718 5.58613C12.5116 5.3081 12.332 5.05073 12.0744 5.00942V5.00942Z" fill="#FDBF00"/>
</svg>
