<svg width="97" height="42" viewBox="0 0 97 42" fill="none" xmlns="http://www.w3.org/2000/svg">
<path fill-rule="evenodd" clip-rule="evenodd" d="M0.65332 7.36C0.65332 4.78376 0.65332 3.49564 1.15469 2.51164C1.59571 1.6461 2.29942 0.942388 3.16496 0.50137C4.14896 0 5.43708 0 8.01332 0H89.2933C91.8696 0 93.1577 0 94.1417 0.50137C95.0072 0.942388 95.7109 1.6461 96.152 2.51164C96.6533 3.49564 96.6533 4.78376 96.6533 7.36V34.64C96.6533 37.2162 96.6533 38.5044 96.152 39.4884C95.7109 40.3539 95.0072 41.0576 94.1417 41.4986C93.1577 42 91.8696 42 89.2933 42H8.01332C5.43708 42 4.14896 42 3.16496 41.4986C2.29942 41.0576 1.59571 40.3539 1.15469 39.4884C0.65332 38.5044 0.65332 37.2162 0.65332 34.64V7.36Z" fill="#2489F4"/>
</svg>
