<svg width="47" height="42" viewBox="0 0 47 42" fill="none" xmlns="http://www.w3.org/2000/svg">
<path fill-rule="evenodd" clip-rule="evenodd" d="M0.0161133 7.36C0.0161133 4.78376 0.0161133 3.49564 0.517483 2.51164C0.958501 1.6461 1.66221 0.942388 2.52776 0.50137C3.51175 0 4.79987 0 7.37611 0H38.6561C41.2324 0 42.5205 0 43.5045 0.50137C44.37 0.942388 45.0737 1.6461 45.5147 2.51164C46.0161 3.49564 46.0161 4.78376 46.0161 7.36V34.64C46.0161 37.2162 46.0161 38.5044 45.5147 39.4884C45.0737 40.3539 44.37 41.0576 43.5045 41.4986C42.5205 42 41.2324 42 38.6561 42H7.37611C4.79987 42 3.51175 42 2.52776 41.4986C1.66221 41.0576 0.958501 40.3539 0.517483 39.4884C0.0161133 38.5044 0.0161133 37.2162 0.0161133 34.64V7.36Z" fill="#9E9E9E" fill-opacity="0.6"/>
</svg>
