<svg width="20" height="20" viewBox="0 0 20 20" fill="none" xmlns="http://www.w3.org/2000/svg">
<path d="M10.0306 17.6904C7.98782 17.6904 6.02872 16.879 4.58428 15.4345C3.13983 13.9901 2.32835 12.031 2.32835 9.98821C2.32835 7.94546 3.13983 5.98637 4.58428 4.54192C6.02872 3.09747 7.98782 2.28599 10.0306 2.28599C12.0733 2.28599 14.0324 3.09747 15.4769 4.54192C16.9213 5.98637 17.7328 7.94546 17.7328 9.98821C17.7328 12.031 16.9213 13.9901 15.4769 15.4345C14.0324 16.879 12.0733 17.6904 10.0306 17.6904ZM10.0306 18.7908C12.3652 18.7908 14.6041 17.8634 16.2549 16.2126C17.9057 14.5618 18.8331 12.3228 18.8331 9.98821C18.8331 7.65363 17.9057 5.41467 16.2549 3.76387C14.6041 2.11308 12.3652 1.18567 10.0306 1.18567C7.69599 1.18567 5.45703 2.11308 3.80623 3.76387C2.15544 5.41467 1.22803 7.65363 1.22803 9.98821C1.22803 12.3228 2.15544 14.5618 3.80623 16.2126C5.45703 17.8634 7.69599 18.7908 10.0306 18.7908V18.7908Z" fill="#1262AF"/>
<path d="M8.06557 6.2504C8.16937 6.19695 8.2859 6.17317 8.40234 6.18168C8.51878 6.19019 8.63062 6.23066 8.72555 6.29863L13.1677 9.4716C13.25 9.5303 13.317 9.6078 13.3633 9.69765C13.4095 9.7875 13.4337 9.8871 13.4337 9.98816C13.4337 10.0892 13.4095 10.1888 13.3633 10.2787C13.317 10.3685 13.25 10.446 13.1677 10.5047L8.72555 13.6777C8.63065 13.7456 8.51887 13.786 8.40249 13.7945C8.28611 13.8031 8.16963 13.7793 8.06587 13.7259C7.96211 13.6725 7.87507 13.5916 7.81434 13.4919C7.75361 13.3923 7.72152 13.2778 7.72162 13.1611V6.81519C7.7215 6.69853 7.75354 6.58409 7.81421 6.48445C7.87489 6.38481 7.96186 6.30383 8.06557 6.2504V6.2504Z" fill="#1262AF"/>
</svg>
